<svg xmlns="http://www.w3.org/2000/svg" xmlns:xlink="http://www.w3.org/1999/xlink" viewBox="0 0 730.83 720"><defs><style>.a2a578d3-1097-4610-a468-44da71b45a4a{isolation:isolate;}.e38ead65-d0dc-43b8-bb15-9786b79b9298{fill:url(#bf2b2751-fb13-4e3f-a881-e708c0e3a838);}.a3512338-ca13-46c8-960e-86c770d44376,.a43714dd-b02a-4f16-ae75-4840b3ca6709,.ab5dbf0a-b6d9-4150-a65e-d16d8bec04a6,.af39d119-1ba9-46d5-896f-c77be8cfbd82,.afa021bf-5d6d-41bf-9fc2-8eae12bc2ab3,.b338a59e-c4cc-4322-820e-806d388af912,.ba050794-3fb0-48ef-bb92-d49cad680d87,.f130e05b-8eba-4345-ad99-3e231f046acb,.f2dff528-1628-46cf-b0f1-fcdbf6c288f5,.fb1af1d0-e8c1-4bc6-9866-25d7347f1f4b,.fbc100d4-f42f-4461-93f1-bb4cd0827f31{fill:#27043d;}.a43714dd-b02a-4f16-ae75-4840b3ca6709,.fbc100d4-f42f-4461-93f1-bb4cd0827f31{opacity:0.6;}.a43714dd-b02a-4f16-ae75-4840b3ca6709,.a758a019-d12a-43c6-b642-7b2c661c2d69,.ab5dbf0a-b6d9-4150-a65e-d16d8bec04a6,.afa021bf-5d6d-41bf-9fc2-8eae12bc2ab3,.b338a59e-c4cc-4322-820e-806d388af912,.ba050794-3fb0-48ef-bb92-d49cad680d87,.beef3238-da1a-457e-a507-b01aa97f5eee,.f130e05b-8eba-4345-ad99-3e231f046acb,.f2dff528-1628-46cf-b0f1-fcdbf6c288f5,.f371ec8f-e9cd-4b7b-aaf8-93a0b4c64e19{mix-blend-mode:screen;}.a6691c9d-757e-49a4-9c9d-191c23362c1b,.a9e46f0b-521e-4621-a0bd-3fc6be3dda5e,.b338a59e-c4cc-4322-820e-806d388af912{opacity:0.3;}.af39d119-1ba9-46d5-896f-c77be8cfbd82,.f130e05b-8eba-4345-ad99-3e231f046acb{opacity:0.8;}.ab5dbf0a-b6d9-4150-a65e-d16d8bec04a6,.fb1af1d0-e8c1-4bc6-9866-25d7347f1f4b{opacity:0.4;}.acc254b8-b32b-4406-aede-a6d18ac200d0,.ba050794-3fb0-48ef-bb92-d49cad680d87,.beef3238-da1a-457e-a507-b01aa97f5eee{opacity:0.2;}.afa021bf-5d6d-41bf-9fc2-8eae12bc2ab3,.f371ec8f-e9cd-4b7b-aaf8-93a0b4c64e19{opacity:0.5;}.a9cdb4b4-719c-4819-8b50-0fd78e689cbb{opacity:0.7;fill:url(#eddeb9b4-d003-4797-a3ae-adcca7e00755);}.a6691c9d-757e-49a4-9c9d-191c23362c1b,.a9bf36d1-5c4d-4049-8abc-8b2b6a01a2f0,.a9c93d02-610b-405c-b81e-95fc05539c22,.a9cdb4b4-719c-4819-8b50-0fd78e689cbb,.a9e46f0b-521e-4621-a0bd-3fc6be3dda5e,.acbe2c4a-5788-413b-8043-2fa9972176fc,.b120310e-511b-41ad-b7d0-9be87c0e5c16,.b54cfe5d-ec3b-4d0f-ab5d-8ab79957c095,.b696a11d-1db6-4e5b-986a-e3f67c614af7,.bdf97950-73dd-45e4-8ec4-4c5eed298807,.e66eb2a7-8b5d-48da-badd-edbea9b956d2,.eff32c27-a778-47bf-9eb8-b4c3fc83f402,.fa17b878-72f7-4a84-8315-ee04a7e5007c,.fba8899a-8ed0-4ebf-aae9-42bec70bf56f,.fc4955ad-b38b-46f9-8494-bdfef5ebe36e,.fcf4a25e-5eee-4596-b5df-5e8dc8b2a455{mix-blend-mode:color-dodge;}.fc4955ad-b38b-46f9-8494-bdfef5ebe36e,.fcf4a25e-5eee-4596-b5df-5e8dc8b2a455{opacity:0.15;}.fc4955ad-b38b-46f9-8494-bdfef5ebe36e{fill:url(#bb960a1b-33b3-4473-8f0e-bf803c755b24);}.a9bf36d1-5c4d-4049-8abc-8b2b6a01a2f0,.a9c93d02-610b-405c-b81e-95fc05539c22,.bb178b05-7967-4445-802b-e45b570ef67f{opacity:0.1;}.a9c93d02-610b-405c-b81e-95fc05539c22{fill:url(#f296ee61-828b-4f73-9c21-969e200e371f);}.a6691c9d-757e-49a4-9c9d-191c23362c1b{fill:url(#a811223a-7233-4735-afd9-7835eb6442cd);}.a9bf36d1-5c4d-4049-8abc-8b2b6a01a2f0{fill:url(#e43b7429-76be-4af6-b15e-2812636d4460);}.a9e46f0b-521e-4621-a0bd-3fc6be3dda5e{fill:url(#be2a3f24-a011-424f-be05-f009e2291639);}.fcf4a25e-5eee-4596-b5df-5e8dc8b2a455{fill:url(#ed1a97fa-f66d-4a32-98b0-518946f2db3f);}.b1b93da7-661d-4cfd-87eb-4a59609525c8{fill:url(#bafedfaf-fb4e-47af-8a98-28e4159322f0);}.bdf97950-73dd-45e4-8ec4-4c5eed298807{fill:url(#e4ddab30-39be-427f-80dd-fccc7d3b17be);}.a6fcbb1a-7b93-4066-b76b-dc39a4b388c4{fill:url(#b98f733a-aa45-455f-85f5-15e367f475f4);}.a8e6923d-5baa-4c65-b5c7-5ae18c6138e8{fill:url(#aac670f5-a688-4543-9943-ade9451d3a8c);}.b63c50ff-92f9-4e9e-8913-2e19297b8ad6{fill:url(#e9e5c59c-0c35-493d-b965-8c4e3e58edb7);}.b09aaded-fdf5-4931-8b86-8b62cc27e9f5{fill:url(#aaef2f13-1366-4881-b965-c988dfcbacbb);}.be51ee90-2bcd-454f-8720-12a01bec8e97{fill:url(#f5cf2bf0-83e7-48a1-978b-9ca5ee7e9432);}.a6918c6b-6fc0-4252-8b4c-cf9c4e1a700c{fill:url(#b61d00e8-d2ee-4216-ac64-79940689aa29);}.b0f21857-dd05-4bd8-9e10-9d880c0df9e3{fill:url(#e7b1a921-c1b2-4cad-b913-6d7bf96e3c2a);}.b1c5c447-07a1-4042-b886-45e8d25a277c{fill:#d1d3d4;}.a806279d-37b0-439d-bd59-77af3a363485,.ac0987ba-2f6e-4d2e-b442-2f7adca65781,.acc254b8-b32b-4406-aede-a6d18ac200d0,.b1c5c447-07a1-4042-b886-45e8d25a277c,.b3e23304-239c-4387-936d-6deea34657fb,.b47ef8f9-c887-4dcc-a02b-7586364886c2,.b5f972cf-57f8-4357-ad94-f6c63a239f6d,.b61b2e9f-dd40-44eb-a561-06dc607a53ed,.b6d6ec47-86d6-4043-8a7f-7e11e6a57d0d,.bb178b05-7967-4445-802b-e45b570ef67f,.bbb87cfa-6c34-4a93-961f-c93615ae477d,.f14826b2-8fb0-4731-baa8-65017adc5a34,.f470e7ab-d674-49b3-8967-7dc015f487db{mix-blend-mode:multiply;}.b591194b-d8ca-44b7-b7bf-3dbce0c1bb46{fill:url(#b92c226d-fdec-4012-8e55-47d74859dfee);}.b54cfe5d-ec3b-4d0f-ab5d-8ab79957c095{fill:url(#a3676c87-b95f-4d12-82c4-1bc95c0abd8b);}.fba8899a-8ed0-4ebf-aae9-42bec70bf56f{fill:url(#b95b7742-25d6-4c73-a0ac-9e11c72e8623);}.b696a11d-1db6-4e5b-986a-e3f67c614af7{fill:url(#a46fd1a7-dce1-4fc1-b16f-f86c9efe578b);}.eff32c27-a778-47bf-9eb8-b4c3fc83f402{fill:url(#b173f19a-f4a8-4197-a27d-c08b2aa9f265);}.f83be57d-20b3-40d2-85ce-dfdc4345d647{fill:url(#b2157b88-c450-4e94-87c9-57687cb432cb);}.ac20c78a-b54b-4cea-af11-78bfab91e491{fill:url(#e729a829-d00d-42fa-ab61-e7671b0aafa5);}.e66eb2a7-8b5d-48da-badd-edbea9b956d2{fill:url(#b49ba610-4896-48c4-8d56-379dee2b61ee);}.eadf8de6-0d82-410f-b662-eefb5e1f802a{fill:url(#af978d2b-6815-4831-bff5-a52d66906497);}.bb351691-1d2e-46a0-8c6c-b7a74feca7dc{fill:url(#ad4861db-b30c-4c1c-855a-433fa80961c5);}.fc1a2a95-ffaf-48e8-b299-1b762ccb37ed{fill:url(#ba5f695f-c254-47b2-9b7a-2c90f00129f4);}.b4219406-d221-41be-a034-fa6cf4d6a2ca{fill:url(#f3a0bf42-dde2-4328-b135-75747f729281);}.bb178b05-7967-4445-802b-e45b570ef67f{fill:url(#a4eec0fe-9ba2-4d10-bd86-04cca039aef5);}.a806279d-37b0-439d-bd59-77af3a363485{opacity:0.11;fill:url(#b0fde9a7-62bc-4e69-b227-965a400c5bab);}.b6d6ec47-86d6-4043-8a7f-7e11e6a57d0d{opacity:0.12;fill:url(#b6f32d51-9ba4-471b-b74b-73db1b197375);}.b3e23304-239c-4387-936d-6deea34657fb{opacity:0.13;fill:url(#a25c52b3-bdae-4227-a984-da4cdfd4aaeb);}.b47ef8f9-c887-4dcc-a02b-7586364886c2{opacity:0.14;fill:url(#a542828c-7fe7-426a-b69a-0b891fb21426);}.f14826b2-8fb0-4731-baa8-65017adc5a34{opacity:0.15;fill:url(#b3550392-f4ef-45c0-b2ea-abd8358478b3);}.ac0987ba-2f6e-4d2e-b442-2f7adca65781{opacity:0.15;fill:url(#fc3e20ac-2356-405e-abab-c782a179f563);}.b5f972cf-57f8-4357-ad94-f6c63a239f6d{opacity:0.16;fill:url(#a283cfef-d1ba-486a-a853-91d27df074fc);}.f470e7ab-d674-49b3-8967-7dc015f487db{opacity:0.17;fill:url(#a4201d82-f5e9-4e4a-91db-aaa1ee3114f3);}.b61b2e9f-dd40-44eb-a561-06dc607a53ed{opacity:0.18;fill:url(#ab3fcdea-40fa-455f-a1e5-a096686c9c86);}.bbb87cfa-6c34-4a93-961f-c93615ae477d{opacity:0.19;fill:url(#a069a4fe-f347-4047-a300-354e3242eeff);}.acc254b8-b32b-4406-aede-a6d18ac200d0{fill:#231f20;}.ee2dc823-e856-413b-b416-317829825749{fill:url(#afc2f352-2b52-41e6-ac53-2e047d287bd4);}.e3fc2ad3-4807-470f-a341-eb32b555d169{fill:url(#fb5f08b5-8984-451f-8e8c-e22b52d5cc2c);}.acbe2c4a-5788-413b-8043-2fa9972176fc{fill:url(#ae1d53f4-0e37-4d31-927e-4cd51ff83587);}.b6c68a92-3be8-4e23-a23a-9e23494cbdba{fill:url(#fb0c3305-0ba3-4114-80fe-2733b7ed34bc);}.b74c13d6-0468-40d8-9be9-b9d605c1b183{fill:url(#ac5eb9cd-9209-47ae-a216-6c5af3d0466c);}.fa17b878-72f7-4a84-8315-ee04a7e5007c{fill:url(#af0db595-c384-405b-9993-a51aaca89316);}.b120310e-511b-41ad-b7d0-9be87c0e5c16{fill:url(#ac3d4f8c-4dec-494b-9c9a-b47ea22e64ff);}</style><linearGradient id="bf2b2751-fb13-4e3f-a881-e708c0e3a838" x1="769.07" y1="665.14" x2="-51.24" y2="45.03" gradientUnits="userSpaceOnUse"><stop offset="0.02" stop-color="#005c9a"/><stop offset="0.42" stop-color="#00788d"/><stop offset="1" stop-color="#12054e"/><stop offset="1" stop-color="#003d5d"/></linearGradient><radialGradient id="eddeb9b4-d003-4797-a3ae-adcca7e00755" cx="3933.7" cy="-610.83" r="30.37" gradientTransform="matrix(2.76, 0, 0, 0.9, -10615.28, 865.38)" gradientUnits="userSpaceOnUse"><stop offset="0" stop-color="#dc3daa"/><stop offset="0.11" stop-color="#b5328c"/><stop offset="0.28" stop-color="#7f2362"/><stop offset="0.45" stop-color="#51173f"/><stop offset="0.61" stop-color="#2e0d23"/><stop offset="0.76" stop-color="#150610"/><stop offset="0.89" stop-color="#050104"/><stop offset="1"/></radialGradient><radialGradient id="bb960a1b-33b3-4473-8f0e-bf803c755b24" cx="6534.73" cy="-7068.2" r="30.37" gradientTransform="matrix(1.66, 0, 0, 0.59, -10517.5, 4521.84)" xlink:href="#eddeb9b4-d003-4797-a3ae-adcca7e00755"/><radialGradient id="f296ee61-828b-4f73-9c21-969e200e371f" cx="9031.75" cy="12200.89" r="30.37" gradientTransform="matrix(-1.66, 0, 0, -0.59, 15447.64, 7488.95)" xlink:href="#eddeb9b4-d003-4797-a3ae-adcca7e00755"/><radialGradient id="a811223a-7233-4735-afd9-7835eb6442cd" cx="4113.15" cy="15044.45" r="30.37" gradientTransform="matrix(-1.66, 0, 0, -0.59, 7203.46, 9111.67)" xlink:href="#eddeb9b4-d003-4797-a3ae-adcca7e00755"/><radialGradient id="e43b7429-76be-4af6-b15e-2812636d4460" cx="3577.73" cy="-1433.56" r="30.37" gradientTransform="matrix(1.97, 0, 0, 0.9, -6609.37, 1551.47)" xlink:href="#eddeb9b4-d003-4797-a3ae-adcca7e00755"/><radialGradient id="be2a3f24-a011-424f-be05-f009e2291639" cx="2458.11" cy="3791.24" r="30.37" gradientTransform="matrix(0, 1.97, -0.9, 0, 3847.83, -4497.82)" xlink:href="#eddeb9b4-d003-4797-a3ae-adcca7e00755"/><radialGradient id="ed1a97fa-f66d-4a32-98b0-518946f2db3f" cx="2341.53" cy="4455.19" r="30.37" gradientTransform="matrix(0, 1.97, -0.9, 0, 4304.55, -4353.86)" xlink:href="#eddeb9b4-d003-4797-a3ae-adcca7e00755"/><linearGradient id="bafedfaf-fb4e-47af-8a98-28e4159322f0" x1="-6470.48" y1="5435.81" x2="-6645.14" y2="5201.76" gradientTransform="translate(8819.19 1051.86) rotate(45)" gradientUnits="userSpaceOnUse"><stop offset="0.06" stop-color="#0a4a88"/><stop offset="0.24" stop-color="#0a4c88"/><stop offset="0.33" stop-color="#0a5488"/><stop offset="0.39" stop-color="#0a6188"/><stop offset="0.42" stop-color="#0a6888"/><stop offset="0.69" stop-color="#0a6a88"/><stop offset="0.72" stop-color="#0a6d88"/><stop offset="0.81" stop-color="#0a7288"/><stop offset="0.88" stop-color="#0a5e88"/><stop offset="0.94" stop-color="#0a4f88"/><stop offset="1" stop-color="#0a4a88"/></linearGradient><radialGradient id="e4ddab30-39be-427f-80dd-fccc7d3b17be" cx="-6562.61" cy="5269.08" r="110.01" gradientTransform="translate(8819.19 1051.86) rotate(45)" gradientUnits="userSpaceOnUse"><stop offset="0" stop-color="#fff"/><stop offset="0.07" stop-color="#d8d8d8"/><stop offset="0.16" stop-color="#a6a6a6"/><stop offset="0.26" stop-color="#797979"/><stop offset="0.37" stop-color="#545454"/><stop offset="0.47" stop-color="#353535"/><stop offset="0.59" stop-color="#1e1e1e"/><stop offset="0.7" stop-color="#0d0d0d"/><stop offset="0.84" stop-color="#030303"/><stop offset="1"/></radialGradient><linearGradient id="b98f733a-aa45-455f-85f5-15e367f475f4" x1="-1072.77" y1="5325" x2="-1295.72" y2="5355.95" gradientTransform="matrix(-0.5, 0.86, -0.86, -0.5, 4420.53, 3853.8)" gradientUnits="userSpaceOnUse"><stop offset="0" stop-color="#0a8688"/><stop offset="0.17" stop-color="#0a7b88"/><stop offset="0.49" stop-color="#0a6a88"/><stop offset="1" stop-color="#0a7988"/></linearGradient><radialGradient id="aac670f5-a688-4543-9943-ade9451d3a8c" cx="-1146.82" cy="946.43" r="112.26" gradientTransform="translate(1040.17 1877.72) rotate(120.31) scale(1 1.5)" gradientUnits="userSpaceOnUse"><stop offset="0" stop-color="#0a8188"/><stop offset="0.41" stop-color="#0a7f88"/><stop offset="0.82" stop-color="#0a7288"/><stop offset="0.9" stop-color="#0a6388"/><stop offset="1" stop-color="#0a4a88"/></radialGradient><linearGradient id="e9e5c59c-0c35-493d-b965-8c4e3e58edb7" x1="-1378.28" y1="5387.17" x2="-904.97" y2="5281.07" gradientTransform="translate(4420.53 3853.79) rotate(120.31)" gradientUnits="userSpaceOnUse"><stop offset="0" stop-color="#d4d1d8"/><stop offset="1" stop-color="#eeebf2"/></linearGradient><radialGradient id="aaef2f13-1366-4881-b965-c988dfcbacbb" cx="-1146.82" cy="946.43" r="80.18" gradientTransform="translate(1040.17 1877.72) rotate(120.31) scale(1 1.5)" gradientUnits="userSpaceOnUse"><stop offset="0" stop-color="#0a6688"/><stop offset="0.4" stop-color="#0a6388"/><stop offset="0.82" stop-color="#0a6d88"/><stop offset="0.91" stop-color="#0a5e88"/><stop offset="1" stop-color="#0a4a88"/></radialGradient><linearGradient id="f5cf2bf0-83e7-48a1-978b-9ca5ee7e9432" x1="-1301.11" y1="5369.87" x2="-985.56" y2="5299.14" gradientTransform="matrix(-0.5, 0.86, -0.86, -0.5, 4420.53, 3853.79)" xlink:href="#e9e5c59c-0c35-493d-b965-8c4e3e58edb7"/><radialGradient id="b61d00e8-d2ee-4216-ac64-79940689aa29" cx="-1146.82" cy="946.43" r="48.11" gradientTransform="matrix(-0.5, 0.86, -1.29, -0.76, 1040.16, 1877.72)" gradientUnits="userSpaceOnUse"><stop offset="0" stop-color="#0a4a88"/><stop offset="0.41" stop-color="#0a86b5"/><stop offset="0.54" stop-color="#0a77a9"/><stop offset="0.8" stop-color="#0a4e8b"/><stop offset="0.82" stop-color="#0a4a88"/><stop offset="0.9" stop-color="#0a4a97"/><stop offset="1" stop-color="#0a4ab3"/></radialGradient><linearGradient id="e7b1a921-c1b2-4cad-b913-6d7bf96e3c2a" x1="-1223.93" y1="5352.57" x2="-1066.16" y2="5317.2" gradientTransform="translate(4420.52 3853.8) rotate(120.31)" xlink:href="#e9e5c59c-0c35-493d-b965-8c4e3e58edb7"/><linearGradient id="b92c226d-fdec-4012-8e55-47d74859dfee" x1="339.14" y1="172.33" x2="438.11" y2="170.23" gradientTransform="translate(459.21 -252.74) rotate(75.31)" gradientUnits="userSpaceOnUse"><stop offset="0.04" stop-color="#0a4a88"/><stop offset="1" stop-color="#0a4a88"/></linearGradient><radialGradient id="a3676c87-b95f-4d12-82c4-1bc95c0abd8b" cx="-1124.38" cy="5335.05" r="103.16" gradientTransform="translate(4976.82 -2790.51) rotate(45)" xlink:href="#e4ddab30-39be-427f-80dd-fccc7d3b17be"/><radialGradient id="b95b7742-25d6-4c73-a0ac-9e11c72e8623" cx="-1130.73" cy="5335.16" r="73.68" gradientTransform="translate(4976.82 -2790.51) rotate(45)" xlink:href="#e4ddab30-39be-427f-80dd-fccc7d3b17be"/><radialGradient id="a46fd1a7-dce1-4fc1-b16f-f86c9efe578b" cx="-1137.43" cy="5335.21" r="44.32" gradientTransform="translate(4976.82 -2790.51) rotate(45)" xlink:href="#e4ddab30-39be-427f-80dd-fccc7d3b17be"/><radialGradient id="b173f19a-f4a8-4197-a27d-c08b2aa9f265" cx="-1143.92" cy="5335.27" r="14.88" gradientTransform="translate(4976.82 -2790.51) rotate(45)" xlink:href="#e4ddab30-39be-427f-80dd-fccc7d3b17be"/><linearGradient id="b2157b88-c450-4e94-87c9-57687cb432cb" x1="-1159.96" y1="5346.05" x2="-1160.85" y2="5344.5" gradientTransform="translate(4976.82 -2790.51) rotate(45)" gradientUnits="userSpaceOnUse"><stop offset="0.04" stop-color="#f7aa90"/><stop offset="0.23" stop-color="#f9b996"/><stop offset="0.61" stop-color="#ffe2a6"/><stop offset="0.63" stop-color="#ffe4a7"/><stop offset="0.87" stop-color="#f7aa90"/></linearGradient><linearGradient id="e729a829-d00d-42fa-ab61-e7671b0aafa5" x1="224.81" y1="145.22" x2="223.74" y2="105.44" gradientUnits="userSpaceOnUse"><stop offset="0.04" stop-color="#ffa98c"/><stop offset="0.32" stop-color="#ffb892"/><stop offset="0.86" stop-color="#fee1a3"/><stop offset="1" stop-color="#feeca8"/></linearGradient><radialGradient id="b49ba610-4896-48c4-8d56-379dee2b61ee" cx="209.78" cy="117.28" r="22.57" gradientTransform="matrix(1, 0, 0, 1, 0, 0)" xlink:href="#e4ddab30-39be-427f-80dd-fccc7d3b17be"/><linearGradient id="af978d2b-6815-4831-bff5-a52d66906497" x1="-1186.42" y1="5365.78" x2="-1191.16" y2="5357.57" gradientTransform="translate(4976.82 -2790.51) rotate(45)" gradientUnits="userSpaceOnUse"><stop offset="0.01" stop-color="#f9b595"/><stop offset="0.13" stop-color="#fbc59c"/><stop offset="0.18" stop-color="#f9ba97"/><stop offset="0.25" stop-color="#f8ae92"/><stop offset="0.33" stop-color="#f7aa90"/><stop offset="0.43" stop-color="#f8b394"/><stop offset="0.59" stop-color="#fccb9d"/><stop offset="0.73" stop-color="#ffe4a7"/><stop offset="0.97" stop-color="#f7aa90"/></linearGradient><linearGradient id="ad4861db-b30c-4c1c-855a-433fa80961c5" x1="-1212.17" y1="5373.57" x2="-1206.7" y2="5373.57" gradientTransform="translate(4350.56 3910) rotate(120.31)" xlink:href="#e729a829-d00d-42fa-ab61-e7671b0aafa5"/><linearGradient id="ba5f695f-c254-47b2-9b7a-2c90f00129f4" x1="-1261.86" y1="5408.02" x2="-1265.64" y2="5401.46" gradientTransform="translate(4976.82 -2790.51) rotate(45)" gradientUnits="userSpaceOnUse"><stop offset="0.04" stop-color="#1e1f21"/><stop offset="0.12" stop-color="#2d2e30"/><stop offset="0.14" stop-color="#323336"/><stop offset="0.27" stop-color="#0e0e0f"/><stop offset="0.35" stop-color="#131415"/><stop offset="0.46" stop-color="#232326"/><stop offset="0.59" stop-color="#3c3d41"/><stop offset="0.73" stop-color="#5e6167"/><stop offset="0.77" stop-color="#696c73"/><stop offset="1" stop-color="#37383c"/></linearGradient><linearGradient id="f3a0bf42-dde2-4328-b135-75747f729281" x1="195.32" y1="125.58" x2="202.93" y2="118.79" gradientUnits="userSpaceOnUse"><stop offset="0.04" stop-color="#1e1f21"/><stop offset="0.31" stop-color="#2c2e30"/><stop offset="0.84" stop-color="#515359"/><stop offset="1" stop-color="#5d6066"/></linearGradient><linearGradient id="a4eec0fe-9ba2-4d10-bd86-04cca039aef5" x1="1284.1" y1="-716.23" x2="1366.55" y2="-847.26" gradientTransform="matrix(0.98, -0.19, 0.19, 0.98, -772.58, 1196.56)" gradientUnits="userSpaceOnUse"><stop offset="0" stop-color="#fff"/><stop offset="1" stop-color="#4d4d4d"/></linearGradient><linearGradient id="b0fde9a7-62bc-4e69-b227-965a400c5bab" x1="1186.67" y1="-645.87" x2="1266.56" y2="-772.82" gradientTransform="translate(-702.34 1087.79) rotate(-9.9)" gradientUnits="userSpaceOnUse"><stop offset="0" stop-color="#ebebeb"/><stop offset="1" stop-color="#494949"/></linearGradient><linearGradient id="b6f32d51-9ba4-471b-b74b-73db1b197375" x1="1091.51" y1="-571.98" x2="1168.76" y2="-694.75" gradientTransform="translate(-632.11 979.01) rotate(-8.92)" gradientUnits="userSpaceOnUse"><stop offset="0" stop-color="#d7d6d6"/><stop offset="1" stop-color="#454545"/></linearGradient><linearGradient id="a25c52b3-bdae-4227-a984-da4cdfd4aaeb" x1="998.8" y1="-494.67" x2="1073.35" y2="-613.14" gradientTransform="translate(-561.87 870.23) rotate(-7.92)" gradientUnits="userSpaceOnUse"><stop offset="0" stop-color="#c3c2c2"/><stop offset="1" stop-color="#424041"/></linearGradient><linearGradient id="a542828c-7fe7-426a-b69a-0b891fb21426" x1="908.72" y1="-414.06" x2="980.5" y2="-528.12" gradientTransform="matrix(0.99, -0.12, 0.12, 0.99, -491.64, 761.45)" gradientUnits="userSpaceOnUse"><stop offset="0" stop-color="#afaeae"/><stop offset="1" stop-color="#3e3c3d"/></linearGradient><linearGradient id="b3550392-f4ef-45c0-b2ea-abd8358478b3" x1="821.45" y1="-330.29" x2="890.39" y2="-439.84" gradientTransform="translate(-421.41 652.67) rotate(-5.94)" gradientUnits="userSpaceOnUse"><stop offset="0" stop-color="#9b999a"/><stop offset="1" stop-color="#3a3839"/></linearGradient><linearGradient id="fc3e20ac-2356-405e-abab-c782a179f563" x1="737.14" y1="-243.49" x2="803.18" y2="-348.45" gradientTransform="translate(-351.17 543.89) rotate(-4.95)" gradientUnits="userSpaceOnUse"><stop offset="0" stop-color="#878585"/><stop offset="1" stop-color="#363434"/></linearGradient><linearGradient id="a283cfef-d1ba-486a-a853-91d27df074fc" x1="655.95" y1="-153.83" x2="719.05" y2="-254.12" gradientTransform="translate(-280.94 435.11) rotate(-3.96)" gradientUnits="userSpaceOnUse"><stop offset="0" stop-color="#737071"/><stop offset="1" stop-color="#323030"/></linearGradient><linearGradient id="a4201d82-f5e9-4e4a-91db-aaa1ee3114f3" x1="578.01" y1="-61.47" x2="638.13" y2="-157.01" gradientTransform="translate(-210.7 326.34) rotate(-2.96)" gradientUnits="userSpaceOnUse"><stop offset="0" stop-color="#5f5c5d"/><stop offset="1" stop-color="#2e2c2c"/></linearGradient><linearGradient id="ab3fcdea-40fa-455f-a1e5-a096686c9c86" x1="503.46" y1="33.41" x2="560.55" y2="-57.32" gradientTransform="translate(-140.47 217.56) rotate(-1.97)" gradientUnits="userSpaceOnUse"><stop offset="0" stop-color="#4b4849"/><stop offset="1" stop-color="#2b2728"/></linearGradient><linearGradient id="a069a4fe-f347-4047-a300-354e3242eeff" x1="432.41" y1="130.64" x2="486.45" y2="44.77" gradientTransform="matrix(1, -0.02, 0.02, 1, -70.23, 108.78)" gradientUnits="userSpaceOnUse"><stop offset="0" stop-color="#373334"/><stop offset="1" stop-color="#272324"/></linearGradient><linearGradient id="afc2f352-2b52-41e6-ac53-2e047d287bd4" x1="222.49" y1="113.84" x2="214.95" y2="100.8" xlink:href="#e729a829-d00d-42fa-ab61-e7671b0aafa5"/><linearGradient id="fb5f08b5-8984-451f-8e8c-e22b52d5cc2c" x1="-1312.01" y1="5417.16" x2="-1212.41" y2="5387.34" gradientTransform="translate(4976.82 -2790.51) rotate(45)" xlink:href="#e729a829-d00d-42fa-ab61-e7671b0aafa5"/><radialGradient id="ae1d53f4-0e37-4d31-927e-4cd51ff83587" cx="215.69" cy="108" r="16.28" gradientTransform="matrix(1, 0, 0, 1, 0, 0)" xlink:href="#e4ddab30-39be-427f-80dd-fccc7d3b17be"/><linearGradient id="fb0c3305-0ba3-4114-80fe-2733b7ed34bc" x1="215.32" y1="149.93" x2="221.93" y2="140.33" xlink:href="#e729a829-d00d-42fa-ab61-e7671b0aafa5"/><linearGradient id="ac5eb9cd-9209-47ae-a216-6c5af3d0466c" x1="230.85" y1="124.32" x2="219.77" y2="155.41" xlink:href="#e729a829-d00d-42fa-ab61-e7671b0aafa5"/><radialGradient id="af0db595-c384-405b-9993-a51aaca89316" cx="197.08" cy="138.3" r="14.19" gradientTransform="matrix(1, 0, 0, 1, 0, 0)" xlink:href="#e4ddab30-39be-427f-80dd-fccc7d3b17be"/><radialGradient id="ac3d4f8c-4dec-494b-9c9a-b47ea22e64ff" cx="1191.37" cy="-7309.32" r="20.44" gradientTransform="matrix(1.6, 0.41, -0.04, 0.17, -1905.94, 934.03)" gradientUnits="userSpaceOnUse"><stop offset="0" stop-color="#972a74"/><stop offset="0.04" stop-color="#8a266a"/><stop offset="0.19" stop-color="#601b4a"/><stop offset="0.35" stop-color="#3d112f"/><stop offset="0.51" stop-color="#230a1b"/><stop offset="0.67" stop-color="#0f040c"/><stop offset="0.83" stop-color="#040103"/><stop offset="1"/></radialGradient></defs><g class="a2a578d3-1097-4610-a468-44da71b45a4a"><g id="bc53f484-aea2-49c1-b0c8-ef137756a108" data-name="Layer 1"><rect class="e38ead65-d0dc-43b8-bb15-9786b79b9298" width="730.83" height="720"/><path class="a43714dd-b02a-4f16-ae75-4840b3ca6709" d="M359.18,382.31c-36,0-69.91-8.12-95.46-22.87S224,325,224,304.08c0-20.72,13.9-40.16,39.15-54.74s58.68-22.53,94.37-22.53c36,0,69.91,8.12,95.47,22.88s39.73,34.45,39.73,55.36c0,20.72-13.9,40.16-39.14,54.73S394.87,382.31,359.18,382.31ZM357.5,227.66c-35.54,0-68.91,8-93.95,22.42s-38.72,33.59-38.72,54c0,20.59,14,40,39.31,54.62s59.18,22.77,95,22.77c35.55,0,68.91-8,94-22.42s38.72-33.6,38.72-54c0-20.59-14-40-39.32-54.63S393.36,227.66,357.5,227.66Z"/><path class="b338a59e-c4cc-4322-820e-806d388af912" d="M359.15,379.54c-34.6,0-67.17-7.81-91.74-22S229.1,324.3,229.1,304.1c0-20,13.41-38.8,37.75-52.85,24.19-14,56.4-21.67,90.69-21.67,34.59,0,67.17,7.81,91.73,22C474,265.84,487.59,284.82,487.59,305c0,20-13.41,38.79-37.75,52.85S393.44,379.54,359.15,379.54Zm-1.61-148.26c-34,0-65.91,7.61-89.85,21.44-23.79,13.73-36.89,32-36.89,51.38,0,19.57,13.3,38,37.46,52,24.31,14,56.59,21.76,90.89,21.76,34,0,65.9-7.61,89.84-21.43s36.9-32,36.9-51.38c0-19.58-13.31-38-37.47-52S391.84,231.28,357.54,231.28Z"/><g class="a758a019-d12a-43c6-b642-7b2c661c2d69"><path class="af39d119-1ba9-46d5-896f-c77be8cfbd82" d="M309.51,332.76c-27.14-15.67-27.28-41-.31-56.57a74.1,74.1,0,0,1,8.43-4.14l-2.6-2.14a78.67,78.67,0,0,0-9,4.43c-28.68,16.56-28.54,43.58.33,60.25a87.59,87.59,0,0,0,20.1,8.26l1.89-2.35A82.34,82.34,0,0,1,309.51,332.76Z"/><path class="fbc100d4-f42f-4461-93f1-bb4cd0827f31" d="M427.23,300.6l4.47-.22c-1.66-9.27-8.57-18.28-20.68-25.46l-3.19,1.85C419.18,283.49,425.65,291.93,427.23,300.6Z"/><path class="af39d119-1ba9-46d5-896f-c77be8cfbd82" d="M406.42,276l3.19-1.84c-25.54-14.34-64.58-16-92.94-4.85l2.6,2.14C345.89,261,382.42,262.5,406.42,276Z"/><path class="fb1af1d0-e8c1-4bc6-9866-25d7347f1f4b" d="M431.87,301.53l-4.47.21c1.48,11.2-5.14,22.66-19.92,31.19-8.64,5-19,8.37-30,10.15l1.18,2.5c11.76-1.89,22.86-5.48,32.07-10.8C426.42,325.7,433.46,313.47,431.87,301.53Z"/><path class="fbc100d4-f42f-4461-93f1-bb4cd0827f31" d="M330.14,341l-1.89,2.35a125.28,125.28,0,0,0,48.44,2.53l-1.17-2.5A117.23,117.23,0,0,1,330.14,341Z"/></g><path class="ab5dbf0a-b6d9-4150-a65e-d16d8bec04a6" d="M357.05,255.43c-41.08.21-75.15,17.32-82.37,39.88l7.79.81c6.59-20.42,37.42-35.9,74.6-36.12ZM281.89,295.2l-6.07-.63c7.85-21.89,41.3-37.86,80.38-38.28l0,2.87C320.07,259.6,289.06,274.65,281.89,295.2Z"/><path class="a43714dd-b02a-4f16-ae75-4840b3ca6709" d="M359,255.43l0,4.57c18.13.16,34.79,3.94,47.91,10.14l5.07-3.49C397.53,259.78,379.09,255.6,359,255.43Zm47.85,13.74c-13.5-6.3-29.72-9.75-47-10v-2.88c18.26.26,36.07,4,50.44,10.5Z"/><path class="f130e05b-8eba-4345-ad99-3e231f046acb" d="M413.54,267.39l-5.07,3.49c16.49,8.21,27,20.33,27.07,33.82,0,7.9-3.52,15.33-9.76,21.76l6.86,2.3c6.92-7.11,10.87-15.31,10.82-24.05C443.38,289.82,431.76,276.45,413.54,267.39Zm18.86,60.39-5.1-1.7c6-6.55,9.13-13.92,9.09-21.39-.07-13-9.62-25.27-26.27-33.92l3.49-2.39c18.36,9.25,28.93,22.47,29,36.33C442.66,312.76,439.13,320.72,432.4,327.78Z"/><path class="f2dff528-1628-46cf-b0f1-fcdbf6c288f5" d="M384,346.67a128.49,128.49,0,0,1-25.18,2.45h-.24c-42.56-.07-77.3-20.13-77.43-44.7a26.29,26.29,0,0,1,1-7.18l-7.8-.81a29,29,0,0,0-1.09,8c.15,27.1,38.45,49.21,85.38,49.29h.26A141.24,141.24,0,0,0,386.74,351Zm-25.39,6.18c-46.47-.09-84.39-21.82-84.53-48.45a27.57,27.57,0,0,1,.88-7l6.1.63a26.85,26.85,0,0,0-.76,6.44c.13,25,35.25,45.47,78.28,45.55h.24a129.55,129.55,0,0,0,24.77-2.35l1.76,2.76a140.85,140.85,0,0,1-26.48,2.47Z"/><path class="a43714dd-b02a-4f16-ae75-4840b3ca6709" d="M424.79,327.45c-8.83,8.58-22.54,15.28-38.92,18.84l2.73,4.3c18.13-3.93,33.3-11.35,43.06-20.84Zm-37.56,19.4c15.64-3.57,29-10.09,37.78-18.43l5,1.68c-9.62,8.88-24.11,15.78-41.06,19.53Z"/><path class="ba050794-3fb0-48ef-bb92-d49cad680d87" d="M391.83,250.27,399.11,237c-1.82-.37-3.62-.79-5.47-1.11l-7.56,13.29C388,249.46,389.92,249.88,391.83,250.27Zm-90.07,6.45-14.42-11.3c-1.58.63-3.12,1.3-4.65,2l14.19,11.39C298.48,258.07,300.1,257.37,301.76,256.72Zm99.74-4.1,9.66-12.8c-1.75-.48-3.48-1-5.26-1.41L396,251.14C397.85,251.58,399.67,252.11,401.5,252.62Zm35.75,16.74c1.25.93,2.47,1.87,3.61,2.83l19.47-8.25c-1.1-.92-2.26-1.81-3.44-2.7Zm-6.86-4.59c1.41.85,2.78,1.72,4.08,2.61L452.33,258q-1.89-1.26-3.9-2.49ZM439,250.3l-16.26,10.31q2.31,1.13,4.51,2.36l16.05-10.42Q441.19,251.4,439,250.3ZM330,249l-7.71-13.32c-1.84.31-3.64.73-5.46,1.09l7.43,13.35C326.18,249.76,328.08,249.35,330,249Zm137.21,21.3c-.92-1-1.94-1.92-3-2.88l-21,6.89c1.08,1,2.15,2,3.11,3ZM320.12,251l-10.05-12.77c-1.77.43-3.5.93-5.24,1.4l9.8,12.84C316.45,252,318.26,251.44,320.12,251Zm61.67-2.48,4.83-13.7c-1.88-.26-3.75-.55-5.64-.76l-5.12,13.69C377.85,248,379.82,248.24,381.79,248.52Zm-71.11,5.06-12.31-12.1c-1.68.53-3.32,1.12-5,1.7l12.06,12.17C307.18,254.74,308.91,254.13,310.68,253.58Zm60.82-6.2,2.32-13.93c-1.92-.15-3.83-.29-5.75-.39L365.47,247C367.48,247.08,369.49,247.22,371.5,247.38ZM350.6,247,347.85,233c-1.93.09-3.84.23-5.75.37l2.47,13.94C346.57,247.18,348.58,247,350.6,247Zm-10.39.72L335,234c-1.9.2-3.76.48-5.64.74l5,13.72C336.26,248.16,338.22,247.89,340.21,247.68Zm88.5-2-14.3,11.24c1.67.66,3.29,1.36,4.9,2.09l14.07-11.34C431.84,247,430.29,246.31,428.71,245.68Zm29.6,60.81,24.26,0c0-1.12,0-2.23,0-3.34L458.29,303A31.45,31.45,0,0,1,458.31,306.49Zm-9.73,23.31,22.23,5.66c.82-1,1.68-2,2.42-3l-22.12-5.8C450.36,327.7,449.45,328.75,448.58,329.8Zm-5,5.29,21.09,7c1-.95,2-1.9,2.93-2.87l-21-7.11C445.69,333.1,444.64,334.1,443.58,335.09Zm-5.95,5,19.73,8.19c1.17-.88,2.33-1.77,3.41-2.68l-19.56-8.33C440.08,338.19,438.87,339.12,437.63,340.05Zm-82,22.22.22,14c1.93,0,3.86,0,5.79,0l.06-14C359.67,362.31,357.65,362.3,355.62,362.27Zm-97.24-59.64-24.27,0c0,1.11,0,2.22,0,3.34l24.27.12A31.44,31.44,0,0,1,258.38,302.63Zm102.69-55.77-.22-14c-1.93,0-3.86,0-5.79,0l-.06,14C357,246.81,359,246.82,361.07,246.86Zm95.67,47.59,23.72-3c-.36-1.09-.87-2.17-1.32-3.25L455.41,291C455.89,292.16,456.38,293.3,456.74,294.45Zm1.33,6,24.12-1.5c-.17-1.11-.42-2.22-.68-3.32L457.39,297C457.66,298.13,457.91,299.28,458.07,300.45Zm-7.19-17.62,22-5.73c-.74-1-1.61-2-2.45-3l-22.17,5.58C449.19,280.7,450.11,281.75,450.88,282.83Zm3.47,5.72,23-4.37c-.56-1.06-1.29-2.1-1.93-3.15l-23.08,4.2C453.06,286.33,453.78,287.43,454.35,288.55Zm1.21,29.9,23.76,2.87c.44-1.08.93-2.16,1.28-3.25l-23.75-3C456.5,316.18,456,317.31,455.56,318.45Zm1.91-5.94,24.14,1.43c.24-1.1.49-2.21.64-3.32L458.11,309A31.77,31.77,0,0,1,457.47,312.51Zm-4.88,11.72,23.12,4.29c.63-1,1.35-2.09,1.89-3.15l-23.07-4.45C454,322,453.26,323.13,452.59,324.23Zm-35-82.53-12.17,12.05c1.77.56,3.51,1.17,5.23,1.8l11.93-12.14C421,242.82,419.32,242.23,417.63,241.7ZM289.42,346.16l-16.05,10.42c1.42.77,2.85,1.52,4.31,2.24l16.26-10.31C292.4,347.76,290.9,347,289.42,346.16Zm76.67,16,2.75,13.93c1.93-.09,3.84-.23,5.75-.37l-2.47-13.94C370.11,362,368.11,362.08,366.09,362.17Zm-41.23-3.32-7.28,13.32c1.82.37,3.62.8,5.47,1.11L330.61,360C328.67,359.66,326.77,359.25,324.86,358.85Zm20.33,2.89-2.32,13.94c1.92.14,3.83.29,5.75.38l2.6-13.92C349.2,362.05,347.2,361.9,345.19,361.74Zm-47.82-11.62-14.06,11.34c1.54.68,3.09,1.35,4.67,2l14.3-11.25C300.61,351.54,299,350.84,297.37,350.12Zm8.62,3.46-11.92,12.14c1.65.58,3.3,1.17,5,1.7l12.18-12.05C309.45,354.82,307.72,354.2,306,353.58Zm9.2,2.92-9.66,12.8c1.75.48,3.48,1,5.26,1.42L320.7,358C318.84,357.54,317,357,315.19,356.5Zm19.71,4.1-4.83,13.7c1.88.26,3.75.56,5.64.77l5.12-13.7C338.83,361.16,336.87,360.88,334.9,360.6Zm88.33-11.85,16.37,10.37c1.45-.72,2.87-1.47,4.28-2.24l-16.16-10.47C426.25,347.22,424.76,348,423.23,348.75Zm-8.3,3.66,14.42,11.29c1.57-.63,3.11-1.29,4.65-2l-14.19-11.39C418.21,351.06,416.59,351.75,414.93,352.41Zm-38.45,9,5.26,13.71c1.89-.2,3.76-.49,5.63-.74l-5-13.72C380.43,361,378.47,361.23,376.48,361.44Zm54.34-16.83L449,353.94q2-1.21,3.87-2.47l-18-9.45C433.58,342.9,432.22,343.77,430.82,344.61ZM406,355.54l12.3,12.1c1.69-.53,3.33-1.11,5-1.69l-12.06-12.18C409.5,354.38,407.78,355,406,355.54Zm-19.33,4.55,7.71,13.32c1.84-.31,3.63-.72,5.45-1.09L392.42,359C390.51,359.36,388.61,359.77,386.68,360.09Zm9.89-2,10.05,12.77c1.77-.42,3.5-.92,5.24-1.4l-9.8-12.83C400.24,357.16,398.43,357.68,396.57,358.12ZM259.94,314.68l-23.71,2.95c.36,1.09.87,2.17,1.32,3.26l23.73-2.79C260.79,317,260.31,315.82,259.94,314.68Zm4.16-29.79L241,280.6c-.63,1-1.35,2.09-1.89,3.15l23.07,4.45C262.72,287.09,263.43,286,264.1,284.89Zm-3,5.78-23.76-2.87c-.44,1.09-.94,2.16-1.29,3.25l23.75,3C260.18,292.94,260.66,291.81,261.13,290.67Zm7-11.35-22.23-5.66c-.82,1-1.68,2-2.42,3l22.11,5.8C266.33,281.42,267.24,280.38,268.11,279.32Zm10.94-10.25-19.73-8.19c-1.16.89-2.32,1.78-3.41,2.69l19.56,8.32C276.61,270.93,277.81,270,279.05,269.07Zm-5.94,5-21.09-7c-1,.95-2,1.9-2.93,2.87l21,7.1C271,276,272.05,275,273.11,274Zm-8.75,77.1c1.26.85,2.56,1.67,3.89,2.49l18.05-9.27c-1.41-.85-2.78-1.72-4.08-2.6Zm-5.14-54.52-24.15-1.43c-.24,1.11-.48,2.21-.63,3.32l24.13,1.59C258.72,298.93,259,297.77,259.22,296.61Zm26.64-32.1-18.14-9.33q-2,1.21-3.87,2.47l18,9.45Q283.76,265.78,285.86,264.51Zm-27.24,44.16-24.12,1.5c.16,1.12.42,2.22.67,3.33l24.13-1.34A35.23,35.23,0,0,1,258.62,308.67Zm-9.16,30.12c.93,1,1.95,1.93,3,2.88l21-6.88c-1.07-1-2.14-2-3.1-3Zm6.89,6.4c1.1.91,2.27,1.8,3.45,2.69l19.64-8.12c-1.25-.93-2.47-1.87-3.61-2.83Zm9.46-18.9L243.76,332c.75,1,1.62,2,2.45,3l22.17-5.57C267.5,328.42,266.58,327.37,265.81,326.29Zm-3.47-5.72-23,4.37c.56,1.07,1.29,2.11,1.93,3.16l23.08-4.21C263.63,322.79,262.91,321.69,262.34,320.57Zm31.12-60.19L277.09,250q-2.18,1.08-4.28,2.23L289,262.72C290.44,261.91,291.93,261.12,293.46,260.38Z"/><path class="afa021bf-5d6d-41bf-9fc2-8eae12bc2ab3" d="M437.25,269.36c1.25.93,2.47,1.87,3.61,2.83l19.47-8.25c-1.1-.92-2.26-1.81-3.44-2.7ZM310.68,253.58l-12.31-12.1c-1.68.53-3.32,1.12-5,1.7l12.06,12.17C307.18,254.74,308.91,254.13,310.68,253.58Zm60.82-6.2,2.32-13.93c-1.92-.15-3.83-.29-5.75-.39L365.47,247C367.48,247.08,369.49,247.22,371.5,247.38ZM350.6,247,347.85,233c-1.93.09-3.84.23-5.75.37l2.47,13.94C346.57,247.18,348.58,247,350.6,247Zm78.11-1.28-14.3,11.24c1.67.66,3.29,1.36,4.9,2.09l14.07-11.34C431.84,247,430.29,246.31,428.71,245.68Zm8.92,94.37,19.73,8.19c1.17-.88,2.33-1.77,3.41-2.68l-19.56-8.33C440.08,338.19,438.87,339.12,437.63,340.05Zm-82,22.22.22,14c1.93,0,3.86,0,5.79,0l.06-14C359.67,362.31,357.65,362.3,355.62,362.27Zm-97.24-59.64-24.27,0c0,1.11,0,2.22,0,3.34l24.27.12A31.44,31.44,0,0,1,258.38,302.63Zm198.36-8.18,23.72-3c-.36-1.09-.87-2.17-1.32-3.25L455.41,291C455.89,292.16,456.38,293.3,456.74,294.45Zm-1.18,24,23.76,2.87c.44-1.08.93-2.16,1.28-3.25l-23.75-3C456.5,316.18,456,317.31,455.56,318.45ZM315.19,356.5l-9.66,12.8c1.75.48,3.48,1,5.26,1.42L320.7,358C318.84,357.54,317,357,315.19,356.5Zm90.82-1,12.3,12.1c1.69-.53,3.33-1.11,5-1.69l-12.06-12.18C409.5,354.38,407.78,355,406,355.54ZM259.94,314.68l-23.71,2.95c.36,1.09.87,2.17,1.32,3.26l23.73-2.79C260.79,317,260.31,315.82,259.94,314.68Zm19.11-45.61-19.73-8.19c-1.16.89-2.32,1.78-3.41,2.69l19.56,8.32C276.61,270.93,277.81,270,279.05,269.07Zm-22.7,76.12c1.1.91,2.27,1.8,3.45,2.69l19.64-8.12c-1.25-.93-2.47-1.87-3.61-2.83Z"/><path class="b338a59e-c4cc-4322-820e-806d388af912" d="M301.76,256.72l-14.42-11.3c-1.58.63-3.12,1.3-4.65,2l14.19,11.39C298.48,258.07,300.1,257.37,301.76,256.72Zm99.74-4.1,9.66-12.8c-1.75-.48-3.48-1-5.26-1.41L396,251.14C397.85,251.58,399.67,252.11,401.5,252.62ZM439,250.3l-16.26,10.31q2.31,1.13,4.51,2.36l16.05-10.42Q441.19,251.4,439,250.3Zm-118.89.7-10.05-12.77c-1.77.43-3.5.93-5.24,1.4l9.8,12.84C316.45,252,318.26,251.44,320.12,251Zm61.67-2.48,4.83-13.7c-1.88-.26-3.75-.55-5.64-.76l-5.12,13.69C377.85,248,379.82,248.24,381.79,248.52Zm61.79,86.57,21.09,7c1-.95,2-1.9,2.93-2.87l-21-7.11C445.69,333.1,444.64,334.1,443.58,335.09Zm14.49-34.64,24.12-1.5c-.17-1.11-.42-2.22-.68-3.32L457.39,297C457.66,298.13,457.91,299.28,458.07,300.45Zm-7.19-17.62,22-5.73c-.74-1-1.61-2-2.45-3l-22.17,5.58C449.19,280.7,450.11,281.75,450.88,282.83Zm3.47,5.72,23-4.37c-.56-1.06-1.29-2.1-1.93-3.15l-23.08,4.2C453.06,286.33,453.78,287.43,454.35,288.55Zm-1.76,35.68,23.12,4.29c.63-1,1.35-2.09,1.89-3.15l-23.07-4.45C454,322,453.26,323.13,452.59,324.23Zm-107.4,37.51-2.32,13.94c1.92.14,3.83.29,5.75.38l2.6-13.92C349.2,362.05,347.2,361.9,345.19,361.74Zm-47.82-11.62-14.06,11.34c1.54.68,3.09,1.35,4.67,2l14.3-11.25C300.61,351.54,299,350.84,297.37,350.12ZM334.9,360.6l-4.83,13.7c1.88.26,3.75.56,5.64.77l5.12-13.7C338.83,361.16,336.87,360.88,334.9,360.6Zm80-8.19,14.42,11.29c1.57-.63,3.11-1.29,4.65-2l-14.19-11.39C418.21,351.06,416.59,351.75,414.93,352.41Zm-28.25,7.68,7.71,13.32c1.84-.31,3.63-.72,5.45-1.09L392.42,359C390.51,359.36,388.61,359.77,386.68,360.09ZM259.94,314.68l-23.71,2.95c.36,1.09.87,2.17,1.32,3.26l23.73-2.79C260.79,317,260.31,315.82,259.94,314.68Zm1.19-24-23.76-2.87c-.44,1.09-.94,2.16-1.29,3.25l23.75,3C260.18,292.94,260.66,291.81,261.13,290.67Zm17.92-21.6-19.73-8.19c-1.16.89-2.32,1.78-3.41,2.69l19.56,8.32C276.61,270.93,277.81,270,279.05,269.07Zm-13.24,57.22L243.76,332c.75,1,1.62,2,2.45,3l22.17-5.57C267.5,328.42,266.58,327.37,265.81,326.29Z"/><path class="ba050794-3fb0-48ef-bb92-d49cad680d87" d="M393,216.18c-1.65-.22-3.28-.51-4.94-.7l-3.67,9.82c1.73.2,3.45.42,5.17.65Zm-7.43,8.41,3.05-8.19,2.22.32,1,.16L389,225C387.81,224.86,386.68,224.71,385.59,224.59Zm23.26-5.77c-1.6-.32-3.18-.69-4.79-1l-5.42,9.52c1.68.3,3.36.61,5,.95ZM400,226.74l4.53-8,2.34.48.72.16-4.34,7.93C402.16,227.14,401.07,226.94,400,226.74Zm42.37,13.54,10-8.08c-1.36-.59-2.72-1.18-4.1-1.74l-10.19,8Q440.23,239.35,442.34,240.28Zm6.06-8.85,2.34,1-8.53,6.88-2.48-1.06Zm-71.59-16.92c-1.69-.12-3.36-.28-5-.37l-1.87,10c1.75.09,3.51.2,5.25.33Zm-5.9,8.82,1.55-8.3,2.54.19.82.06-1.38,8.27C373.3,223.47,372.14,223.39,370.91,223.33Zm67.78,3.54c-1.45-.51-2.9-1-4.38-1.5L425.62,234c1.54.49,3.06,1,4.57,1.53Zm-11.48,6.73,7.33-7.26c.88.29,1.75.59,2.61.89L430,234.54Zm-3.08-11.21c-1.53-.41-3.05-.86-4.61-1.24l-7.09,9.11q2.43.6,4.83,1.24Zm-10.23,7.36,6-7.64c.85.21,1.69.45,2.51.67l.34.1-5.78,7.66Zm-68-5.67-2-10c-1.69.09-3.36.23-5,.35l1.77,9.94C342.41,224.26,344.16,224.16,345.91,224.08Zm-5.26-8.92c.85-.06,1.73-.13,2.6-.18l1.64,8.3c-1.22.06-2.38.13-3.52.21l-1.47-8.27ZM290.3,233.73l-8.78-8.64c-1.48.47-2.92,1-4.37,1.49l8.59,8.67Q288,234.47,290.3,233.73Zm-9-7.67,7.42,7.3c-.89.29-1.8.59-2.74.92l-7.27-7.34C279.55,226.64,280.42,226.34,281.29,226.06Zm22.16,4-7.19-9.13c-1.55.37-3.07.81-4.6,1.22l7,9.14C300.23,230.86,301.84,230.46,303.45,230.06Zm-10.09-7.49c.84-.23,1.7-.47,2.57-.69l6,7.67-3,.77-5.87-7.68ZM277.9,238.19l-10.28-8.06c-1.38.56-2.73,1.14-4.08,1.73L273.65,240Q275.75,239.05,277.9,238.19Zm-10.42-7.09,8.75,6.85-2.45,1-8.61-6.91Zm49.73-3.89-5.52-9.54c-1.61.29-3.19.65-4.79,1l5.29,9.51C313.86,227.81,315.53,227.5,317.21,227.21ZM309,219.08l2.29-.47,4.62,8c-1.09.19-2.18.39-3.23.6l-4.43-8Zm144.6,26.67L465,238.33c-1.25-.67-2.51-1.33-3.78-2l-11.59,7.34C451,244.37,452.27,245.05,453.56,245.75Zm7.71-8.42,2.06,1.07-9.81,6.37c-.72-.39-1.45-.77-2.18-1.15ZM331.41,225.21l-3.77-9.84c-1.66.18-3.28.47-4.93.68l3.55,9.78C328,225.61,329.69,225.4,331.41,225.21Zm-6.55-8.61c.73-.11,1.48-.22,2.22-.31l3.15,8.2-3.41.41-3-8.15Zm35.68,7.22-.15-10-3.05,0h-2l-.05,10h2.2Zm-4.38-9.18h3.4l.12,8.32h-3.56Zm-89.77,28.73L254.72,236c-1.26.64-2.51,1.29-3.75,2l11.52,7.46C263.77,244.71,265.07,244,266.39,243.37ZM254.68,237l10,6.34-2.15,1.13L252.64,238ZM485.25,339l15.83,4c.71-.88,1.47-1.76,2.12-2.65l-15.82-4.16C486.7,337.18,486,338.11,485.25,339Zm16.5,1.87-.63.77-.36.43-14-3.57c.33-.42.66-.86,1-1.31Zm-11-9.69,16.47,3.05c.54-.92,1.17-1.83,1.66-2.76l-16.52-3.19C491.81,329.28,491.28,330.25,490.71,331.21Zm16.8.89-.4.65-.36.57L492,330.59c.25-.44.5-.88.73-1.33Zm-12.81-9,16.94,2c.37-.95.87-1.88,1.19-2.84l-17-2.18C495.46,321.11,495.1,322.1,494.7,323.09Zm1.67-2L511.65,323l-.28.63c-.09.19-.18.39-.26.6l-15.22-1.84C496.06,321.92,496.22,321.47,496.37,321Zm-18,25.44,15,5c.87-.84,1.75-1.67,2.57-2.52l-15-5.07C480.18,344.73,479.3,345.61,478.39,346.48Zm16,2.81-1.1,1-.13.13L480,346.11c.45-.44.87-.87,1.28-1.29Zm2.78-34.52,17.23,1c.2-1,.46-1.94.6-2.91l-17.3-1.14C497.6,312.75,497.42,313.76,497.21,314.77Zm1.25-2.13,15.58,1-.21,1a2.68,2.68,0,0,0-.07.27L498.23,314C498.32,313.54,498.39,313.09,498.46,312.64Zm-37.65,47.27,12.93,6.65c1.15-.72,2.28-1.44,3.39-2.17l-12.8-6.74C463.18,358.41,462,359.16,460.81,359.91Zm14.65,4.55c-.56.37-1.15.74-1.76,1.12l-11.18-5.75,1.86-1.2Zm-5.25-11,14.06,5.84c1-.78,2-1.56,3-2.36L473.31,351C472.31,351.83,471.27,352.65,470.21,353.46Zm15.42,3.71-1.49,1.16-12.26-5.09,1.57-1.25ZM463.75,251.86l12.73-6.69c-1.11-.74-2.25-1.47-3.41-2.19l-12.86,6.61C461.42,250.33,462.6,251.09,463.75,251.86Zm11.06-6.77-11,5.78c-.61-.4-1.24-.81-1.88-1.21L473,244Zm23.39,61.25,17.35,0c0-1,0-1.95,0-2.93l-17.34-.09C498.22,304.31,498.23,305.32,498.2,306.34Zm16.5-2.12c0,.42,0,.84,0,1.24l-15.64,0c0-.45,0-.9,0-1.35Zm-34.1-38.5,14.91-5c-.83-.85-1.72-1.69-2.6-2.53l-15,4.91C478.85,264,479.74,264.83,480.6,265.72Zm12.09-6.58.2.18,1.05,1-13.11,4.41q-.61-.63-1.29-1.29Zm-19.88-.61,13.88-5.88c-1-.8-2-1.59-3-2.37l-14,5.79C470.75,256.88,471.8,257.7,472.81,258.53Zm12.25-6.11L473,257.55c-.51-.41-1-.83-1.59-1.26l12.19-5Zm2,20.92,15.78-4.1c-.67-.9-1.43-1.77-2.15-2.66l-15.79,4Q486,271.93,487,273.34ZM500.71,268l.64.77-14,3.63-1-1.32,14-3.52Zm-3,29.92L515,296.81c-.15-1-.42-1.94-.63-2.91l-17.21,1C497.33,295.87,497.51,296.88,497.67,297.89Zm16-3.1.08.31.21.93-15.56,1c-.08-.46-.16-.9-.24-1.34ZM492.06,281.3l16.49-3.13c-.5-.93-1.14-1.84-1.69-2.77l-16.44,3C491,279.36,491.55,280.33,492.06,281.3Zm14.74-4.38.41.64-14.7,2.79c-.24-.45-.49-.9-.74-1.34l14.67-2.67Zm-11.18,12.59,17-2.12c-.33-1-.84-1.9-1.22-2.85l-16.92,2C494.91,287.52,495.28,288.51,495.62,289.51Zm15.27-4.05c.09.21.19.41.28.62s.19.41.28.6l-15.25,1.9c-.16-.43-.32-.88-.5-1.34ZM323.67,392.94c1.65.22,3.27.52,4.93.71l3.67-9.83c-1.72-.19-3.44-.41-5.16-.64Zm7.43-8.4L328,392.72c-.74-.09-1.48-.21-2.2-.32l-1-.15,2.87-8.14Zm25,.76.16,10,3.05,0h2l.05-10h-2.2Zm4.39,9.18h-3.4l-.12-8.31h3.56Zm-20.65.14c1.68.12,3.36.27,5,.36l1.87-10c-1.76-.09-3.51-.2-5.26-.32Zm5.89-8.82-1.55,8.29c-.86,0-1.73-.12-2.58-.19l-.77-.06,1.37-8.26Zm-37.94,4.51c1.61.32,3.18.68,4.8,1l5.42-9.52c-1.68-.29-3.36-.61-5-.94Zm8.89-7.92-4.53,7.95c-.79-.15-1.58-.32-2.35-.48l-.71-.15,4.34-7.94C314.53,382,315.61,382.19,316.72,382.39Zm-42.37-13.55-10,8.08c1.35.59,2.71,1.18,4.1,1.74l10.19-8Q276.46,369.77,274.35,368.84Zm-6.06,8.85c-.8-.32-1.59-.66-2.34-1l8.53-6.87,2.47,1.05Zm9.71,4.56c1.45.51,2.9,1,4.37,1.5l8.7-8.6c-1.54-.5-3.06-1-4.58-1.54Zm11.48-6.73-7.34,7.27-2.6-.89,7.18-7.31C287.67,374.92,288.58,375.23,289.48,375.52Zm3.07,11.21c1.54.42,3.06.86,4.61,1.24l7.1-9.11c-1.62-.39-3.23-.81-4.83-1.24Zm10.24-7.36-6,7.65c-.86-.22-1.71-.46-2.53-.69l-.33-.09,5.78-7.65C300.74,378.85,301.74,379.11,302.79,379.37Zm110.44-.31,7.2,9.14c1.55-.38,3.06-.82,4.6-1.23l-7-9.14C416.45,378.26,414.85,378.67,413.23,379.06Zm10.11,7.49c-.85.23-1.72.47-2.59.69l-6-7.67c1.05-.26,2-.51,3-.77l5.87,7.68Zm3.05-11.16,8.78,8.64c1.48-.47,2.92-1,4.36-1.48l-8.59-8.68Q428.69,374.65,426.39,375.39Zm9,7.67L428,375.77l2.74-.92,7.26,7.34C437.14,382.48,436.27,382.78,435.4,383.06Zm3.39-12.12L449.07,379c1.37-.56,2.73-1.14,4.08-1.73L443,369.15C441.63,369.76,440.22,370.36,438.79,370.94ZM449.2,378l-8.74-6.85,2.45-1,8.61,6.91C450.73,377.38,450,377.71,449.2,378Zm1.1-12.27L462,373.14c1.27-.64,2.52-1.29,3.76-2l-11.52-7.46C452.92,364.41,451.61,365.09,450.3,365.75ZM462,372.17l-10-6.34c.72-.37,1.44-.74,2.15-1.13l9.89,6.41Zm-198.89-8.8-11.43,7.43c1.24.67,2.5,1.33,3.78,2l11.58-7.35C265.73,364.76,264.42,364.07,263.12,363.37Zm-7.7,8.42c-.66-.33-1.35-.69-2.06-1.07l9.8-6.36,2.18,1.14Zm129.85,12.13,3.78,9.84c1.66-.19,3.28-.48,4.93-.69l-3.55-9.78Q387.87,383.64,385.27,383.92Zm6.56,8.6-2.22.32-3.15-8.2,3.41-.42,2.95,8.15ZM255.88,249.22,243,242.57c-1.15.71-2.29,1.43-3.39,2.17l12.8,6.73C253.5,250.71,254.68,250,255.88,249.22Zm-14.65-4.56,1.76-1.12,11.18,5.75q-1,.6-1.86,1.2ZM370.78,385l2,10c1.68-.08,3.35-.23,5-.35L376,384.74C374.28,384.86,372.53,385,370.78,385ZM376,394l-2.54.17-1.64-8.3,3.52-.2,1.46,8.26Zm23.5-12.06,5.52,9.54c1.61-.28,3.19-.65,4.79-1l-5.3-9.51Q402,381.48,399.48,381.91Zm8.29,8.13-2.34.47-4.61-8c1.1-.2,2.18-.4,3.23-.61l4.43,8ZM222,286,205,284c-.37.95-.86,1.89-1.18,2.84l17,2.18C221.22,288,221.59,287,222,286Zm-1.66,2L205,286.13l.27-.62.27-.6,15.22,1.84C220.63,287.21,220.47,287.65,220.32,288.08ZM226,277.92l-16.47-3.06c-.54.93-1.17,1.83-1.66,2.77l16.52,3.18C224.87,279.84,225.41,278.88,226,277.92Zm-16.8-.9c.12-.21.26-.42.39-.63l.36-.59,14.71,2.73c-.25.44-.49.88-.73,1.33Zm10.29,17.34-17.22-1c-.2,1-.46,1.93-.6,2.91l17.29,1.13C219.09,296.37,219.26,295.36,219.47,294.36Zm-1.25,2.13-15.57-1c.06-.31.14-.63.21-.95l.06-.28,15.53.91C218.37,295.58,218.29,296,218.22,296.49Zm20.08-33.84-15-5c-.87.83-1.75,1.66-2.57,2.51l15,5.08C236.51,264.39,237.39,263.52,238.3,262.65Zm-16-2.81,1-.95.24-.24L236.7,263l-1.27,1.29Zm24.22-4.18-14.06-5.83c-1,.78-2,1.56-3,2.35l13.95,5.94C244.38,257.29,245.42,256.47,246.48,255.66ZM231.06,252l1.49-1.16,12.25,5.09c-.55.43-1.07.84-1.56,1.25Zm-12.58,50.83-17.34,0c0,1,0,2,0,2.93l17.34.09C218.46,304.82,218.46,303.8,218.48,302.79ZM202,304.9c0-.41,0-.83,0-1.24l15.64,0c0,.44,0,.89,0,1.34Zm29.45-34.81-15.82-4c-.71.89-1.47,1.76-2.13,2.66l15.83,4.15C230,271.94,230.69,271,231.43,270.09Zm-16.49-1.87.63-.77.35-.43,14,3.57c-.33.43-.66.86-1,1.31Zm38,89L240.21,364c1.11.73,2.25,1.46,3.41,2.18l12.86-6.6C255.27,358.79,254.08,358,252.93,357.27ZM241.88,364l11-5.79c.61.4,1.24.81,1.88,1.21l-11.1,5.71Zm-5.79-20.64-14.91,5c.83.86,1.72,1.69,2.6,2.53l15-4.91C237.83,345.17,236.94,344.29,236.09,343.4ZM224,350l-.12-.11c-.37-.36-.76-.72-1.13-1.09l13.1-4.41,1.3,1.3Zm5.65-14.2-15.78,4.09c.66.9,1.43,1.78,2.15,2.67l15.78-4C231.05,337.65,230.34,336.72,229.65,335.79Zm-13.71,5.32c-.2-.24-.41-.48-.61-.73l14-3.63c.34.46.68.9,1,1.32l-14,3.52Zm27.94,9.48L230,356.48c1,.79,2,1.58,3,2.36l14-5.78C245.94,352.24,244.89,351.42,243.88,350.59Zm-12.25,6.11,12.11-5.13q.75.62,1.59,1.26l-12.19,5C232.64,357.49,232.13,357.1,231.63,356.7Zm-7-28.87L208.14,331c.5.94,1.14,1.85,1.69,2.77l16.43-3C225.68,329.77,225.14,328.8,224.62,327.83Zm-14.72,4.4c-.15-.23-.29-.45-.42-.67l14.69-2.78c.25.45.49.89.75,1.33l-14.67,2.67Zm11.16-12.62-17,2.12c.33,1,.84,1.9,1.23,2.85l16.91-2C221.78,321.6,221.4,320.61,221.06,319.61Zm-15.26,4.06c-.1-.21-.19-.42-.28-.62l-.28-.61,15.25-1.9c.15.43.32.88.5,1.34ZM219,311.23l-17.29,1.08c.16,1,.43,1.94.64,2.91l17.21-1C219.36,313.26,219.17,312.25,219,311.23Zm-16,3.1c0-.1-.05-.21-.07-.31-.08-.32-.15-.62-.21-.92l15.55-1c.08.46.16.9.25,1.34Z"/><path class="ba050794-3fb0-48ef-bb92-d49cad680d87" d="M376.81,214.51c-1.69-.12-3.36-.28-5-.37l-1.87,10c1.75.09,3.51.2,5.25.33Zm-5.9,8.82,1.55-8.3,2.54.19.82.06-1.38,8.27C373.3,223.47,372.14,223.39,370.91,223.33Zm67.78,3.54c-1.45-.51-2.9-1-4.38-1.5L425.62,234c1.54.49,3.06,1,4.57,1.53Zm-11.48,6.73,7.33-7.26c.88.29,1.75.59,2.61.89L430,234.54Zm-3.08-11.21c-1.53-.41-3.05-.86-4.61-1.24l-7.09,9.11q2.43.6,4.83,1.24Zm-10.23,7.36,6-7.64c.85.21,1.69.45,2.51.67l.34.1-5.78,7.66Zm-123.6,4-8.78-8.64c-1.48.47-2.92,1-4.37,1.49l8.59,8.67Q288,234.47,290.3,233.73Zm-9-7.67,7.42,7.3c-.89.29-1.8.59-2.74.92l-7.27-7.34C279.55,226.64,280.42,226.34,281.29,226.06Zm50.12-.85-3.77-9.84c-1.66.18-3.28.47-4.93.68l3.55,9.78C328,225.61,329.69,225.4,331.41,225.21Zm-6.55-8.61c.73-.11,1.48-.22,2.22-.31l3.15,8.2-3.41.41-3-8.15Zm-58.47,26.77L254.72,236c-1.26.64-2.51,1.29-3.75,2l11.52,7.46C263.77,244.71,265.07,244,266.39,243.37ZM254.68,237l10,6.34-2.15,1.13L252.64,238Zm236,94.26,16.47,3.05c.54-.92,1.17-1.83,1.66-2.76l-16.52-3.19C491.81,329.28,491.28,330.25,490.71,331.21Zm16.8.89-.4.65-.36.57L492,330.59c.25-.44.5-.88.73-1.33Zm-10.3-17.33,17.23,1c.2-1,.46-1.94.6-2.91l-17.3-1.14C497.6,312.75,497.42,313.76,497.21,314.77Zm1.25-2.13,15.58,1-.21,1a2.68,2.68,0,0,0-.07.27L498.23,314C498.32,313.54,498.39,313.09,498.46,312.64Zm-37.65,47.27,12.93,6.65c1.15-.72,2.28-1.44,3.39-2.17l-12.8-6.74C463.18,358.41,462,359.16,460.81,359.91Zm14.65,4.55c-.56.37-1.15.74-1.76,1.12l-11.18-5.75,1.86-1.2Zm-5.25-11,14.06,5.84c1-.78,2-1.56,3-2.36L473.31,351C472.31,351.83,471.27,352.65,470.21,353.46Zm15.42,3.71-1.49,1.16-12.26-5.09,1.57-1.25Zm-5-91.45,14.91-5c-.83-.85-1.72-1.69-2.6-2.53l-15,4.91C478.85,264,479.74,264.83,480.6,265.72Zm12.09-6.58.2.18,1.05,1-13.11,4.41q-.61-.63-1.29-1.29Zm2.93,30.37,17-2.12c-.33-1-.84-1.9-1.22-2.85l-16.92,2C494.91,287.52,495.28,288.51,495.62,289.51Zm15.27-4.05c.09.21.19.41.28.62s.19.41.28.6l-15.25,1.9c-.16-.43-.32-.88-.5-1.34ZM323.67,392.94c1.65.22,3.27.52,4.93.71l3.67-9.83c-1.72-.19-3.44-.41-5.16-.64Zm7.43-8.4L328,392.72c-.74-.09-1.48-.21-2.2-.32l-1-.15,2.87-8.14Zm-38.55,2.19c1.54.42,3.06.86,4.61,1.24l7.1-9.11c-1.62-.39-3.23-.81-4.83-1.24Zm10.24-7.36-6,7.65c-.86-.22-1.71-.46-2.53-.69l-.33-.09,5.78-7.65C300.74,378.85,301.74,379.11,302.79,379.37Zm123.6-4,8.78,8.64c1.48-.47,2.92-1,4.36-1.48l-8.59-8.68Q428.69,374.65,426.39,375.39Zm9,7.67L428,375.77l2.74-.92,7.26,7.34C437.14,382.48,436.27,382.78,435.4,383.06ZM263.12,363.37l-11.43,7.43c1.24.67,2.5,1.33,3.78,2l11.58-7.35C265.73,364.76,264.42,364.07,263.12,363.37Zm-7.7,8.42c-.66-.33-1.35-.69-2.06-1.07l9.8-6.36,2.18,1.14Zm129.85,12.13,3.78,9.84c1.66-.19,3.28-.48,4.93-.69l-3.55-9.78Q387.87,383.64,385.27,383.92Zm6.56,8.6-2.22.32-3.15-8.2,3.41-.42,2.95,8.15ZM370.78,385l2,10c1.68-.08,3.35-.23,5-.35L376,384.74C374.28,384.86,372.53,385,370.78,385ZM376,394l-2.54.17-1.64-8.3,3.52-.2,1.46,8.26ZM219.47,294.36l-17.22-1c-.2,1-.46,1.93-.6,2.91l17.29,1.13C219.09,296.37,219.26,295.36,219.47,294.36Zm-1.25,2.13-15.57-1c.06-.31.14-.63.21-.95l.06-.28,15.53.91C218.37,295.58,218.29,296,218.22,296.49Zm20.08-33.84-15-5c-.87.83-1.75,1.66-2.57,2.51l15,5.08C236.51,264.39,237.39,263.52,238.3,262.65Zm-16-2.81,1-.95.24-.24L236.7,263l-1.27,1.29Zm9.17,10.25-15.82-4c-.71.89-1.47,1.76-2.13,2.66l15.83,4.15C230,271.94,230.69,271,231.43,270.09Zm-16.49-1.87.63-.77.35-.43,14,3.57c-.33.43-.66.86-1,1.31Zm21.15,75.18-14.91,5c.83.86,1.72,1.69,2.6,2.53l15-4.91C237.83,345.17,236.94,344.29,236.09,343.4ZM224,350l-.12-.11c-.37-.36-.76-.72-1.13-1.09l13.1-4.41,1.3,1.3Zm.62-22.16L208.14,331c.5.94,1.14,1.85,1.69,2.77l16.43-3C225.68,329.77,225.14,328.8,224.62,327.83Zm-14.72,4.4c-.15-.23-.29-.45-.42-.67l14.69-2.78c.25.45.49.89.75,1.33l-14.67,2.67Zm11.16-12.62-17,2.12c.33,1,.84,1.9,1.23,2.85l16.91-2C221.78,321.6,221.4,320.61,221.06,319.61Zm-15.26,4.06c-.1-.21-.19-.42-.28-.62l-.28-.61,15.25-1.9c.15.43.32.88.5,1.34Z"/><g class="beef3238-da1a-457e-a507-b01aa97f5eee"><path class="a3512338-ca13-46c8-960e-86c770d44376" d="M446.68,305.27c-.15,12.06-7.58,23.11-19.89,31.77l5.09,2.47c14.28-10,21.29-21.22,21.42-34.23Z"/></g><path class="a43714dd-b02a-4f16-ae75-4840b3ca6709" d="M375.15,358.72c21.45-2.14,41.12-8.66,55.5-18.36l-5.09-2.47c-16.16,10.88-40.18,17.76-67,17.72A141.16,141.16,0,0,1,315.19,349l-3.27,3.28C331.28,358.56,353.69,360.87,375.15,358.72Z"/><path class="b338a59e-c4cc-4322-820e-806d388af912" d="M269.92,304.42c-.15-28.14,39.38-51,88.11-50.87,4.9,0,9.72.26,14.41.71l1.13-3.77a154.43,154.43,0,0,0-48,2.48c-37.35,7.79-62.36,28.45-62.24,51.42a35,35,0,0,0,5.53,18.24l6.17-1.29A32.51,32.51,0,0,1,269.92,304.42Z"/><path class="ba050794-3fb0-48ef-bb92-d49cad680d87" d="M275.67,322.38l-6.17,1.29c8,12.2,21.3,21.37,40.76,28l3.27-3.29C296.34,342.47,282.86,333.31,275.67,322.38Z"/><path class="afa021bf-5d6d-41bf-9fc2-8eae12bc2ab3" d="M446.67,304.16h6.62c-.29-12.81-8.16-25.16-22.22-34.82s-33.78-16.28-55.61-18.67l-1.13,3.78C415,258.92,446.06,279.5,446.67,304.16Z"/><ellipse class="a9cdb4b4-719c-4819-8b50-0fd78e689cbb" cx="259.09" cy="315.63" rx="83.95" ry="27.32" transform="translate(-25.4 22.69) rotate(-4.78)"/><ellipse class="fc4955ad-b38b-46f9-8494-bdfef5ebe36e" cx="331.46" cy="357.26" rx="50.41" ry="17.89" transform="translate(-134.11 501.31) rotate(-64.34)"/><ellipse class="a9c93d02-610b-405c-b81e-95fc05539c22" cx="453.99" cy="299.23" rx="50.41" ry="17.89" transform="translate(-28.29 48.14) rotate(-5.89)"/><ellipse class="a6691c9d-757e-49a4-9c9d-191c23362c1b" cx="374.7" cy="247.07" rx="50.41" ry="17.89" transform="translate(75.92 582) rotate(-81.66)"/><ellipse class="a9bf36d1-5c4d-4049-8abc-8b2b6a01a2f0" cx="439.12" cy="261.59" rx="59.83" ry="27.32" transform="translate(-46.4 101.82) rotate(-12.57)"/><ellipse class="a9e46f0b-521e-4621-a0bd-3fc6be3dda5e" cx="436.5" cy="344.92" rx="27.32" ry="59.83" transform="translate(-86.74 533.93) rotate(-58.18)"/><ellipse class="fcf4a25e-5eee-4596-b5df-5e8dc8b2a455" cx="295.9" cy="259.32" rx="27.32" ry="59.83" transform="translate(-88.48 343.35) rotate(-53.56)"/><path class="b1b93da7-661d-4cfd-87eb-4a59609525c8" d="M434.51,288.45c-22.29,22.29-45.77,30.39-65.92,25.53-.6-.15-9.43-2.25-10-2.42-20.28-5.73,4.54-13.92-3.81-45.08-16.8-62.73,6.56-150.56,52.19-196.19,22.57-22.57,1.89-43.61,22.2-38.36.56.14,12.29,4.35,12.85,4.52,20,5.94,36.44,25,44.71,55.81C503.5,155,480.14,242.82,434.51,288.45Z"/><path class="bdf97950-73dd-45e4-8ec4-4c5eed298807" d="M479.46,90.35C471.4,60.28,455.57,41.48,436.25,35c15.36,8.65,27.75,26.05,34.57,51.51,16.81,62.72-6.56,150.56-52.19,196.19-23.76,23.75-48.85,31.35-69.84,24.35,22.5,12.67,51.37,6.56,78.48-20.55C472.9,240.91,496.26,153.07,479.46,90.35Z"/><ellipse class="a6fcbb1a-7b93-4066-b76b-dc39a4b388c4" cx="393.37" cy="171.18" rx="144.02" ry="83.14" transform="translate(128.03 508.29) rotate(-75.31)"/><ellipse class="a8e6923d-5baa-4c65-b5c7-5ae18c6138e8" cx="393.37" cy="171.18" rx="137.47" ry="79.36" transform="translate(128.03 508.29) rotate(-75.31)"/><ellipse class="b63c50ff-92f9-4e9e-8913-2e19297b8ad6" cx="393.37" cy="171.18" rx="117.83" ry="68.03" transform="translate(128.03 508.29) rotate(-75.31)"/><ellipse class="b09aaded-fdf5-4931-8b86-8b62cc27e9f5" cx="393.37" cy="171.18" rx="98.19" ry="56.69" transform="translate(128.03 508.29) rotate(-75.31)"/><ellipse class="be51ee90-2bcd-454f-8720-12a01bec8e97" cx="393.37" cy="171.18" rx="78.55" ry="45.35" transform="translate(128.03 508.29) rotate(-75.31)"/><ellipse class="a6918c6b-6fc0-4252-8b4c-cf9c4e1a700c" cx="393.37" cy="171.18" rx="58.92" ry="34.01" transform="matrix(0.25, -0.97, 0.97, 0.25, 128.03, 508.29)"/><ellipse class="b0f21857-dd05-4bd8-9e10-9d880c0df9e3" cx="393.37" cy="171.18" rx="39.28" ry="22.68" transform="translate(128.03 508.29) rotate(-75.31)"/><path class="b1c5c447-07a1-4042-b886-45e8d25a277c" d="M327.22,238.07c-13.79-51.48,5.39-123.58,42.84-161a89.21,89.21,0,0,1,18.52-14.46A87.33,87.33,0,0,0,368.39,78c-37.45,37.46-56.63,109.55-42.83,161,11.54,43.08,42.52,58.07,74.27,39.86C368.67,295.61,338.57,280.4,327.22,238.07Z"/><path class="b1c5c447-07a1-4042-b886-45e8d25a277c" d="M349.83,215.47c-9.2-34.33,3.59-82.39,28.56-107.36a59.38,59.38,0,0,1,11.74-9.29A57.83,57.83,0,0,0,376.72,109c-25,25-37.76,73-28.56,107.35,7.77,29,28.74,38.91,50.12,26.23C377.49,253.82,357.4,243.7,349.83,215.47Z"/><path class="b1c5c447-07a1-4042-b886-45e8d25a277c" d="M372.43,192.86c-4.59-17.16,1.8-41.19,14.28-53.68a29.82,29.82,0,0,1,5.64-4.49,28.21,28.21,0,0,0-7.31,5.42c-12.48,12.48-18.87,36.52-14.27,53.68,3.91,14.6,14.52,19.52,25.3,13C385.88,211.85,376.15,206.71,372.43,192.86Z"/><ellipse class="b591194b-d8ca-44b7-b7bf-3dbce0c1bb46" cx="393.37" cy="171.18" rx="19.64" ry="11.34" transform="matrix(0.25, -0.97, 0.97, 0.25, 128.03, 508.29)"/><path class="b54cfe5d-ec3b-4d0f-ab5d-8ab79957c095" d="M472.49,92.06c-5.81-21.67-15.83-37.25-28.33-46.26C456,55,465.43,70.14,471,91c16.09,60.07-6.29,144.18-50,187.88-27.93,27.92-57.81,32.58-79.94,16.62,22.27,17.27,52.86,13.05,81.42-15.51C466.21,236.24,488.58,152.13,472.49,92.06Z"/><path class="fba8899a-8ed0-4ebf-aae9-42bec70bf56f" d="M449.88,114.67c-4.13-15.44-11.28-26.53-20.17-33,8.2,6.57,14.78,17.28,18.69,31.86,11.5,42.9-4.49,103-35.7,134.19-20,20-41.34,23.26-57.15,11.8,15.94,12.78,38,9.92,58.64-10.68C445.4,217.65,461.38,157.57,449.88,114.67Z"/><path class="b696a11d-1db6-4e5b-986a-e3f67c614af7" d="M427.28,137.27c-2.56-9.54-7-16.32-12.58-20.13,4.86,4,8.77,10.34,11.09,19,6.9,25.74-2.69,61.79-21.41,80.52-11.79,11.78-24.38,13.89-33.82,7.43,9.58,7.77,22.89,6.1,35.3-6.32C424.59,199.07,434.18,163,427.28,137.27Z"/><path class="eff32c27-a778-47bf-9eb8-b4c3fc83f402" d="M404.67,159.88c-.92-3.45-2.6-5.8-4.67-7a12.49,12.49,0,0,1,3.19,5.88c2.3,8.58-.9,20.59-7.14,26.84-3.73,3.73-7.7,4.53-10.79,2.75,3.22,3.1,7.91,2.72,12.27-1.64C403.78,180.48,407,168.46,404.67,159.88Z"/><g class="a758a019-d12a-43c6-b642-7b2c661c2d69"><path class="af39d119-1ba9-46d5-896f-c77be8cfbd82" d="M407.45,279.86l2.75-1.58c-22-12.34-55.54-13.74-79.94-4.18l2.23,1.84C355.39,267,386.81,268.29,407.45,279.86Z"/></g><path class="a43714dd-b02a-4f16-ae75-4840b3ca6709" d="M366.69,262.21l0,3.93c15.6.14,29.93,3.39,41.21,8.72l4.36-3C399.81,266,384,262.35,366.69,262.21ZM407.85,274c-11.61-5.41-25.56-8.38-40.41-8.6l0-2.47c15.71.22,31,3.41,43.39,9Z"/><path class="ba050794-3fb0-48ef-bb92-d49cad680d87" d="M394.9,257.78l6.27-11.46c-1.57-.32-3.12-.69-4.71-1L390,256.79C391.63,257.08,393.26,257.43,394.9,257.78Zm8.32,2,8.31-11c-1.5-.42-3-.85-4.52-1.22l-8.53,10.95C400.09,258.9,401.65,259.36,403.22,259.8Zm-61.49-3.09-6.63-11.46c-1.58.27-3.13.62-4.69.94l6.39,11.48C338.44,257.33,340.07,257,341.73,256.71Zm-8.5,1.69-8.65-11c-1.52.36-3,.79-4.51,1.2l8.43,11C330.07,259.23,331.63,258.78,333.23,258.4Zm53-2.13,4.15-11.79c-1.62-.22-3.22-.47-4.85-.65l-4.4,11.77C382.88,255.79,384.57,256,386.27,256.27Zm-8.85-1,2-12c-1.64-.12-3.29-.25-4.94-.33l-2.24,12C374,255,375.69,255.15,377.42,255.28Zm-18-.36-2.37-12c-1.65.07-3.29.19-4.94.31l2.13,12C356,255.11,357.71,255,359.44,254.92Zm-8.93.63L346,243.76c-1.63.17-3.23.42-4.85.63l4.28,11.8C347.11,256,348.8,255.72,350.51,255.55Zm76.12-1.73-12.3,9.67c1.43.57,2.83,1.17,4.22,1.79l12.09-9.75C429.32,255,428,254.37,426.63,253.82Zm-58.18,1-.19-12.05c-1.66,0-3.32,0-5,0l-.06,12.05C365,254.8,366.7,254.8,368.45,254.84Zm48.65-4.44-10.47,10.37c1.53.47,3,1,4.5,1.54l10.26-10.44C420,251.37,418.55,250.86,417.1,250.4Z"/><path class="afa021bf-5d6d-41bf-9fc2-8eae12bc2ab3" d="M377.42,255.28l2-12c-1.64-.12-3.29-.25-4.94-.33l-2.24,12C374,255,375.69,255.15,377.42,255.28Zm-18-.36-2.37-12c-1.65.07-3.29.19-4.94.31l2.13,12C356,255.11,357.71,255,359.44,254.92Zm67.19-1.1-12.3,9.67c1.43.57,2.83,1.17,4.22,1.79l12.09-9.75C429.32,255,428,254.37,426.63,253.82Z"/><path class="b338a59e-c4cc-4322-820e-806d388af912" d="M403.22,259.8l8.31-11c-1.5-.42-3-.85-4.52-1.22l-8.53,10.95C400.09,258.9,401.65,259.36,403.22,259.8Zm-70-1.4-8.65-11c-1.52.36-3,.79-4.51,1.2l8.43,11C330.07,259.23,331.63,258.78,333.23,258.4Zm53-2.13,4.15-11.79c-1.62-.22-3.22-.47-4.85-.65l-4.4,11.77C382.88,255.79,384.57,256,386.27,256.27Z"/><path class="ba050794-3fb0-48ef-bb92-d49cad680d87" d="M395.93,228.45c-1.42-.19-2.82-.44-4.25-.6l-3.15,8.45c1.48.16,3,.35,4.44.55Zm-6.39,7.23,2.63-7c.64.08,1.28.18,1.9.28l.88.13-2.47,7C391.45,235.91,390.47,235.79,389.54,235.68Zm20-5c-1.38-.28-2.74-.59-4.13-.84l-4.66,8.19c1.45.25,2.89.52,4.33.81Zm-7.64,6.81,3.89-6.84,2,.41.63.13-3.74,6.83C403.79,237.88,402.86,237.7,401.91,237.53ZM382,227c-1.45-.1-2.89-.23-4.34-.31l-1.6,8.58c1.5.08,3,.17,4.51.28Zm-5.08,7.59,1.34-7.14,2.18.16.71.06L380,234.79Zm58.3,3c-1.25-.43-2.49-.88-3.76-1.28l-7.48,7.4q2,.63,3.93,1.32Zm-9.88,5.8,6.31-6.25c.76.24,1.51.51,2.25.76l-6.18,6.29C426.89,244,426.11,243.69,425.33,243.44Zm-2.64-9.65c-1.32-.35-2.63-.73-4-1.07l-6.11,7.84c1.4.34,2.78.7,4.16,1.07Zm-8.8,6.33,5.12-6.57c.73.18,1.45.39,2.16.58l.29.08-5,6.59C415.65,240.57,414.79,240.35,413.89,240.12Zm-58.48-4.88-1.7-8.59c-1.45.08-2.88.2-4.33.3l1.52,8.56C352.4,235.4,353.91,235.32,355.41,235.24Zm-4.53-7.67c.74,0,1.49-.11,2.24-.15l1.41,7.14-3,.17-1.26-7.11Zm-20.16,10.37L326,229.73c-1.38.25-2.74.56-4.11.83l4.55,8.18C327.84,238.45,329.28,238.19,330.72,237.94Zm-7.09-7,2-.4,4,6.86-2.78.52L323,231.08Zm19.31,5.28-3.25-8.47c-1.42.16-2.82.41-4.24.59l3.06,8.41C340,236.56,341.46,236.38,342.94,236.22Zm-5.63-7.41c.62-.09,1.26-.19,1.9-.27l2.71,7.06c-.93.1-1.9.22-2.93.35l-2.54-7ZM368,235l-.14-8.61H363.5l0,8.62H368Zm-3.78-7.89h2.93l.11,7.16h-3.07Z"/><path class="ba050794-3fb0-48ef-bb92-d49cad680d87" d="M382,227c-1.45-.1-2.89-.23-4.34-.31l-1.6,8.58c1.5.08,3,.17,4.51.28Zm-5.08,7.59,1.34-7.14,2.18.16.71.06L380,234.79Zm58.3,3c-1.25-.43-2.49-.88-3.76-1.28l-7.48,7.4q2,.63,3.93,1.32Zm-9.88,5.8,6.31-6.25c.76.24,1.51.51,2.25.76l-6.18,6.29C426.89,244,426.11,243.69,425.33,243.44Zm-2.64-9.65c-1.32-.35-2.63-.73-4-1.07l-6.11,7.84c1.4.34,2.78.7,4.16,1.07Zm-8.8,6.33,5.12-6.57c.73.18,1.45.39,2.16.58l.29.08-5,6.59C415.65,240.57,414.79,240.35,413.89,240.12Zm-70.95-3.9-3.25-8.47c-1.42.16-2.82.41-4.24.59l3.06,8.41C340,236.56,341.46,236.38,342.94,236.22Zm-5.63-7.41c.62-.09,1.26-.19,1.9-.27l2.71,7.06c-.93.1-1.9.22-2.93.35l-2.54-7Z"/><path class="afa021bf-5d6d-41bf-9fc2-8eae12bc2ab3" d="M423.44,270.94c-11.54-6.55-26.4-11-42.61-12.81l-1,3.24c16.17,1.78,30.57,6.52,41.43,13.2C422,273.37,422.74,272.16,423.44,270.94Z"/><g class="f371ec8f-e9cd-4b7b-aaf8-93a0b4c64e19"><path class="a3512338-ca13-46c8-960e-86c770d44376" d="M314.65,247.09c0,.5.05,1,.07,1.49a176.65,176.65,0,0,1,50.69-7.14c24.22,0,47.26,4.49,66.31,12.77l.57-1.34C413.06,244.51,389.82,240,365.41,240A178.1,178.1,0,0,0,314.65,247.09Z"/><path class="a3512338-ca13-46c8-960e-86c770d44376" d="M314.59,244.4c0,.25,0,.5,0,.75a185.64,185.64,0,0,1,50.78-6.83c24.63,0,48.08,4.45,67.67,12.66.1-.23.19-.45.28-.68-19.68-8.24-43.23-12.71-67.95-12.71A186.21,186.21,0,0,0,314.59,244.4Z"/></g><path class="afa021bf-5d6d-41bf-9fc2-8eae12bc2ab3" d="M316.8,266.69c.24,1.29.5,2.58.78,3.84,13.11-6.23,29.92-10,48.25-9.93,4.22,0,8.36.21,12.4.6l1-3.24a132.86,132.86,0,0,0-41.3,2.13A109,109,0,0,0,316.8,266.69Z"/><path class="afa021bf-5d6d-41bf-9fc2-8eae12bc2ab3" d="M319.29,277.16c11.77-6.73,27.89-10.91,45.72-11l0-3.93c-17.95.09-34.34,3.94-46.94,10.24l.18.73c12.44-6.24,28.58-10,46-10.23l0,2.47c-17.38.21-33.38,4.35-45.19,11C319.16,276.7,319.23,276.93,319.29,277.16Z"/><polygon class="f83be57d-20b3-40d2-85ce-dfdc4345d647" points="366.85 165.07 387.08 171.35 366.01 166.67 366.85 165.07"/><path class="ac20c78a-b54b-4cea-af11-78bfab91e491" d="M202.8,122.93l-6-7.87a5,5,0,0,1,6.41-7.34L252.75,136Z"/><path class="e66eb2a7-8b5d-48da-badd-edbea9b956d2" d="M203.75,122.52l-6-7.87a4.93,4.93,0,0,1,1.55-7.38,5,5,0,0,0-2.5,7.79l6,7.87L252.75,136l-2.13-1.21Z"/><path class="eadf8de6-0d82-410f-b662-eefb5e1f802a" d="M368.57,167.24a.49.49,0,0,1-.45.17s-8.92,1.36-23.53-2.53c-20.87-5.56-23.5-7.16-23.51-7.16-.54-.15.12-.37-.1-1.21a6.07,6.07,0,0,1,1.4-5.28c.61-.61.05-1.17.6-1,0,0,3,0,23.91,5.61,14.65,3.91,21.72,9.73,21.73,9.73a.51.51,0,0,1,.3.38A1.54,1.54,0,0,1,368.57,167.24Z"/><ellipse class="bb351691-1d2e-46a0-8c6c-b7a74feca7dc" cx="321.97" cy="153.95" rx="3.86" ry="2.23" transform="translate(91.41 426.36) rotate(-75.31)"/><path class="fc1a2a95-ffaf-48e8-b299-1b762ccb37ed" d="M322.36,156.66a1.82,1.82,0,0,1-1.69.65L199.44,124.75c-.52-.15.11-.36-.1-1.16a5.75,5.75,0,0,1,1.34-5c.58-.58,0-1.12.57-1l121.3,32.62a1.86,1.86,0,0,1,1.15,1.43A5.77,5.77,0,0,1,322.36,156.66Z"/><path class="b4219406-d221-41be-a034-fa6cf4d6a2ca" d="M201.07,124.06c-1.17,1.17-2.47.82-2.9-.79a5.72,5.72,0,0,1,1.34-5c1.17-1.17,2.47-.81,2.9.8A5.75,5.75,0,0,1,201.07,124.06Z"/><path class="bb178b05-7967-4445-802b-e45b570ef67f" d="M410.21,174.09l-12.83,14.2a.43.43,0,0,0-.2.11s-8.26,4-18,15.62c-13.85,16.61-61.88,68.62-61.89,68.63a.27.27,0,0,0-.09.17,1.92,1.92,0,0,0-.05,1.69c.57,1.56,7,10.81,8.62,11.1a1.89,1.89,0,0,0,1.76-.43l.12-.1s45-58.56,58.79-75.16c9.67-11.61,12.18-20.28,12.18-20.28a.49.49,0,0,0,0-.48Z"/><path class="a806279d-37b0-439d-bd59-77af3a363485" d="M409.34,175.1l-12.16,13.47a.3.3,0,0,0-.19.11s-7.77,3.82-17,14.87C366.89,219.29,320,270.39,320,270.41a.26.26,0,0,0-.08.16,1.79,1.79,0,0,0-.05,1.6c.54,1.47,6.44,9.94,8,10.21a1.77,1.77,0,0,0,1.67-.4l.12-.1s44-57.06,57.12-72.8c9.17-11,11.67-19.24,11.67-19.24a.42.42,0,0,0,0-.44Z"/><path class="b6d6ec47-86d6-4043-8a7f-7e11e6a57d0d" d="M408.47,176.12,397,188.85a.32.32,0,0,0-.17.1s-7.28,3.68-16,14.12c-12.41,14.88-58.24,65.08-58.25,65.09a.27.27,0,0,0-.07.15,1.69,1.69,0,0,0-.05,1.51c.51,1.4,5.9,9.08,7.37,9.34a1.67,1.67,0,0,0,1.57-.38.47.47,0,0,0,.11-.1s43.07-55.56,55.46-70.43c8.67-10.42,11.17-18.2,11.17-18.2a.43.43,0,0,0,0-.42Z"/><path class="b3e23304-239c-4387-936d-6deea34657fb" d="M407.6,177.13l-10.83,12a.26.26,0,0,0-.17.09s-6.79,3.54-15,13.38c-11.69,14-56.42,63.3-56.42,63.31a.2.2,0,0,0-.07.14,1.62,1.62,0,0,0-.05,1.43c.49,1.31,5.35,8.21,6.74,8.46a1.58,1.58,0,0,0,1.48-.36l.11-.09s42.12-54.07,53.78-68.08c8.17-9.81,10.67-17.15,10.67-17.15a.42.42,0,0,0,0-.4Z"/><path class="b47ef8f9-c887-4dcc-a02b-7586364886c2" d="M406.73,178.15,396.57,189.4a.35.35,0,0,0-.16.09s-6.3,3.4-14,12.63c-11,13.16-54.59,61.53-54.6,61.54a.33.33,0,0,0-.07.13,1.53,1.53,0,0,0,0,1.34c.46,1.24,4.81,7.36,6.11,7.58a1.52,1.52,0,0,0,1.4-.33l.09-.09s41.17-52.57,52.12-65.72c7.67-9.21,10.16-16.1,10.16-16.1a.38.38,0,0,0,0-.38Z"/><path class="f14826b2-8fb0-4731-baa8-65017adc5a34" d="M405.87,179.16l-9.5,10.52a.27.27,0,0,0-.15.08s-5.81,3.26-13,11.89c-10.25,12.29-52.77,59.75-52.78,59.76s-.06.09-.06.13a1.43,1.43,0,0,0,0,1.25c.43,1.15,4.27,6.49,5.49,6.7a1.41,1.41,0,0,0,1.3-.31l.09-.08s40.22-51.08,50.45-63.37c7.17-8.61,9.65-15,9.65-15a.37.37,0,0,0,0-.36Z"/><path class="ac0987ba-2f6e-4d2e-b442-2f7adca65781" d="M405,180.18,396.16,190a.27.27,0,0,0-.13.07s-5.33,3.12-12,11.14c-9.54,11.44-50.95,58-50.95,58a.17.17,0,0,0-.06.12,1.31,1.31,0,0,0,0,1.16c.4,1.07,3.73,5.63,4.86,5.82A1.27,1.27,0,0,0,339,266a.23.23,0,0,0,.08-.07s39.27-49.58,48.79-61c6.66-8,9.14-14,9.14-14a.32.32,0,0,0,0-.32Z"/><path class="b5f972cf-57f8-4357-ad94-f6c63a239f6d" d="M404.13,181.19,396,190.24a.24.24,0,0,0-.13.07s-4.83,3-11,10.38c-8.82,10.58-49.12,56.22-49.13,56.22a.17.17,0,0,0-.05.11,1.18,1.18,0,0,0,0,1.08c.36,1,3.18,4.76,4.22,4.94a1.18,1.18,0,0,0,1.12-.27.23.23,0,0,0,.08-.07s38.32-48.08,47.12-58.65a62.33,62.33,0,0,0,8.63-13,.28.28,0,0,0,0-.3Z"/><path class="f470e7ab-d674-49b3-8967-7dc015f487db" d="M403.26,182.21l-7.5,8.3a.24.24,0,0,0-.12.07s-4.35,2.83-10,9.64c-8.1,9.71-47.3,54.44-47.31,54.44a.22.22,0,0,0,0,.1,1.09,1.09,0,0,0,0,1c.33.91,2.64,3.9,3.6,4.07a1.07,1.07,0,0,0,1-.25l.08-.06s37.36-46.59,45.45-56.3a64.53,64.53,0,0,0,8.12-11.91.3.3,0,0,0,0-.28Z"/><path class="b61b2e9f-dd40-44eb-a561-06dc607a53ed" d="M402.39,183.22l-6.83,7.57a.2.2,0,0,0-.11.06,52.1,52.1,0,0,0-9,8.89c-7.38,8.85-45.48,52.67-45.48,52.68s-.05.06-.05.09a1,1,0,0,0,0,.9c.3.83,2.09,3,3,3.18a1,1,0,0,0,.94-.22l.06-.06s36.42-45.09,43.79-53.94a70.14,70.14,0,0,0,7.61-10.86.26.26,0,0,0,0-.26Z"/><path class="bbb87cfa-6c34-4a93-961f-c93615ae477d" d="M401.53,184.23l-6.18,6.84a.19.19,0,0,0-.09.05,55.07,55.07,0,0,0-8,8.15c-6.66,8-43.66,50.89-43.66,50.9a.12.12,0,0,0,0,.08.9.9,0,0,0,0,.81,4.66,4.66,0,0,0,2.34,2.31.91.91,0,0,0,.85-.2l.06-.06s35.47-43.59,42.11-51.58a79,79,0,0,0,7.11-9.82.23.23,0,0,0,0-.22Z"/><path class="acc254b8-b32b-4406-aede-a6d18ac200d0" d="M400.66,185.25l-5.51,6.1a.12.12,0,0,0-.08,0,61.75,61.75,0,0,0-7.05,7.4c-5.94,7.13-41.83,49.12-41.84,49.13a.13.13,0,0,0,0,.07.83.83,0,0,0,0,.73,2.49,2.49,0,0,0,1.72,1.43.8.8,0,0,0,.75-.18s0,0,0-.05,34.52-42.1,40.45-49.23a100.59,100.59,0,0,0,6.6-8.77.19.19,0,0,0,0-.2Z"/><path class="ee2dc823-e856-413b-b416-317829825749" d="M204.19,119.22l50.71,13.64-23.05-27.17a15.36,15.36,0,0,0-26.95,8Z"/><path class="e3fc2ad3-4807-470f-a341-eb32b555d169" d="M204.8,119.63l50.72,13.64L232.46,106.1a15.36,15.36,0,0,0-27,8Z"/><path class="acbe2c4a-5788-413b-8043-2fa9972176fc" d="M205.78,114.76a15.36,15.36,0,0,1,26.95-8l22.39,26.38.4.11L232.46,106.1a15.36,15.36,0,0,0-27,8l-.71,5.54.35.09Z"/><path class="b6c68a92-3be8-4e23-a23a-9e23494cbdba" d="M202.45,125l-2,3.63a12.84,12.84,0,0,0,14,18.85L252.88,139Z"/><path class="b74c13d6-0468-40d8-9be9-b9d605c1b183" d="M203.36,125.13l-2.05,3.63a12.84,12.84,0,0,0,14,18.85l38.5-8.55Z"/><path class="fa17b878-72f7-4a84-8315-ee04a7e5007c" d="M216,147.41a12.85,12.85,0,0,1-14-18.86l1.85-3.27-.55-.15-2,3.63a12.84,12.84,0,0,0,14,18.85l38.5-8.55-.07,0Z"/><path class="b120310e-511b-41ad-b7d0-9be87c0e5c16" d="M358.36,161.85c-.51,2-15.55-.22-33.59-4.87S292.51,147,293,145s15.54.22,33.58,4.86S358.86,159.88,358.36,161.85Z"/></g></g></svg>