<svg xmlns="http://www.w3.org/2000/svg" xmlns:xlink="http://www.w3.org/1999/xlink" viewBox="0 0 419.67 391.39"><defs><style>.ede36a10-cbb7-4698-a766-c508ce131f55{isolation:isolate;}.a1f52a44-be17-4989-8abd-cc3f46bd9ca9{fill:url(#fa76a4bc-f13e-4cc8-9955-98fb6e257cbb);}.a95cc72e-6fc9-4ef4-aead-bc5b39f458ec,.b32ddf34-c83a-4230-b53e-a1fc52052a89,.b52a1da5-44c6-4b66-805e-a7ee30a3f115,.b6f7e868-ced6-47ca-8c41-d9c8c7232a95,.e60dd22c-6b9f-4d5e-a702-7f4c25741f8a,.e8828620-99cf-43a4-801c-7fbabdb4c5bd,.fc0cc339-bc20-4bcc-8a0a-db56550e1581,.fc19c3bd-c145-4623-b40d-cdcdb68a7035,.fd5da876-d533-4e9b-890f-1e145033c5bf{mix-blend-mode:color-dodge;}.b6f7e868-ced6-47ca-8c41-d9c8c7232a95{fill:url(#f5952996-234c-413f-a632-222ea5653e69);}.b3a6549b-16c4-4049-8ff3-4b738111b92e{fill:url(#bc95f03b-e733-44e3-9aa3-96a0eeb105fb);}.bb5e4e10-578d-4d5f-a011-7d832b87fb72{fill:url(#f8238d2e-e7ef-4cf5-b585-aae2af154fc0);}.ec4016ad-9d30-4e2a-a4e2-74833cefe473{fill:url(#e2b073e7-b033-445a-a14c-10a70a31a8ff);}.f9cf8e84-75be-4696-b1a3-d6d1b5813349{fill:url(#b4b28b21-612b-4c55-aff1-82cbc0bfe013);}.a0dc20af-2f20-4456-aa1b-9cfeef755fb4{fill:url(#b60bb6ee-0abe-41eb-8bdd-3fa41a3e3ffc);}.bcbebaa3-74a4-4502-95fd-b5abf5431dce{fill:url(#a6ebd656-2eea-435b-a64a-b3781a4c8ecc);}.ea1859ab-1f86-47c1-9bdd-ad561b5970b7{fill:url(#e3b1109d-8292-4287-92ee-f3b4cd917693);}.ab84246e-366a-468c-9e1e-52b1f3590260{fill:#d1d3d4;mix-blend-mode:multiply;}.fc7c52a5-7b18-4943-a08f-9b780afff7e6{fill:url(#a112bb73-9890-4488-ac40-eac6b3046694);}.b52a1da5-44c6-4b66-805e-a7ee30a3f115{fill:url(#b7dcfc4f-4b3f-45cf-9e3e-622b03d0092c);}.e60dd22c-6b9f-4d5e-a702-7f4c25741f8a{fill:url(#f17beebb-811c-497b-bed2-0a8297b5f21b);}.b32ddf34-c83a-4230-b53e-a1fc52052a89{fill:url(#ff124310-8223-4948-84c2-1e641e10420e);}.fd5da876-d533-4e9b-890f-1e145033c5bf{fill:url(#f03c6d5f-72a0-4860-a6e5-8e1bffffd1d9);}.a3f7d349-2bd1-47d4-a324-ad079f91f9dc{fill:url(#b8a1d65d-2b33-47fe-9be4-80169ee8420e);}.b5e55a01-5ce9-41e9-9038-7ba86c5ea52e{fill:url(#babbddb7-4a5c-495b-a278-19120dfc8364);}.fc0cc339-bc20-4bcc-8a0a-db56550e1581{fill:url(#eacb207c-8965-4f19-bda3-73c215911a0a);}.a02cca1b-ee0c-42bc-95c8-bae677c151fa{fill:url(#a7467d17-aa63-465e-afec-72a0c6bc256e);}.f34aebfc-a95e-4a20-bb49-b1837c92eb03{fill:url(#ba1f73e0-c1ae-4290-8d79-db0030b14820);}.b3e1bae8-a3da-4218-a353-f283a7a03f71{fill:url(#b07c7f4a-ca92-4cef-bd6a-f2377b50c49e);}.a8cc0e0e-8dcd-4935-b343-32a8ae940448{fill:url(#ac505fc9-7411-4679-af0b-bafd9f75fbef);}.bc03c7e2-a395-43ef-9170-3e18dc764b0c{fill:url(#be03e219-b9b4-4a68-ae9f-369fe50b70e6);}.bc447b15-419c-48dc-a4ae-bf0aa69de164{fill:url(#f56b9fe0-1b81-4216-a32e-c2489ec5b510);}.fc19c3bd-c145-4623-b40d-cdcdb68a7035{fill:url(#a7a86e67-41c8-4b1d-aadf-238eedb1fdb7);}.a147be76-450e-4b60-b747-4c30e71054a5{fill:url(#f5f64fc3-b7cf-4d06-aa91-097e670f7249);}.ae2c2667-2e8e-4de6-bf41-550b1c13c3bb{fill:url(#a922ab5c-ac6d-48ad-a08f-fc3e1aa98b30);}.e8828620-99cf-43a4-801c-7fbabdb4c5bd{fill:url(#bef0f0f7-49f0-494f-9caa-095e3594066e);}.a95cc72e-6fc9-4ef4-aead-bc5b39f458ec{fill:url(#e93b80de-9bfb-43d3-9703-eb1aa7458c42);}</style><linearGradient id="fa76a4bc-f13e-4cc8-9955-98fb6e257cbb" x1="-6563.64" y1="5089.19" x2="-6803.45" y2="4767.85" gradientTransform="translate(8567.89 1454.98) rotate(45)" gradientUnits="userSpaceOnUse"><stop offset="0.06" stop-color="#0a4a88"/><stop offset="0.24" stop-color="#0a4c88"/><stop offset="0.33" stop-color="#0a5488"/><stop offset="0.39" stop-color="#0a6188"/><stop offset="0.42" stop-color="#0a6888"/><stop offset="0.69" stop-color="#0a6a88"/><stop offset="0.72" stop-color="#0a6d88"/><stop offset="0.81" stop-color="#0a7288"/><stop offset="0.88" stop-color="#0a5e88"/><stop offset="0.94" stop-color="#0a4f88"/><stop offset="1" stop-color="#0a4a88"/></linearGradient><radialGradient id="f5952996-234c-413f-a632-222ea5653e69" cx="-6690.14" cy="4860.27" r="151.04" gradientTransform="translate(8567.89 1454.98) rotate(45)" gradientUnits="userSpaceOnUse"><stop offset="0" stop-color="#fff"/><stop offset="0.07" stop-color="#d8d8d8"/><stop offset="0.16" stop-color="#a6a6a6"/><stop offset="0.26" stop-color="#797979"/><stop offset="0.37" stop-color="#545454"/><stop offset="0.47" stop-color="#353535"/><stop offset="0.59" stop-color="#1e1e1e"/><stop offset="0.7" stop-color="#0d0d0d"/><stop offset="0.84" stop-color="#030303"/><stop offset="1"/></radialGradient><linearGradient id="bc95f03b-e733-44e3-9aa3-96a0eeb105fb" x1="-1179.47" y1="4937.06" x2="-1485.58" y2="4979.55" gradientTransform="matrix(-0.5, 0.86, -0.86, -0.5, 3946.49, 3812.43)" gradientUnits="userSpaceOnUse"><stop offset="0" stop-color="#0a8688"/><stop offset="0.17" stop-color="#0a7b88"/><stop offset="0.49" stop-color="#0a6a88"/><stop offset="1" stop-color="#0a7988"/></linearGradient><radialGradient id="f8238d2e-e7ef-4cf5-b585-aae2af154fc0" cx="-1281.13" cy="656.43" r="154.13" gradientTransform="matrix(-0.5, 0.86, -1.29, -0.76, 522.19, 1810.67)" gradientUnits="userSpaceOnUse"><stop offset="0" stop-color="#0a8188"/><stop offset="0.41" stop-color="#0a7f88"/><stop offset="0.82" stop-color="#0a7288"/><stop offset="0.9" stop-color="#0a6388"/><stop offset="1" stop-color="#0a4a88"/></radialGradient><linearGradient id="e2b073e7-b033-445a-a14c-10a70a31a8ff" x1="-1598.94" y1="5022.42" x2="-949.07" y2="4876.74" gradientTransform="matrix(-0.5, 0.86, -0.86, -0.5, 3946.49, 3812.42)" gradientUnits="userSpaceOnUse"><stop offset="0" stop-color="#d4d1d8"/><stop offset="1" stop-color="#eeebf2"/></linearGradient><radialGradient id="b4b28b21-612b-4c55-aff1-82cbc0bfe013" cx="-1281.13" cy="656.43" r="110.09" gradientTransform="matrix(-0.5, 0.86, -1.29, -0.76, 522.19, 1810.67)" gradientUnits="userSpaceOnUse"><stop offset="0" stop-color="#0a6688"/><stop offset="0.4" stop-color="#0a6388"/><stop offset="0.82" stop-color="#0a6d88"/><stop offset="0.91" stop-color="#0a5e88"/><stop offset="1" stop-color="#0a4a88"/></radialGradient><linearGradient id="b60bb6ee-0abe-41eb-8bdd-3fa41a3e3ffc" x1="-1492.98" y1="4998.66" x2="-1059.73" y2="4901.54" xlink:href="#e2b073e7-b033-445a-a14c-10a70a31a8ff"/><radialGradient id="a6ebd656-2eea-435b-a64a-b3781a4c8ecc" cx="-1281.13" cy="656.43" r="66.06" gradientTransform="matrix(-0.5, 0.86, -1.29, -0.76, 522.19, 1810.67)" gradientUnits="userSpaceOnUse"><stop offset="0" stop-color="#0a4a88"/><stop offset="0.41" stop-color="#0a86b5"/><stop offset="0.54" stop-color="#0a77a9"/><stop offset="0.8" stop-color="#0a4e8b"/><stop offset="0.82" stop-color="#0a4a88"/><stop offset="0.9" stop-color="#0a4a97"/><stop offset="1" stop-color="#0a4ab3"/></radialGradient><linearGradient id="e3b1109d-8292-4287-92ee-f3b4cd917693" x1="-1387.02" y1="4974.91" x2="-1170.4" y2="4926.35" gradientTransform="translate(3946.49 3812.43) rotate(120.31)" xlink:href="#e2b073e7-b033-445a-a14c-10a70a31a8ff"/><linearGradient id="a112bb73-9890-4488-ac40-eac6b3046694" x1="244.25" y1="209.31" x2="380.14" y2="206.43" gradientTransform="translate(438.84 -153.24) rotate(75.31)" gradientUnits="userSpaceOnUse"><stop offset="0.04" stop-color="#0a4a88"/><stop offset="1" stop-color="#0a4a88"/></linearGradient><radialGradient id="b7dcfc4f-4b3f-45cf-9e3e-622b03d0092c" cx="-1250.32" cy="4950.85" r="141.64" gradientTransform="translate(4725.51 -2387.4) rotate(45)" xlink:href="#f5952996-234c-413f-a632-222ea5653e69"/><radialGradient id="f17beebb-811c-497b-bed2-0a8297b5f21b" cx="-1259.04" cy="4951" r="101.16" gradientTransform="translate(4725.51 -2387.4) rotate(45)" xlink:href="#f5952996-234c-413f-a632-222ea5653e69"/><radialGradient id="ff124310-8223-4948-84c2-1e641e10420e" cx="-1268.25" cy="4951.07" r="60.85" gradientTransform="translate(4725.51 -2387.4) rotate(45)" xlink:href="#f5952996-234c-413f-a632-222ea5653e69"/><radialGradient id="f03c6d5f-72a0-4860-a6e5-8e1bffffd1d9" cx="-1277.16" cy="4951.16" r="20.43" gradientTransform="translate(4725.51 -2387.4) rotate(45)" xlink:href="#f5952996-234c-413f-a632-222ea5653e69"/><linearGradient id="b8a1d65d-2b33-47fe-9be4-80169ee8420e" x1="-1316.92" y1="4978.29" x2="-1318.1" y2="4976.24" gradientTransform="translate(4690.85 -2401.66) rotate(45)" gradientUnits="userSpaceOnUse"><stop offset="0.04" stop-color="#f7aa90"/><stop offset="0.23" stop-color="#f9b996"/><stop offset="0.61" stop-color="#ffe2a6"/><stop offset="0.63" stop-color="#ffe4a7"/><stop offset="0.87" stop-color="#f7aa90"/></linearGradient><linearGradient id="babbddb7-4a5c-495b-a278-19120dfc8364" x1="73.2" y1="169.41" x2="71.79" y2="116.68" gradientUnits="userSpaceOnUse"><stop offset="0.04" stop-color="#ffa98c"/><stop offset="0.32" stop-color="#ffb892"/><stop offset="0.86" stop-color="#fee1a3"/><stop offset="1" stop-color="#feeca8"/></linearGradient><radialGradient id="eacb207c-8965-4f19-bda3-73c215911a0a" cx="53.27" cy="132.38" r="29.92" gradientTransform="matrix(1, 0, 0, 1, 0, 0)" xlink:href="#f5952996-234c-413f-a632-222ea5653e69"/><linearGradient id="a7467d17-aa63-465e-afec-72a0c6bc256e" x1="-1352" y1="5004.44" x2="-1358.29" y2="4993.56" gradientTransform="translate(4725.51 -2387.4) rotate(45)" gradientUnits="userSpaceOnUse"><stop offset="0.01" stop-color="#f9b595"/><stop offset="0.13" stop-color="#fbc59c"/><stop offset="0.18" stop-color="#f9ba97"/><stop offset="0.25" stop-color="#f8ae92"/><stop offset="0.33" stop-color="#f7aa90"/><stop offset="0.43" stop-color="#f8b394"/><stop offset="0.59" stop-color="#fccb9d"/><stop offset="0.73" stop-color="#ffe4a7"/><stop offset="0.97" stop-color="#f7aa90"/></linearGradient><linearGradient id="ba1f73e0-c1ae-4290-8d79-db0030b14820" x1="-1386.14" y1="5014.77" x2="-1378.88" y2="5014.77" gradientTransform="translate(3833.49 3905.36) rotate(120.31)" xlink:href="#babbddb7-4a5c-495b-a278-19120dfc8364"/><linearGradient id="b07c7f4a-ca92-4cef-bd6a-f2377b50c49e" x1="-1451.99" y1="5060.44" x2="-1457.02" y2="5051.74" gradientTransform="translate(4725.51 -2387.4) rotate(45)" gradientUnits="userSpaceOnUse"><stop offset="0.04" stop-color="#1e1f21"/><stop offset="0.12" stop-color="#2d2e30"/><stop offset="0.14" stop-color="#323336"/><stop offset="0.27" stop-color="#0e0e0f"/><stop offset="0.35" stop-color="#131415"/><stop offset="0.46" stop-color="#232326"/><stop offset="0.59" stop-color="#3c3d41"/><stop offset="0.73" stop-color="#5e6167"/><stop offset="0.77" stop-color="#696c73"/><stop offset="1" stop-color="#37383c"/></linearGradient><linearGradient id="ac505fc9-7411-4679-af0b-bafd9f75fbef" x1="34.11" y1="143.38" x2="44.19" y2="134.38" gradientUnits="userSpaceOnUse"><stop offset="0.04" stop-color="#1e1f21"/><stop offset="0.31" stop-color="#2c2e30"/><stop offset="0.84" stop-color="#515359"/><stop offset="1" stop-color="#5d6066"/></linearGradient><linearGradient id="be03e219-b9b4-4a68-ae9f-369fe50b70e6" x1="70.13" y1="127.81" x2="60.13" y2="110.52" xlink:href="#babbddb7-4a5c-495b-a278-19120dfc8364"/><linearGradient id="f56b9fe0-1b81-4216-a32e-c2489ec5b510" x1="-1518.48" y1="5072.56" x2="-1386.45" y2="5033.02" gradientTransform="translate(4725.51 -2387.4) rotate(45)" xlink:href="#babbddb7-4a5c-495b-a278-19120dfc8364"/><radialGradient id="a7a86e67-41c8-4b1d-aadf-238eedb1fdb7" cx="61.11" cy="120.07" r="21.58" gradientTransform="matrix(1, 0, 0, 1, 0, 0)" xlink:href="#f5952996-234c-413f-a632-222ea5653e69"/><linearGradient id="f5f64fc3-b7cf-4d06-aa91-097e670f7249" x1="60.62" y1="175.65" x2="69.38" y2="162.92" xlink:href="#babbddb7-4a5c-495b-a278-19120dfc8364"/><linearGradient id="a922ab5c-ac6d-48ad-a08f-fc3e1aa98b30" x1="81.21" y1="141.7" x2="66.53" y2="182.91" xlink:href="#babbddb7-4a5c-495b-a278-19120dfc8364"/><radialGradient id="bef0f0f7-49f0-494f-9caa-095e3594066e" cx="36.45" cy="160.23" r="18.81" gradientTransform="matrix(1, 0, 0, 1, 0, 0)" xlink:href="#f5952996-234c-413f-a632-222ea5653e69"/><radialGradient id="e93b80de-9bfb-43d3-9703-eb1aa7458c42" cx="888.1" cy="-7402.87" r="27.1" gradientTransform="matrix(1.6, 0.41, -0.04, 0.17, -1544.18, 1102.02)" gradientUnits="userSpaceOnUse"><stop offset="0" stop-color="#972a74"/><stop offset="0.04" stop-color="#8a266a"/><stop offset="0.19" stop-color="#601b4a"/><stop offset="0.35" stop-color="#3d112f"/><stop offset="0.51" stop-color="#230a1b"/><stop offset="0.67" stop-color="#0f040c"/><stop offset="0.83" stop-color="#040103"/><stop offset="1"/></radialGradient></defs><g class="ede36a10-cbb7-4698-a766-c508ce131f55"><g id="e207fbe6-8924-4730-87dd-fc92d706747f" data-name="Layer 1"><path class="a1f52a44-be17-4989-8abd-cc3f46bd9ca9" d="M375.2,368.75c-30.61,30.6-62.84,41.71-90.5,35-.83-.2-13-3.08-13.78-3.31-27.85-7.88,6.24-19.12-5.23-61.91-23.07-86.12,9-206.72,71.66-269.37,31-31,2.59-59.87,30.47-52.67.78.2,16.88,6,17.65,6.21,27.47,8.16,50,34.29,61.38,76.64C469.93,185.49,437.85,306.1,375.2,368.75Z" transform="translate(-34.67 -14.27)"/><path class="b6f7e868-ced6-47ca-8c41-d9c8c7232a95" d="M436.91,96.74c-11.06-41.28-32.8-67.1-59.33-75.94,21.1,11.88,38.11,35.77,47.47,70.72,23.08,86.12-9,206.72-71.65,269.37-32.62,32.62-67.08,43.05-95.89,33.45,30.88,17.38,70.52,9,107.75-28.23C427.91,303.46,460,182.86,436.91,96.74Z" transform="translate(-34.67 -14.27)"/><ellipse class="b3a6549b-16c4-4049-8ff3-4b738111b92e" cx="318.72" cy="207.73" rx="197.73" ry="114.16" transform="translate(2.29 449.08) rotate(-75.31)"/><ellipse class="bb5e4e10-578d-4d5f-a011-7d832b87fb72" cx="318.72" cy="207.73" rx="188.75" ry="108.97" transform="translate(2.29 449.09) rotate(-75.31)"/><ellipse class="ec4016ad-9d30-4e2a-a4e2-74833cefe473" cx="318.72" cy="207.73" rx="161.78" ry="93.4" transform="translate(2.29 449.09) rotate(-75.31)"/><ellipse class="f9cf8e84-75be-4696-b1a3-d6d1b5813349" cx="318.72" cy="207.73" rx="134.82" ry="77.83" transform="translate(2.29 449.09) rotate(-75.31)"/><ellipse class="a0dc20af-2f20-4456-aa1b-9cfeef755fb4" cx="318.72" cy="207.73" rx="107.86" ry="62.27" transform="translate(2.29 449.08) rotate(-75.31)"/><ellipse class="bcbebaa3-74a4-4502-95fd-b5abf5431dce" cx="318.72" cy="207.73" rx="80.89" ry="46.7" transform="translate(2.29 449.09) rotate(-75.31)"/><ellipse class="ea1859ab-1f86-47c1-9bdd-ad561b5970b7" cx="318.72" cy="207.73" rx="53.93" ry="31.13" transform="translate(2.29 449.09) rotate(-75.31)"/><path class="ab84246e-366a-468c-9e1e-52b1f3590260" d="M227.9,299.57c-19-70.69,7.39-169.68,58.81-221.1a122.36,122.36,0,0,1,25.43-19.86,120,120,0,0,0-27.72,21.13C233,131.16,206.66,230.15,225.6,300.84c15.85,59.16,58.39,79.73,102,54.74C284.8,378.57,243.47,357.69,227.9,299.57Z" transform="translate(-34.67 -14.27)"/><path class="ab84246e-366a-468c-9e1e-52b1f3590260" d="M258.93,268.53c-12.62-47.12,4.93-113.12,39.21-147.4a82.79,82.79,0,0,1,16.13-12.76,80.05,80.05,0,0,0-18.42,14C261.57,156.69,244,222.68,256.64,269.81c10.67,39.81,39.46,53.41,68.81,36C296.91,321.2,269.32,307.31,258.93,268.53Z" transform="translate(-34.67 -14.27)"/><path class="ab84246e-366a-468c-9e1e-52b1f3590260" d="M290,237.5c-6.31-23.57,2.46-56.56,19.61-73.71a41.71,41.71,0,0,1,7.73-6.17,39.12,39.12,0,0,0-10,7.45c-17.14,17.14-25.92,50.14-19.6,73.7,5.37,20,19.95,26.8,34.73,17.8C308.43,263.56,295.07,256.51,290,237.5Z" transform="translate(-34.67 -14.27)"/><ellipse class="fc7c52a5-7b18-4943-a08f-9b780afff7e6" cx="318.72" cy="207.73" rx="26.96" ry="15.57" transform="translate(2.29 449.09) rotate(-75.31)"/><path class="b52a1da5-44c6-4b66-805e-a7ee30a3f115" d="M427.35,99.1c-8-29.76-21.74-51.14-38.89-63.52,16.2,12.57,29.19,33.42,36.85,62,22.1,82.47-8.63,198-68.62,258-38.35,38.34-79.37,44.73-109.75,22.82,30.57,23.71,72.58,17.92,111.79-21.3C418.72,297.06,449.44,181.57,427.35,99.1Z" transform="translate(-34.67 -14.27)"/><path class="e60dd22c-6b9f-4d5e-a702-7f4c25741f8a" d="M396.31,130.14c-5.68-21.2-15.49-36.42-27.7-45.27,11.26,9,20.3,23.73,25.66,43.74,15.78,58.91-6.16,141.4-49,184.25-27.43,27.43-56.77,31.94-78.48,16.2,21.89,17.55,52.22,13.63,80.51-14.67C390.15,271.54,412.09,189.05,396.31,130.14Z" transform="translate(-34.67 -14.27)"/><path class="b32ddf34-c83a-4230-b53e-a1fc52052a89" d="M365.27,161.18c-3.51-13.11-9.64-22.41-17.28-27.64,6.69,5.42,12.05,14.19,15.24,26.11,9.47,35.34-3.69,84.84-29.4,110.55-16.18,16.18-33.47,19.08-46.43,10.2,13.14,10.67,31.42,8.37,48.46-8.67C361.57,246,374.74,196.52,365.27,161.18Z" transform="translate(-34.67 -14.27)"/><path class="fd5da876-d533-4e9b-890f-1e145033c5bf" d="M334.23,192.21c-1.27-4.73-3.57-8-6.42-9.6a17.22,17.22,0,0,1,4.39,8.07c3.15,11.79-1.24,28.28-9.81,36.86-5.12,5.12-10.57,6.22-14.81,3.78,4.42,4.25,10.86,3.73,16.85-2.26C333,220.49,337.39,204,334.23,192.21Z" transform="translate(-34.67 -14.27)"/><polygon class="a3f7d349-2bd1-47d4-a324-ad079f91f9dc" points="226.81 181.46 253.63 189.77 225.71 183.58 226.81 181.46"/><path class="b5e55a01-5ce9-41e9-9038-7ba86c5ea52e" d="M44,139.86l-8-10.44c-4.36-5.7,2.27-13.27,8.5-9.71l65.66,37.47Z" transform="translate(-34.67 -14.27)"/><path class="fc0cc339-bc20-4bcc-8a0a-db56550e1581" d="M45.29,139.32l-8-10.44a6.53,6.53,0,0,1,2.06-9.77,6.58,6.58,0,0,0-3.32,10.31l8,10.44,66.2,17.32-2.81-1.61Z" transform="translate(-34.67 -14.27)"/><path class="a02cca1b-ee0c-42bc-95c8-bae677c151fa" d="M263.76,198.6a.64.64,0,0,1-.59.22s-11.83,1.81-31.19-3.35c-27.66-7.37-31.15-9.49-31.16-9.49-.73-.21.16-.5-.14-1.61a8,8,0,0,1,1.86-7c.81-.81.07-1.56.79-1.37,0,0,4,.05,31.7,7.44,19.42,5.19,28.79,12.9,28.79,12.9a.63.63,0,0,1,.4.5A2,2,0,0,1,263.76,198.6Z" transform="translate(-34.67 -14.27)"/><ellipse class="f34aebfc-a95e-4a20-bb49-b1837c92eb03" cx="202" cy="180.98" rx="5.12" ry="2.95" transform="translate(-58.95 316.21) rotate(-75.31)"/><path class="b3e1bae8-a3da-4218-a353-f283a7a03f71" d="M202.51,184.57a2.45,2.45,0,0,1-2.25.87L39.57,142.28c-.69-.2.15-.48-.13-1.54a7.61,7.61,0,0,1,1.78-6.67c.76-.77.06-1.49.75-1.31L202.76,176a2.45,2.45,0,0,1,1.52,1.89A7.62,7.62,0,0,1,202.51,184.57Z" transform="translate(-34.67 -14.27)"/><path class="a8cc0e0e-8dcd-4935-b343-32a8ae940448" d="M41.73,141.37c-1.55,1.55-3.27,1.08-3.85-1.06a7.64,7.64,0,0,1,1.78-6.67c1.55-1.56,3.27-1.08,3.85,1.05A7.67,7.67,0,0,1,41.73,141.37Z" transform="translate(-34.67 -14.27)"/><path class="bc03c7e2-a395-43ef-9170-3e18dc764b0c" d="M45.87,135,113.09,153,82.53,117c-11.45-13.49-33.47-7-35.72,10.58Z" transform="translate(-34.67 -14.27)"/><path class="bc447b15-419c-48dc-a4ae-bf0aa69de164" d="M46.68,135.49l67.22,18.08-30.56-36c-11.45-13.49-33.47-7-35.72,10.58Z" transform="translate(-34.67 -14.27)"/><path class="fc19c3bd-c145-4623-b40d-cdcdb68a7035" d="M48,129C50.23,111.49,72.25,105,83.7,118.46l29.68,35,.52.14-30.56-36c-11.45-13.49-33.47-7-35.72,10.58l-.94,7.35.46.12Z" transform="translate(-34.67 -14.27)"/><path class="a147be76-450e-4b60-b747-4c30e71054a5" d="M43.56,142.66l-2.71,4.81a17,17,0,0,0,18.51,25l51.05-11.34Z" transform="translate(-34.67 -14.27)"/><path class="ae2c2667-2e8e-4de6-bf41-550b1c13c3bb" d="M44.76,142.78l-2.71,4.81a17,17,0,0,0,18.51,25l51.05-11.34Z" transform="translate(-34.67 -14.27)"/><path class="e8828620-99cf-43a4-801c-7fbabdb4c5bd" d="M61.56,172.31a17,17,0,0,1-18.52-25L45.49,143l-.73-.2-2.71,4.81a17,17,0,0,0,18.51,25l51.05-11.34-.1,0Z" transform="translate(-34.67 -14.27)"/><path class="a95cc72e-6fc9-4ef4-aead-bc5b39f458ec" d="M250.22,191.45c-.67,2.6-20.6-.28-44.51-6.45s-42.77-13.26-42.1-15.86,20.61.28,44.52,6.44S250.9,188.85,250.22,191.45Z" transform="translate(-34.67 -14.27)"/></g></g></svg>