<svg xmlns="http://www.w3.org/2000/svg" xmlns:xlink="http://www.w3.org/1999/xlink" viewBox="0 0 1317.91 720">
	<defs>
		<style>
			.bd406ee7-5d2f-448d-8530-de87ec3abfe1{isolation:isolate;}.b9f5053a-2e65-4768-9d49-ba020f9f30b2{fill:url(#ab879973-cb20-48c2-9082-27467763fdb9);}.a3a97b41-2d24-4b8e-80ee-8161b2502399,.a3dd66c9-b187-4597-8e14-8ab3b4d470a2,.a5f9e749-9aa9-485f-916c-e1896c513ae8,.a914753e-acdf-4f6c-a994-42156a0a4150,.aa2ff3aa-cff0-4606-b4c1-f1821206f095,.ad6b53f2-fa26-4643-95f2-22fddc0e8c0f,.b41b80d3-16a2-4743-b095-ad3c3bba0000,.e59f40aa-e71a-4df1-ae6e-901cf8bd4152,.f035b381-7127-4ce5-83a7-555c3c1a1fc7,.f9a4f7f0-1edc-402c-b026-76bbf90f1dd8,.fdce658d-85fd-4bd1-969a-8e47f60d28fb{fill:#27043d;}.f9a4f7f0-1edc-402c-b026-76bbf90f1dd8,.fdce658d-85fd-4bd1-969a-8e47f60d28fb{opacity:0.6;}.a0fad59c-ef3c-45e6-b447-9d468ca81e06,.a3dd66c9-b187-4597-8e14-8ab3b4d470a2,.a5f9e749-9aa9-485f-916c-e1896c513ae8,.a914753e-acdf-4f6c-a994-42156a0a4150,.aa2ff3aa-cff0-4606-b4c1-f1821206f095,.ad6b53f2-fa26-4643-95f2-22fddc0e8c0f,.b2d60d1c-a999-412c-80d9-9354aad2ec78,.b41b80d3-16a2-4743-b095-ad3c3bba0000,.fdce658d-85fd-4bd1-969a-8e47f60d28fb{mix-blend-mode:screen;}.a5f9e749-9aa9-485f-916c-e1896c513ae8,.a7128198-f801-4ff5-8dec-0659eed35499,.b832bee7-b56a-4ade-a8e9-0edb13e91005{opacity:0.3;}.a3dd66c9-b187-4597-8e14-8ab3b4d470a2,.e59f40aa-e71a-4df1-ae6e-901cf8bd4152{opacity:0.8;}.a3a97b41-2d24-4b8e-80ee-8161b2502399,.ad6b53f2-fa26-4643-95f2-22fddc0e8c0f{opacity:0.4;}.a791f36e-461a-4ad6-9666-dec709a8c3aa,.b2d60d1c-a999-412c-80d9-9354aad2ec78,.b41b80d3-16a2-4743-b095-ad3c3bba0000{opacity:0.2;}.aa2ff3aa-cff0-4606-b4c1-f1821206f095{opacity:0.5;}.ed2d2da8-86df-48cb-b6a1-9e10d5577c76{opacity:0.7;fill:url(#a476b93e-1ad8-450b-9945-fa83734b4865);}.a196900e-fcc1-4ffd-bf4c-ae577b292445,.a7128198-f801-4ff5-8dec-0659eed35499,.ab2fad15-7b06-4530-a9e6-4ba49996ceb0,.ac04830d-f610-40eb-8d49-0231098716f1,.ac8aa2a9-dd5b-4438-851a-5945adf882cc,.b3499b9b-978d-4338-a7a8-22b093047a79,.b832bee7-b56a-4ade-a8e9-0edb13e91005,.baaa0e48-55a3-495c-9ae9-a9290c691573,.e1ac0991-72fe-4fbf-b37a-f3682d8da106,.ed2d2da8-86df-48cb-b6a1-9e10d5577c76,.ed467b8c-b596-4dcf-a8f4-ee4ef758c316,.f06acace-bb2c-4657-ab12-b34a26d12de9,.f21bf1dc-a873-41aa-bb37-c3789b80cd79,.f502e777-ee91-4030-9e78-98e56140b55b,.f6022437-be7e-422e-9748-d5a6eb3c229c,.fabc87f4-60ed-4c57-89b0-4c7f13e0accd{mix-blend-mode:color-dodge;}.b3499b9b-978d-4338-a7a8-22b093047a79,.fabc87f4-60ed-4c57-89b0-4c7f13e0accd{opacity:0.15;}.b3499b9b-978d-4338-a7a8-22b093047a79{fill:url(#aaf08f27-797c-4ffa-8dc4-33bd117b96f0);}.ab2fad15-7b06-4530-a9e6-4ba49996ceb0,.f502e777-ee91-4030-9e78-98e56140b55b,.f56c6690-e76f-4233-a8aa-cb3a47538869{opacity:0.1;}.ab2fad15-7b06-4530-a9e6-4ba49996ceb0{fill:url(#efe2a19c-47c2-4794-980f-9c4679863d8e);}.a7128198-f801-4ff5-8dec-0659eed35499{fill:url(#b12d3047-7eaf-4c6d-9b6a-7749f4825944);}.f502e777-ee91-4030-9e78-98e56140b55b{fill:url(#a4832115-63e8-459a-8be2-787410362328);}.b832bee7-b56a-4ade-a8e9-0edb13e91005{fill:url(#ba0caad3-663f-4915-85d2-94bbc50a4d48);}.fabc87f4-60ed-4c57-89b0-4c7f13e0accd{fill:url(#a07dc621-79fb-40b9-90d5-426eb0b9c353);}.a8d76ad3-fe46-4740-b47b-20bdb4a09259{fill:url(#a9041190-bfef-460d-b42f-9df8e4c717c3);}.e1ac0991-72fe-4fbf-b37a-f3682d8da106{fill:url(#b10f44f1-d227-4a98-8dc1-2cdb9c506c92);}.fcf70d9c-d026-4115-957b-9e64ab75c103{fill:url(#bfa177ff-2f0a-4a56-b78c-6c296d89ce2e);}.e4043d3c-6b77-4295-9cd2-984629afdbaf{fill:url(#abf6c1af-dd88-483a-a978-942b78e0b6cf);}.e69a95f3-5d29-45f0-82e1-008f517ca55c{fill:url(#f9b6391f-43b5-4ab7-9e8f-f982298db937);}.fc6cd511-6812-4604-b4d1-12f3780974b4{fill:url(#ab87d713-ac07-4aea-8ba7-71c400e4be35);}.b88d4f04-20ca-4503-9971-756caa2198a8{fill:url(#e58e392d-e1ef-4d60-9878-6719d534d713);}.a879888a-3edd-4d43-af72-58a04a1a3232{fill:url(#fb6c7b7f-0f60-4757-b5ac-aec3999c0784);}.bfdca557-9363-403d-a84c-47e1cb3c78c6{fill:url(#a330ecee-baee-49a8-acf2-7797a325d4c3);}.a50b7168-5603-4309-ab6a-8d042b1cf52c{fill:#d1d3d4;}.a50b7168-5603-4309-ab6a-8d042b1cf52c,.a791f36e-461a-4ad6-9666-dec709a8c3aa,.a9f55549-4e46-478b-84dc-66018a071be3,.add3a055-fcbf-4c80-a9c8-29e662eb48a6,.ba77b629-1893-45dc-8a8a-43c1e9be48f1,.bbf46b40-24e9-4745-bd1f-a724c3c83e40,.bcfffdb3-3c66-453e-a417-f2348a82e4d8,.e15d85f9-0a00-4d13-a47d-7afaf674dd46,.eac0325e-8f91-460e-bade-d4f643a7c6fd,.f56c6690-e76f-4233-a8aa-cb3a47538869,.f7dd8a84-b967-4229-a6c8-8de4e23f386a,.f991253f-6ccc-4fae-b0d5-ddd93a764c36,.ff2d7dda-5c7a-4b9f-a656-bce5f76ee3df{mix-blend-mode:multiply;}.acd882cd-74d1-46d8-abc0-769d9f6a82c9{fill:url(#ef5d42be-f0a3-4d63-8203-a19a130b0874);}.f21bf1dc-a873-41aa-bb37-c3789b80cd79{fill:url(#acec6343-be81-4638-99db-61c607806d76);}.ed467b8c-b596-4dcf-a8f4-ee4ef758c316{fill:url(#b19e2425-a9b5-4b7d-86aa-1501b74d3f20);}.baaa0e48-55a3-495c-9ae9-a9290c691573{fill:url(#bebcff84-3f2d-4203-be5f-4ca97ff44c34);}.ac8aa2a9-dd5b-4438-851a-5945adf882cc{fill:url(#a3cca149-ea1a-428b-af72-109e0852ae61);}.b87a69bc-6fb1-4058-a627-4d385a97a152{fill:url(#ba323d0f-4a82-42ea-a22f-abe01f6fe94b);}.f4eca319-728f-43dc-8c12-cf3e5db39f13{fill:url(#e170b7e1-76a7-45f8-b867-f0527ac2cdc7);}.f06acace-bb2c-4657-ab12-b34a26d12de9{fill:url(#bae6c206-186e-49cb-b572-f1159fe11852);}.f675b221-7c2f-4bbb-a0f6-7a25269266e5{fill:url(#a818c8f9-09f3-4348-8cb7-86b46247278c);}.ab97344d-60c7-4d6f-be55-02c4b0c0ee2e{fill:url(#a2b76b47-3073-4b4a-b375-8287b8fd64a0);}.fd5bdae0-1363-4f7c-a9c0-b54604903374{fill:url(#a77a7068-eb9b-4ebc-9a0e-1408eb183a37);}.b2aca0d9-a41e-4a6e-92e1-595a3e5dd83c{fill:url(#be8cf3e7-9eaf-448c-80bd-471e4b79b826);}.f56c6690-e76f-4233-a8aa-cb3a47538869{fill:url(#b765316e-6f95-4102-b230-7e84c263b207);}.e15d85f9-0a00-4d13-a47d-7afaf674dd46{opacity:0.11;fill:url(#fe9357f5-de80-499c-96d6-8fba5cf40c38);}.ba77b629-1893-45dc-8a8a-43c1e9be48f1{opacity:0.12;fill:url(#a234085a-f6c3-4254-9fd0-9e90be6d11ac);}.add3a055-fcbf-4c80-a9c8-29e662eb48a6{opacity:0.13;fill:url(#f2fa6edf-6153-431c-8096-83d33b50112b);}.f7dd8a84-b967-4229-a6c8-8de4e23f386a{opacity:0.14;fill:url(#ad68a49c-e0ed-4663-8ae2-c4f4287cc61e);}.a9f55549-4e46-478b-84dc-66018a071be3{opacity:0.15;fill:url(#b698065b-1631-4d4c-acd2-4351ce0707e9);}.bcfffdb3-3c66-453e-a417-f2348a82e4d8{opacity:0.15;fill:url(#fcb2a245-ddb3-496a-9dc3-1dcf54224901);}.f991253f-6ccc-4fae-b0d5-ddd93a764c36{opacity:0.16;fill:url(#bdc9eff3-0035-455e-b293-987e7303ad02);}.ff2d7dda-5c7a-4b9f-a656-bce5f76ee3df{opacity:0.17;fill:url(#baf2b079-185e-42eb-9e17-6734ca3b7f3d);}.bbf46b40-24e9-4745-bd1f-a724c3c83e40{opacity:0.18;fill:url(#f430213d-5d08-4665-aec7-83dc5b1ed618);}.eac0325e-8f91-460e-bade-d4f643a7c6fd{opacity:0.19;fill:url(#b9e6424c-5252-416d-8838-706b91662431);}.a791f36e-461a-4ad6-9666-dec709a8c3aa{fill:#231f20;}.b418beff-ed85-49e3-b115-c680e004f5e5{fill:url(#a367914a-3bf1-4fba-8da9-13e3857b6b98);}.b2cd0e0c-a660-48d4-bc1b-2890c5bdab16{fill:url(#b084df89-29bb-4405-bd12-41d390f9b22a);}.ac04830d-f610-40eb-8d49-0231098716f1{fill:url(#a9d40757-a1ce-4f05-a1cb-b9cde7af8a52);}.a8fba054-0c11-4691-975c-5e32448bcab7{fill:url(#b93a9c65-0c7f-4c26-81f1-71a498da8470);}.bfa1b9a9-bf84-47da-bb5f-5766dc482f03{fill:url(#e859dbe2-b6a4-449a-a3b2-f5883ef720f9);}.f6022437-be7e-422e-9748-d5a6eb3c229c{fill:url(#a3a5b787-a00e-4756-9e93-69e942cd4505);}.a196900e-fcc1-4ffd-bf4c-ae577b292445{fill:url(#ef8766f4-e1ef-4fbf-98cb-bfbbdd065443);@keyframes buttonTransition {
    from {
        r: 5%;
    }
    to {
        r: 25%;
    }
}

.innerCircle {
    animation-duration: 1s;
    animation-iteration-count: infinite;
    animation-name: buttonTransition;
}}
		</style>
		<linearGradient id="ab879973-cb20-48c2-9082-27467763fdb9" x1="1248.46" y1="805.64" x2="50.47" y2="-99.99" gradientUnits="userSpaceOnUse"><stop offset="0.02" stop-color="#005c9a"/><stop offset="0.42" stop-color="#00788d"/><stop offset="1" stop-color="#12054e"/><stop offset="1" stop-color="#003d5d"/></linearGradient><radialGradient id="a476b93e-1ad8-450b-9945-fa83734b4865" cx="4135.95" cy="-369.34" r="47.55" gradientTransform="matrix(2.76, 0, 0, 0.9, -10599.12, 818.04)" gradientUnits="userSpaceOnUse"><stop offset="0" stop-color="#dc3daa"/><stop offset="0.11" stop-color="#b5328c"/><stop offset="0.28" stop-color="#7f2362"/><stop offset="0.45" stop-color="#51173f"/><stop offset="0.61" stop-color="#2e0d23"/><stop offset="0.76" stop-color="#150610"/><stop offset="0.89" stop-color="#050104"/><stop offset="1"/></radialGradient><radialGradient id="aaf08f27-797c-4ffa-8dc4-33bd117b96f0" cx="6590.45" cy="-5983.34" r="47.55" gradientTransform="matrix(1.66, 0, 0, 0.59, -9993.74, 4076.08)" xlink:href="#a476b93e-1ad8-450b-9945-fa83734b4865"/><radialGradient id="efe2a19c-47c2-4794-980f-9c4679863d8e" cx="8630.89" cy="11810.4" r="47.55" gradientTransform="matrix(-1.66, 0, 0, -0.59, 15467.73, 7419.48)" xlink:href="#a476b93e-1ad8-450b-9945-fa83734b4865"/><radialGradient id="b12d3047-7eaf-4c6d-9b6a-7749f4825944" cx="4135.37" cy="13936.32" r="47.55" gradientTransform="matrix(-1.66, 0, 0, -0.59, 7881.02, 8589.87)" xlink:href="#a476b93e-1ad8-450b-9945-fa83734b4865"/><radialGradient id="a4832115-63e8-459a-8be2-787410362328" cx="3897.81" cy="-1118.64" r="47.55" gradientTransform="matrix(1.97, 0, 0, 0.9, -6562.83, 1407.46)" xlink:href="#a476b93e-1ad8-450b-9945-fa83734b4865"/><radialGradient id="ba0caad3-663f-4915-85d2-94bbc50a4d48" cx="2799.41" cy="3571.37" r="47.55" gradientTransform="matrix(0, 1.97, -0.9, 0, 4325.66, -4983.76)" xlink:href="#a476b93e-1ad8-450b-9945-fa83734b4865"/><radialGradient id="a07dc621-79fb-40b9-90d5-426eb0b9c353" cx="2626.58" cy="4185.16" r="47.55" gradientTransform="matrix(0, 1.97, -0.9, 0, 4657.68, -4777.37)" xlink:href="#a476b93e-1ad8-450b-9945-fa83734b4865"/><linearGradient id="a9041190-bfef-460d-b42f-9df8e4c717c3" x1="-5894.1" y1="5133.7" x2="-6133.91" y2="4812.35" gradientTransform="translate(8819.19 1051.86) rotate(45)" gradientUnits="userSpaceOnUse"><stop offset="0.06" stop-color="#0a4a88"/><stop offset="0.24" stop-color="#0a4c88"/><stop offset="0.33" stop-color="#0a5488"/><stop offset="0.39" stop-color="#0a6188"/><stop offset="0.42" stop-color="#0a6888"/><stop offset="0.69" stop-color="#0a6a88"/><stop offset="0.72" stop-color="#0a6d88"/><stop offset="0.81" stop-color="#0a7288"/><stop offset="0.88" stop-color="#0a5e88"/><stop offset="0.94" stop-color="#0a4f88"/><stop offset="1" stop-color="#0a4a88"/></linearGradient><radialGradient id="b10f44f1-d227-4a98-8dc1-2cdb9c506c92" cx="-6020.6" cy="4904.78" r="151.04" gradientTransform="translate(8819.19 1051.86) rotate(45)" gradientUnits="userSpaceOnUse"><stop offset="0" stop-color="#fff"/><stop offset="0.07" stop-color="#d8d8d8"/><stop offset="0.16" stop-color="#a6a6a6"/><stop offset="0.26" stop-color="#797979"/><stop offset="0.37" stop-color="#545454"/><stop offset="0.47" stop-color="#353535"/><stop offset="0.59" stop-color="#1e1e1e"/><stop offset="0.7" stop-color="#0d0d0d"/><stop offset="0.84" stop-color="#030303"/><stop offset="1"/></radialGradient><linearGradient id="bfa177ff-2f0a-4a56-b78c-6c296d89ce2e" x1="-509.94" y1="4981.56" x2="-816.04" y2="5024.06" gradientTransform="matrix(-0.5, 0.86, -0.86, -0.5, 5016.08, 3358.66)" gradientUnits="userSpaceOnUse"><stop offset="0" stop-color="#0a8688"/><stop offset="0.17" stop-color="#0a7b88"/><stop offset="0.49" stop-color="#0a6a88"/><stop offset="1" stop-color="#0a7988"/></linearGradient><radialGradient id="abf6c1af-dd88-483a-a978-942b78e0b6cf" cx="-611.59" cy="720.03" r="154.13" gradientTransform="translate(1635.72 1382.59) rotate(120.31) scale(1 1.5)" gradientUnits="userSpaceOnUse"><stop offset="0" stop-color="#0a8188"/><stop offset="0.41" stop-color="#0a7f88"/><stop offset="0.82" stop-color="#0a7288"/><stop offset="0.9" stop-color="#0a6388"/><stop offset="1" stop-color="#0a4a88"/></radialGradient><linearGradient id="f9b6391f-43b5-4ab7-9e8f-f982298db937" x1="-929.4" y1="5066.92" x2="-279.53" y2="4921.24" gradientTransform="matrix(-0.5, 0.86, -0.86, -0.5, 5016.08, 3358.66)" gradientUnits="userSpaceOnUse"><stop offset="0" stop-color="#d4d1d8"/><stop offset="1" stop-color="#eeebf2"/></linearGradient><radialGradient id="ab87d713-ac07-4aea-8ba7-71c400e4be35" cx="-611.59" cy="720.03" r="110.09" gradientTransform="matrix(-0.5, 0.86, -1.29, -0.76, 1635.72, 1382.59)" gradientUnits="userSpaceOnUse"><stop offset="0" stop-color="#0a6688"/><stop offset="0.4" stop-color="#0a6388"/><stop offset="0.82" stop-color="#0a6d88"/><stop offset="0.91" stop-color="#0a5e88"/><stop offset="1" stop-color="#0a4a88"/></radialGradient><linearGradient id="e58e392d-e1ef-4d60-9878-6719d534d713" x1="-823.44" y1="5043.17" x2="-390.2" y2="4946.05" gradientTransform="translate(5016.08 3358.66) rotate(120.31)" xlink:href="#f9b6391f-43b5-4ab7-9e8f-f982298db937"/><radialGradient id="fb6c7b7f-0f60-4757-b5ac-aec3999c0784" cx="-611.59" cy="720.03" r="66.06" gradientTransform="translate(1635.71 1382.59) rotate(120.31) scale(1 1.5)" gradientUnits="userSpaceOnUse"><stop offset="0" stop-color="#0a4a88"/><stop offset="0.41" stop-color="#0a86b5"/><stop offset="0.54" stop-color="#0a77a9"/><stop offset="0.8" stop-color="#0a4e8b"/><stop offset="0.82" stop-color="#0a4a88"/><stop offset="0.9" stop-color="#0a4a97"/><stop offset="1" stop-color="#0a4ab3"/></radialGradient><linearGradient id="a330ecee-baee-49a8-acf2-7797a325d4c3" x1="-717.48" y1="5019.42" x2="-500.86" y2="4970.86" gradientTransform="translate(5016.07 3358.67) rotate(120.31)" xlink:href="#f9b6391f-43b5-4ab7-9e8f-f982298db937"/><linearGradient id="ef5d42be-f0a3-4d63-8203-a19a130b0874" x1="937.51" y1="311.09" x2="1073.4" y2="308.21" gradientTransform="translate(1054.76 -747.87) rotate(75.31)" gradientUnits="userSpaceOnUse"><stop offset="0.04" stop-color="#0a4a88"/><stop offset="1" stop-color="#0a4a88"/></linearGradient><radialGradient id="acec6343-be81-4638-99db-61c607806d76" cx="-580.79" cy="4995.36" r="141.64" gradientTransform="translate(4976.82 -2790.51) rotate(45)" xlink:href="#b10f44f1-d227-4a98-8dc1-2cdb9c506c92"/><radialGradient id="b19e2425-a9b5-4b7d-86aa-1501b74d3f20" cx="-589.5" cy="4995.51" r="101.16" gradientTransform="translate(4976.82 -2790.51) rotate(45)" xlink:href="#b10f44f1-d227-4a98-8dc1-2cdb9c506c92"/><radialGradient id="bebcff84-3f2d-4203-be5f-4ca97ff44c34" cx="-598.71" cy="4995.57" r="60.85" gradientTransform="translate(4976.82 -2790.51) rotate(45)" xlink:href="#b10f44f1-d227-4a98-8dc1-2cdb9c506c92"/><radialGradient id="a3cca149-ea1a-428b-af72-109e0852ae61" cx="-607.62" cy="4995.67" r="20.43" gradientTransform="translate(4976.82 -2790.51) rotate(45)" xlink:href="#b10f44f1-d227-4a98-8dc1-2cdb9c506c92"/><linearGradient id="ba323d0f-4a82-42ea-a22f-abe01f6fe94b" x1="-647.38" y1="5022.79" x2="-648.57" y2="5020.74" gradientTransform="translate(4986.21 -2790.51) rotate(45)" gradientUnits="userSpaceOnUse"><stop offset="0.04" stop-color="#f7aa90"/><stop offset="0.23" stop-color="#f9b996"/><stop offset="0.61" stop-color="#ffe2a6"/><stop offset="0.63" stop-color="#ffe4a7"/><stop offset="0.87" stop-color="#f7aa90"/></linearGradient><linearGradient id="e170b7e1-76a7-45f8-b867-f0527ac2cdc7" x1="766.46" y1="271.19" x2="765.05" y2="218.46" gradientUnits="userSpaceOnUse"><stop offset="0.04" stop-color="#ffa98c"/><stop offset="0.32" stop-color="#ffb892"/><stop offset="0.86" stop-color="#fee1a3"/><stop offset="1" stop-color="#feeca8"/></linearGradient><radialGradient id="bae6c206-186e-49cb-b572-f1159fe11852" cx="746.53" cy="234.16" r="29.92" gradientTransform="matrix(1, 0, 0, 1, 0, 0)" xlink:href="#b10f44f1-d227-4a98-8dc1-2cdb9c506c92"/><linearGradient id="a818c8f9-09f3-4348-8cb7-86b46247278c" x1="-682.47" y1="5048.95" x2="-688.75" y2="5038.06" gradientTransform="translate(4976.82 -2790.51) rotate(45)" gradientUnits="userSpaceOnUse"><stop offset="0.01" stop-color="#f9b595"/><stop offset="0.13" stop-color="#fbc59c"/><stop offset="0.18" stop-color="#f9ba97"/><stop offset="0.25" stop-color="#f8ae92"/><stop offset="0.33" stop-color="#f7aa90"/><stop offset="0.43" stop-color="#f8b394"/><stop offset="0.59" stop-color="#fccb9d"/><stop offset="0.73" stop-color="#ffe4a7"/><stop offset="0.97" stop-color="#f7aa90"/></linearGradient><linearGradient id="a2b76b47-3073-4b4a-b375-8287b8fd64a0" x1="-716.6" y1="5059.28" x2="-709.34" y2="5059.28" gradientTransform="translate(4903.07 3451.6) rotate(120.31)" xlink:href="#e170b7e1-76a7-45f8-b867-f0527ac2cdc7"/><linearGradient id="a77a7068-eb9b-4ebc-9a0e-1408eb183a37" x1="-782.46" y1="5104.95" x2="-787.48" y2="5096.25" gradientTransform="translate(4976.82 -2790.51) rotate(45)" gradientUnits="userSpaceOnUse"><stop offset="0.04" stop-color="#1e1f21"/><stop offset="0.12" stop-color="#2d2e30"/><stop offset="0.14" stop-color="#323336"/><stop offset="0.27" stop-color="#0e0e0f"/><stop offset="0.35" stop-color="#131415"/><stop offset="0.46" stop-color="#232326"/><stop offset="0.59" stop-color="#3c3d41"/><stop offset="0.73" stop-color="#5e6167"/><stop offset="0.77" stop-color="#696c73"/><stop offset="1" stop-color="#37383c"/></linearGradient><linearGradient id="be8cf3e7-9eaf-448c-80bd-471e4b79b826" x1="727.37" y1="245.16" x2="737.45" y2="236.16" gradientUnits="userSpaceOnUse"><stop offset="0.04" stop-color="#1e1f21"/><stop offset="0.31" stop-color="#2c2e30"/><stop offset="0.84" stop-color="#515359"/><stop offset="1" stop-color="#5d6066"/></linearGradient><linearGradient id="b765316e-6f95-4102-b230-7e84c263b207" x1="1826.74" y1="-448.61" x2="1936.02" y2="-622.29" gradientTransform="matrix(0.98, -0.19, 0.19, 0.98, -772.58, 1196.56)" gradientUnits="userSpaceOnUse"><stop offset="0" stop-color="#fff"/><stop offset="1" stop-color="#4d4d4d"/></linearGradient><linearGradient id="fe9357f5-de80-499c-96d6-8fba5cf40c38" x1="1735.04" y1="-387.82" x2="1840.94" y2="-556.1" gradientTransform="translate(-702.34 1087.79) rotate(-9.9)" gradientUnits="userSpaceOnUse"><stop offset="0" stop-color="#ebebeb"/><stop offset="1" stop-color="#494949"/></linearGradient><linearGradient id="a234085a-f6c3-4254-9fd0-9e90be6d11ac" x1="1645.31" y1="-323.7" x2="1747.71" y2="-486.44" gradientTransform="translate(-632.11 979.01) rotate(-8.92)" gradientUnits="userSpaceOnUse"><stop offset="0" stop-color="#d7d6d6"/><stop offset="1" stop-color="#454545"/></linearGradient><linearGradient id="f2fa6edf-6153-431c-8096-83d33b50112b" x1="1557.71" y1="-256.37" x2="1656.52" y2="-413.4" gradientTransform="translate(-561.87 870.23) rotate(-7.92)" gradientUnits="userSpaceOnUse"><stop offset="0" stop-color="#c3c2c2"/><stop offset="1" stop-color="#424041"/></linearGradient><linearGradient id="ad68a49c-e0ed-4663-8ae2-c4f4287cc61e" x1="1472.41" y1="-185.92" x2="1567.55" y2="-337.11" gradientTransform="translate(-491.64 761.45) rotate(-6.93)" gradientUnits="userSpaceOnUse"><stop offset="0" stop-color="#afaeae"/><stop offset="1" stop-color="#3e3c3d"/></linearGradient><linearGradient id="b698065b-1631-4d4c-acd2-4351ce0707e9" x1="1389.58" y1="-112.46" x2="1480.96" y2="-257.68" gradientTransform="translate(-421.41 652.67) rotate(-5.94)" gradientUnits="userSpaceOnUse"><stop offset="0" stop-color="#9b999a"/><stop offset="1" stop-color="#3a3839"/></linearGradient><linearGradient id="fcb2a245-ddb3-496a-9dc3-1dcf54224901" x1="1309.36" y1="-36.13" x2="1396.91" y2="-175.26" gradientTransform="matrix(0.99, -0.09, 0.09, 0.99, -351.17, 543.89)" gradientUnits="userSpaceOnUse"><stop offset="0" stop-color="#878585"/><stop offset="1" stop-color="#363434"/></linearGradient><linearGradient id="bdc9eff3-0035-455e-b293-987e7303ad02" x1="1231.91" y1="42.95" x2="1315.56" y2="-89.98" gradientTransform="translate(-280.94 435.11) rotate(-3.96)" gradientUnits="userSpaceOnUse"><stop offset="0" stop-color="#737071"/><stop offset="1" stop-color="#323030"/></linearGradient><linearGradient id="baf2b079-185e-42eb-9e17-6734ca3b7f3d" x1="1157.36" y1="124.61" x2="1237.05" y2="-2.02" gradientTransform="translate(-210.7 326.34) rotate(-2.96)" gradientUnits="userSpaceOnUse"><stop offset="0" stop-color="#5f5c5d"/><stop offset="1" stop-color="#2e2c2c"/></linearGradient><linearGradient id="f430213d-5d08-4665-aec7-83dc5b1ed618" x1="1085.82" y1="208.72" x2="1161.5" y2="88.46" gradientTransform="matrix(1, -0.03, 0.03, 1, -140.47, 217.56)" gradientUnits="userSpaceOnUse"><stop offset="0" stop-color="#4b4849"/><stop offset="1" stop-color="#2b2728"/></linearGradient><linearGradient id="b9e6424c-5252-416d-8838-706b91662431" x1="1017.42" y1="295.11" x2="1089.05" y2="181.28" gradientTransform="translate(-70.23 108.78) rotate(-0.99)" gradientUnits="userSpaceOnUse"><stop offset="0" stop-color="#373334"/><stop offset="1" stop-color="#272324"/></linearGradient><linearGradient id="a367914a-3bf1-4fba-8da9-13e3857b6b98" x1="763.39" y1="229.59" x2="753.39" y2="212.31" xlink:href="#e170b7e1-76a7-45f8-b867-f0527ac2cdc7"/><linearGradient id="b084df89-29bb-4405-bd12-41d390f9b22a" x1="-848.95" y1="5117.07" x2="-716.92" y2="5077.53" gradientTransform="translate(4976.82 -2790.51) rotate(45)" xlink:href="#e170b7e1-76a7-45f8-b867-f0527ac2cdc7"/><radialGradient id="a9d40757-a1ce-4f05-a1cb-b9cde7af8a52" cx="754.38" cy="221.86" r="21.58" gradientTransform="matrix(1, 0, 0, 1, 0, 0)" xlink:href="#b10f44f1-d227-4a98-8dc1-2cdb9c506c92"/><linearGradient id="b93a9c65-0c7f-4c26-81f1-71a498da8470" x1="753.88" y1="277.43" x2="762.64" y2="264.71" xlink:href="#e170b7e1-76a7-45f8-b867-f0527ac2cdc7"/><linearGradient id="e859dbe2-b6a4-449a-a3b2-f5883ef720f9" x1="774.48" y1="243.49" x2="759.79" y2="284.7" xlink:href="#e170b7e1-76a7-45f8-b867-f0527ac2cdc7"/><radialGradient id="a3a5b787-a00e-4756-9e93-69e942cd4505" cx="729.71" cy="262.02" r="18.81" gradientTransform="matrix(1, 0, 0, 1, 0, 0)" xlink:href="#b10f44f1-d227-4a98-8dc1-2cdb9c506c92"/><radialGradient id="ef8766f4-e1ef-4fbf-98cb-bfbbdd065443" cx="1547.89" cy="-7413.6" r="27.1" gradientTransform="matrix(1.6, 0.41, -0.04, 0.17, -1905.94, 934.03)" gradientUnits="userSpaceOnUse"><stop offset="0" stop-color="#972a74"/><stop offset="0.04" stop-color="#8a266a"/><stop offset="0.19" stop-color="#601b4a"/><stop offset="0.35" stop-color="#3d112f"/><stop offset="0.51" stop-color="#230a1b"/><stop offset="0.67" stop-color="#0f040c"/><stop offset="0.83" stop-color="#040103"/><stop offset="1"/></radialGradient></defs><g class="bd406ee7-5d2f-448d-8530-de87ec3abfe1"><g id="a264c5cd-2a78-49cd-82e5-8f4884747e22" data-name="background-banner"><rect class="b9f5053a-2e65-4768-9d49-ba020f9f30b2" width="1317.91" height="720"/><path class="fdce658d-85fd-4bd1-969a-8e47f60d28fb" d="M991.1,590c-56.38,0-109.47-12.72-149.48-35.82s-62.22-53.95-62.22-86.68c0-32.44,21.77-62.88,61.3-85.7s91.88-35.28,147.76-35.28c56.39,0,109.47,12.72,149.48,35.82s62.22,53.95,62.22,86.68c0,32.44-21.76,62.88-61.29,85.7S1047,590,991.1,590ZM988.46,347.8c-55.65,0-107.89,12.47-147.1,35.11s-60.63,52.6-60.63,84.55c0,32.24,21.86,62.62,61.56,85.53S935,588.64,991.1,588.64c55.65,0,107.89-12.47,147.11-35.11s60.63-52.6,60.63-84.55c0-32.24-21.87-62.61-61.56-85.53S1044.62,347.8,988.46,347.8Z" transform="translate(9.39)"/><path class="a5f9e749-9aa9-485f-916c-e1896c513ae8" d="M991,585.62c-54.16,0-105.17-12.23-143.63-34.43-38.69-22.34-60-52.06-60-83.7,0-31.36,21-60.75,59.11-82.75,37.88-21.87,88.31-33.92,142-33.92,54.17,0,105.18,12.23,143.64,34.43,38.68,22.34,60,52.06,60,83.7,0,31.36-21,60.75-59.1,82.75C1095.16,573.57,1044.73,585.62,991,585.62Zm-2.52-232.14c-53.23,0-103.19,11.92-140.67,33.56-37.26,21.51-57.78,50.08-57.78,80.45,0,30.65,20.83,59.55,58.67,81.4C886.8,570.86,937.34,583,991,583c53.23,0,103.19-11.92,140.68-33.56,37.25-21.51,57.77-50.08,57.77-80.45,0-30.65-20.83-59.55-58.66-81.4C1092.77,365.58,1042.23,353.48,988.52,353.48Z" transform="translate(9.39)"/><g class="a0fad59c-ef3c-45e6-b447-9d468ca81e06"><path class="e59f40aa-e71a-4df1-ae6e-901cf8bd4152" d="M913.32,512.37c-42.49-24.54-42.71-64.19-.48-88.57a113.87,113.87,0,0,1,13.2-6.48L922,414a123.46,123.46,0,0,0-14.13,6.92c-44.91,25.93-44.68,68.25.51,94.35a137.53,137.53,0,0,0,31.49,12.93l2.95-3.68A128.84,128.84,0,0,1,913.32,512.37Z" transform="translate(9.39)"/><path class="f9a4f7f0-1edc-402c-b026-76bbf90f1dd8" d="M1097.64,462l7-.34c-2.61-14.5-13.42-28.63-32.38-39.86l-5,2.89C1085,435.23,1095.17,448.44,1097.64,462Z" transform="translate(9.39)"/><path class="e59f40aa-e71a-4df1-ae6e-901cf8bd4152" d="M1065.06,423.42l5-2.88c-40-22.45-101.11-25-145.52-7.6l4.07,3.35C970.29,400,1027.48,402.36,1065.06,423.42Z" transform="translate(9.39)"/><path class="a3a97b41-2d24-4b8e-80ee-8161b2502399" d="M1104.91,463.47l-7,.34c2.32,17.53-8.05,35.47-31.18,48.83-13.54,7.82-29.8,13.1-47,15.88l1.84,3.92c18.42-3,35.79-8.58,50.22-16.91C1096.38,501.31,1107.4,482.17,1104.91,463.47Z" transform="translate(9.39)"/><path class="f9a4f7f0-1edc-402c-b026-76bbf90f1dd8" d="M945.62,525.26l-3,3.68a196.3,196.3,0,0,0,75.84,4l-1.83-3.92A183.73,183.73,0,0,1,945.62,525.26Z" transform="translate(9.39)"/></g><path class="ad6b53f2-fa26-4643-95f2-22fddc0e8c0f" d="M987.75,391.29c-64.32.33-117.65,27.12-129,62.44L871,455c10.31-32,58.58-56.21,116.8-56.55ZM870.07,453.56l-9.5-1c12.29-34.28,64.67-59.28,125.86-59.95l0,4.5C929.85,397.82,881.3,421.38,870.07,453.56Z" transform="translate(9.39)"/><path class="fdce658d-85fd-4bd1-969a-8e47f60d28fb" d="M990.85,391.3l0,7.15c28.39.25,54.48,6.16,75,15.87l7.94-5.46C1051.14,398.1,1022.27,391.55,990.85,391.3Zm74.93,21.5c-21.14-9.86-46.53-15.26-73.57-15.66l0-4.5c28.59.4,56.48,6.21,79,16.44Z" transform="translate(9.39)"/><path class="a3dd66c9-b187-4597-8e14-8ab3b4d470a2" d="M1076.2,410l-7.93,5.47c25.82,12.85,42.28,31.82,42.39,52.94.07,12.38-5.51,24-15.29,34.08l10.75,3.6c10.83-11.13,17-24,16.94-37.66C1122.93,445.14,1104.74,424.2,1076.2,410Zm29.54,94.56-8-2.67c9.38-10.25,14.29-21.79,14.23-33.49-.11-20.29-15.07-39.56-41.13-53.1l5.45-3.76c28.76,14.48,45.3,35.19,45.42,56.9C1121.8,481.05,1116.27,493.53,1105.74,504.58Z" transform="translate(9.39)"/><path class="a914753e-acdf-4f6c-a994-42156a0a4150" d="M1030,534.16A201.5,201.5,0,0,1,990.55,538h-.38c-66.65-.12-121-31.52-121.25-70a41.28,41.28,0,0,1,1.53-11.23l-12.21-1.27A45.23,45.23,0,0,0,856.53,468c.23,42.43,60.2,77,133.68,77.18h.42a221.46,221.46,0,0,0,43.61-4.26Zm-39.76,9.66c-72.75-.13-132.13-34.16-132.36-75.86a44.56,44.56,0,0,1,1.38-11l9.55,1A42.49,42.49,0,0,0,867.6,468c.21,39.21,55.2,71.2,122.57,71.32h.38a203,203,0,0,0,38.78-3.68l2.75,4.32a220.17,220.17,0,0,1-41.45,3.86Z" transform="translate(9.39)"/><path class="fdce658d-85fd-4bd1-969a-8e47f60d28fb" d="M1093.83,504.06c-13.84,13.42-35.3,23.92-60.95,29.49l4.27,6.74c28.4-6.15,52.15-17.77,67.43-32.64ZM1035,534.44c24.48-5.6,45.4-15.8,59.16-28.87l7.89,2.64c-15.06,13.9-37.76,24.7-64.28,30.58Z" transform="translate(9.39)"/><path class="b41b80d3-16a2-4743-b095-ad3c3bba0000" d="M1042.21,383.22l11.41-20.86c-2.86-.58-5.68-1.24-8.57-1.74l-11.84,20.81C1036.24,381.94,1039.22,382.59,1042.21,383.22Zm-141,10.09-22.57-17.69c-2.47,1-4.89,2-7.29,3.09l22.22,17.83C896.05,395.42,898.58,394.33,901.18,393.31Zm156.17-6.41,15.13-20c-2.74-.75-5.45-1.54-8.23-2.21l-15.53,19.93C1051.65,385.27,1054.49,386.09,1057.35,386.9Zm56,26.2c2,1.46,3.87,2.93,5.65,4.43l30.5-12.92c-1.73-1.43-3.55-2.83-5.4-4.22Zm-10.74-7.18c2.21,1.33,4.35,2.69,6.39,4.07l28-14.69q-3-2-6.09-3.89Zm13.5-22.66-25.46,16.14c2.41,1.18,4.76,2.41,7.07,3.69l25.13-16.31C1120.62,385.57,1118.37,384.39,1116.09,383.26Zm-170.67-2-12.07-20.86c-2.88.5-5.7,1.14-8.54,1.72L936.43,383C939.42,382.41,942.39,381.77,945.42,381.27Zm214.85,33.35c-1.45-1.52-3.06-3-4.64-4.51l-32.91,10.79c1.68,1.56,3.35,3.12,4.86,4.73ZM929.94,384.35l-15.74-20c-2.78.66-5.48,1.44-8.21,2.18l15.34,20.1C924.19,385.86,927,385,929.94,384.35Zm96.55-3.88,7.57-21.45c-3-.41-5.87-.86-8.84-1.19l-8,21.44C1020.33,379.6,1023.41,380,1026.49,380.47Zm-111.34,7.92-19.27-18.94c-2.63.83-5.2,1.75-7.78,2.65L907,391.17C909.68,390.21,912.37,389.25,915.15,388.39Zm95.23-9.71,3.63-21.81c-3-.22-6-.46-9-.6l-4.08,21.8C1004.09,378.21,1007.24,378.43,1010.38,378.68ZM977.65,378l-4.3-21.82c-3,.13-6,.36-9,.57l3.88,21.83C971.36,378.37,974.5,378.15,977.65,378Zm-16.26,1.13-8.24-21.46c-3,.31-5.88.76-8.82,1.16l7.79,21.48C955.2,379.91,958.28,379.48,961.39,379.16ZM1100,376l-22.38,17.61c2.6,1,5.15,2.13,7.67,3.26l22-17.76C1104.86,378.07,1102.43,377,1100,376Zm46.35,95.23,38-.06c.06-1.75,0-3.49,0-5.23l-38-.2A50.27,50.27,0,0,1,1146.31,471.25Zm-15.24,36.49,34.8,8.86c1.29-1.58,2.64-3.14,3.79-4.74L1135,502.77C1133.86,504.45,1132.44,506.09,1131.07,507.74Zm-7.83,8.29,33,10.9c1.57-1.49,3.15-3,4.59-4.49l-32.8-11.13C1126.56,512.91,1124.9,514.47,1123.24,516Zm-9.31,7.76,30.9,12.82c1.82-1.38,3.63-2.78,5.34-4.2l-30.63-13C1117.77,520.87,1115.87,522.34,1113.93,523.79ZM985.52,558.57l.34,21.94c3,0,6,0,9.06,0l.11-21.93C991.85,558.64,988.69,558.63,985.52,558.57ZM833.26,465.19l-38,.06c-.06,1.75,0,3.49,0,5.23l38,.2A50.26,50.26,0,0,1,833.26,465.19Zm160.79-87.32-.35-21.94c-3,0-6-.05-9.06,0l-.1,21.93C987.72,377.8,990.88,377.81,994.05,377.87Zm149.81,74.51,37.13-4.62c-.57-1.71-1.36-3.4-2.07-5.1L1141.77,447C1142.53,448.81,1143.28,450.58,1143.86,452.38Zm2.07,9.4,37.77-2.35c-.26-1.74-.66-3.47-1.06-5.2l-37.77,2.1C1145.3,458.14,1145.68,460,1145.93,461.78Zm-11.26-27.59,34.52-9c-1.16-1.61-2.53-3.17-3.84-4.75l-34.71,8.73C1132,430.86,1133.47,432.5,1134.67,434.19Zm5.44,9,36.05-6.84c-.87-1.67-2-3.3-3-4.94L1137,438C1138.09,439.68,1139.22,441.4,1140.11,443.15ZM1142,490l37.2,4.5c.69-1.69,1.47-3.38,2-5.09L1144,484.61C1143.48,486.41,1142.74,488.19,1142,490Zm3-9.29,37.8,2.24c.37-1.74.76-3.46,1-5.2L1146,475.22A53.76,53.76,0,0,1,1145,480.67ZM1137.35,499l36.2,6.72c1-1.65,2.11-3.27,3-4.94l-36.13-7C1139.51,495.58,1138.4,497.3,1137.35,499Zm-54.73-129.23-19.06,18.87c2.78.87,5.49,1.84,8.19,2.81l18.68-19C1087.84,371.55,1085.26,370.63,1082.62,369.79ZM881.87,533.35l-25.13,16.31c2.21,1.21,4.45,2.39,6.74,3.52L888.94,537C886.53,535.86,884.18,534.62,881.87,533.35Zm120,25.06,4.31,21.82c3-.13,6-.36,9-.57l-3.87-21.83C1008.21,558.07,1005.07,558.28,1001.91,558.41Zm-64.55-5.19L926,574.08c2.85.58,5.68,1.24,8.57,1.75L946.36,555C943.33,554.49,940.35,553.84,937.36,553.22Zm31.83,4.53-3.63,21.82c3,.22,6,.46,9,.6l4.07-21.8C975.47,558.23,972.33,558,969.19,557.75Zm-74.87-18.2-22,17.76c2.4,1.06,4.83,2.12,7.31,3.11L902,542.81C899.39,541.78,896.84,540.68,894.32,539.55Zm13.5,5.42-18.68,19c2.59.92,5.17,1.84,7.81,2.68L916,547.78C913.23,546.91,910.52,545.94,907.82,545Zm14.39,4.57-15.12,20.05c2.74.75,5.45,1.54,8.23,2.21l15.53-19.93C927.92,551.17,925.08,550.34,922.21,549.54ZM953.07,556l-7.56,21.46c3,.41,5.87.87,8.84,1.19l8-21.44C959.24,556.84,956.16,556.41,953.07,556Zm138.31-18.56L1117,553.64q3.4-1.7,6.7-3.49l-25.3-16.41Q1095,535.65,1091.38,537.4Zm-13,5.73L1101,560.82c2.47-1,4.88-2,7.28-3.09L1086,539.9C1083.52,541,1081,542.11,1078.39,543.13Zm-60.21,14.14,8.24,21.47c3-.31,5.88-.76,8.82-1.16l-7.79-21.48C1024.37,556.53,1021.29,557,1018.18,557.27Zm85.09-26.34,28.41,14.61c2.08-1.27,4.1-2.55,6.06-3.87l-28.12-14.8C1107.59,528.26,1105.46,529.61,1103.27,530.93Zm-38.85,17.12L1083.69,567c2.63-.83,5.2-1.75,7.78-2.65l-18.88-19.07C1069.89,546.23,1067.19,547.19,1064.42,548.05Zm-30.27,7.12L1046.22,576c2.88-.49,5.7-1.14,8.54-1.71l-11.63-20.91C1040.15,554,1037.18,554.66,1034.15,555.17Zm15.48-3.09,15.74,20c2.78-.67,5.48-1.45,8.21-2.19l-15.35-20.1C1055.38,550.58,1052.54,551.4,1049.63,552.08Zm-213.92-68-37.13,4.62c.56,1.71,1.36,3.4,2.06,5.1l37.17-4.37A56.94,56.94,0,0,1,835.71,484.06Zm6.51-46.64L806,430.71c-1,1.64-2.11,3.26-3,4.93l36.13,7C840.06,440.86,841.17,439.14,842.22,437.42Zm-4.65,9.05L800.36,442c-.68,1.69-1.46,3.38-2,5.09l37.18,4.76C836.09,450,836.83,448.26,837.57,446.47ZM848.5,428.7l-34.81-8.86c-1.28,1.58-2.64,3.14-3.79,4.74l34.63,9.09C845.71,432,847.13,430.35,848.5,428.7Zm17.13-16.05-30.89-12.82c-1.83,1.38-3.64,2.78-5.34,4.2l30.63,13C861.8,415.56,863.69,414.1,865.63,412.65Zm-9.3,7.76-33-10.9c-1.57,1.49-3.15,3-4.59,4.5l32.81,11.12C853,423.53,854.67,422,856.33,420.41ZM842.62,541.14c2,1.32,4,2.62,6.1,3.89L877,530.52c-2.21-1.33-4.35-2.69-6.39-4.08Zm-8-85.37-37.8-2.24c-.37,1.73-.76,3.46-1,5.2l37.79,2.49A54.32,54.32,0,0,1,834.57,455.77ZM876.3,405.5l-28.42-14.6c-2.07,1.26-4.1,2.55-6,3.86L870,409.56Q873,407.49,876.3,405.5Zm-42.66,69.16L795.87,477c.26,1.74.67,3.47,1,5.2l37.78-2.1A54.57,54.57,0,0,1,833.64,474.66ZM819.3,521.82c1.45,1.52,3.05,3,4.63,4.51l32.92-10.78c-1.68-1.57-3.36-3.13-4.86-4.74Zm10.79,10c1.72,1.43,3.54,2.83,5.39,4.22l30.76-12.71c-2-1.46-3.87-2.93-5.66-4.43Zm14.81-29.58-34.53,9c1.17,1.61,2.54,3.17,3.84,4.75l34.72-8.73C847.54,505.58,846.11,503.93,844.9,502.25Zm-5.44-9-36.05,6.84c.86,1.67,2,3.3,3,4.95l36.14-6.59C841.48,496.76,840.35,495,839.46,493.29ZM888.19,399,862.56,382.8q-3.42,1.69-6.7,3.49l25.3,16.41Q884.61,400.8,888.19,399Z" transform="translate(9.39)"/><path class="aa2ff3aa-cff0-4606-b4c1-f1821206f095" d="M1113.33,413.1c2,1.46,3.87,2.93,5.65,4.43l30.5-12.92c-1.73-1.43-3.55-2.83-5.4-4.22ZM915.15,388.39l-19.27-18.94c-2.63.83-5.2,1.75-7.78,2.65L907,391.17C909.68,390.21,912.37,389.25,915.15,388.39Zm95.23-9.71,3.63-21.81c-3-.22-6-.46-9-.6l-4.08,21.8C1004.09,378.21,1007.24,378.43,1010.38,378.68ZM977.65,378l-4.3-21.82c-3,.13-6,.36-9,.57l3.88,21.83C971.36,378.37,974.5,378.15,977.65,378ZM1100,376l-22.38,17.61c2.6,1,5.15,2.13,7.67,3.26l22-17.76C1104.86,378.07,1102.43,377,1100,376Zm14,147.77,30.9,12.82c1.82-1.38,3.63-2.78,5.34-4.2l-30.63-13C1117.77,520.87,1115.87,522.34,1113.93,523.79ZM985.52,558.57l.34,21.94c3,0,6,0,9.06,0l.11-21.93C991.85,558.64,988.69,558.63,985.52,558.57ZM833.26,465.19l-38,.06c-.06,1.75,0,3.49,0,5.23l38,.2A50.26,50.26,0,0,1,833.26,465.19Zm310.6-12.81,37.13-4.62c-.57-1.71-1.36-3.4-2.07-5.1L1141.77,447C1142.53,448.81,1143.28,450.58,1143.86,452.38ZM1142,490l37.2,4.5c.69-1.69,1.47-3.38,2-5.09L1144,484.61C1143.48,486.41,1142.74,488.19,1142,490ZM922.21,549.54l-15.12,20.05c2.74.75,5.45,1.54,8.23,2.21l15.53-19.93C927.92,551.17,925.08,550.34,922.21,549.54Zm142.21-1.49L1083.69,567c2.63-.83,5.2-1.75,7.78-2.65l-18.88-19.07C1069.89,546.23,1067.19,547.19,1064.42,548.05Zm-228.71-64-37.13,4.62c.56,1.71,1.36,3.4,2.06,5.1l37.17-4.37A56.94,56.94,0,0,1,835.71,484.06Zm29.92-71.41-30.89-12.82c-1.83,1.38-3.64,2.78-5.34,4.2l30.63,13C861.8,415.56,863.69,414.1,865.63,412.65ZM830.09,531.83c1.72,1.43,3.54,2.83,5.39,4.22l30.76-12.71c-2-1.46-3.87-2.93-5.66-4.43Z" transform="translate(9.39)"/><path class="a5f9e749-9aa9-485f-916c-e1896c513ae8" d="M901.18,393.31l-22.57-17.69c-2.47,1-4.89,2-7.29,3.09l22.22,17.83C896.05,395.42,898.58,394.33,901.18,393.31Zm156.17-6.41,15.13-20c-2.74-.75-5.45-1.54-8.23-2.21l-15.53,19.93C1051.65,385.27,1054.49,386.09,1057.35,386.9Zm58.74-3.64-25.46,16.14c2.41,1.18,4.76,2.41,7.07,3.69l25.13-16.31C1120.62,385.57,1118.37,384.39,1116.09,383.26Zm-186.15,1.09-15.74-20c-2.78.66-5.48,1.44-8.21,2.18l15.34,20.1C924.19,385.86,927,385,929.94,384.35Zm96.55-3.88,7.57-21.45c-3-.41-5.87-.86-8.84-1.19l-8,21.44C1020.33,379.6,1023.41,380,1026.49,380.47ZM1123.24,516l33,10.9c1.57-1.49,3.15-3,4.59-4.49l-32.8-11.13C1126.56,512.91,1124.9,514.47,1123.24,516Zm22.69-54.25,37.77-2.35c-.26-1.74-.66-3.47-1.06-5.2l-37.77,2.1C1145.3,458.14,1145.68,460,1145.93,461.78Zm-11.26-27.59,34.52-9c-1.16-1.61-2.53-3.17-3.84-4.75l-34.71,8.73C1132,430.86,1133.47,432.5,1134.67,434.19Zm5.44,9,36.05-6.84c-.87-1.67-2-3.3-3-4.94L1137,438C1138.09,439.68,1139.22,441.4,1140.11,443.15ZM1137.35,499l36.2,6.72c1-1.65,2.11-3.27,3-4.94l-36.13-7C1139.51,495.58,1138.4,497.3,1137.35,499ZM969.19,557.75l-3.63,21.82c3,.22,6,.46,9,.6l4.07-21.8C975.47,558.23,972.33,558,969.19,557.75Zm-74.87-18.2-22,17.76c2.4,1.06,4.83,2.12,7.31,3.11L902,542.81C899.39,541.78,896.84,540.68,894.32,539.55ZM953.07,556l-7.56,21.46c3,.41,5.87.87,8.84,1.19l8-21.44C959.24,556.84,956.16,556.41,953.07,556Zm125.32-12.83L1101,560.82c2.47-1,4.88-2,7.28-3.09L1086,539.9C1083.52,541,1081,542.11,1078.39,543.13Zm-44.24,12L1046.22,576c2.88-.49,5.7-1.14,8.54-1.71l-11.63-20.91C1040.15,554,1037.18,554.66,1034.15,555.17ZM835.71,484.06l-37.13,4.62c.56,1.71,1.36,3.4,2.06,5.1l37.17-4.37A56.94,56.94,0,0,1,835.71,484.06Zm1.86-37.59L800.36,442c-.68,1.69-1.46,3.38-2,5.09l37.18,4.76C836.09,450,836.83,448.26,837.57,446.47Zm28.06-33.82-30.89-12.82c-1.83,1.38-3.64,2.78-5.34,4.2l30.63,13C861.8,415.56,863.69,414.1,865.63,412.65Zm-20.73,89.6-34.53,9c1.17,1.61,2.54,3.17,3.84,4.75l34.72-8.73C847.54,505.58,846.11,503.93,844.9,502.25Z" transform="translate(9.39)"/><path class="b41b80d3-16a2-4743-b095-ad3c3bba0000" d="M1044.08,329.84c-2.58-.35-5.13-.81-7.73-1.11l-5.75,15.39c2.71.3,5.4.65,8.09,1ZM1032.44,343l4.79-12.82c1.16.15,2.33.33,3.47.5l1.59.24-4.49,12.75C1035.92,343.42,1034.15,343.2,1032.44,343Zm36.43-9c-2.51-.5-5-1.07-7.51-1.53l-8.48,14.91c2.63.46,5.26,1,7.87,1.48ZM1055,346.36l7.09-12.45c1.23.24,2.46.5,3.66.75l1.14.24-6.8,12.43Q1057.56,346.84,1055,346.36Zm66.34,21.21L1137,354.92c-2.12-.93-4.25-1.85-6.42-2.73l-16,12.55C1116.87,365.66,1119.09,366.6,1121.3,367.57Zm9.49-13.86c1.23.51,2.46,1,3.66,1.55L1121.09,366c-1.34-.58-2.62-1.13-3.87-1.65Zm-112.1-26.5c-2.63-.18-5.25-.42-7.89-.56l-2.92,15.62q4.13.21,8.22.51ZM1009.46,341l2.43-13c1.34.08,2.68.19,4,.29l1.28.1L1015,341.37C1013.21,341.24,1011.38,341.13,1009.46,341Zm106.13,5.54c-2.28-.79-4.54-1.6-6.86-2.34l-13.61,13.47c2.41.77,4.8,1.58,7.16,2.41Zm-18,10.54,11.48-11.37c1.37.45,2.75.93,4.09,1.39l-11.25,11.45C1100.44,358.06,1099,357.58,1097.61,357.11Zm-4.81-17.55c-2.41-.65-4.79-1.34-7.22-1.94l-11.11,14.26q3.79.93,7.56,1.95Zm-16,11.52,9.32-12c1.32.33,2.64.7,3.93,1.06l.54.14-9,12C1080,351.9,1078.41,351.5,1076.77,351.08ZM970.32,342.2l-3.09-15.63c-2.64.13-5.26.36-7.89.54l2.76,15.57Q966.21,342.4,970.32,342.2Zm-8.24-14c1.33-.1,2.7-.2,4.07-.28l2.57,13c-1.91.1-3.73.21-5.52.33l-2.29-12.95Zm-78.83,29.08-13.76-13.53c-2.31.74-4.56,1.54-6.83,2.32l13.45,13.59C878.47,358.88,880.84,358.08,883.25,357.32Zm-14.12-12,11.62,11.43c-1.39.45-2.81.93-4.29,1.44l-11.38-11.49C866.41,346.22,867.77,345.75,869.13,345.3Zm34.71,6.27-11.27-14.3c-2.43.59-4.8,1.27-7.2,1.91l10.93,14.31C898.79,352.82,901.31,352.19,903.84,351.57ZM888,339.84c1.32-.36,2.67-.73,4-1.08l9.46,12L896.81,352l-9.18-12Zm-24.2,24.45-16.1-12.61c-2.16.87-4.28,1.79-6.39,2.71l15.83,12.7C859.37,366.13,861.58,365.2,863.83,364.29ZM847.52,353.2l13.69,10.73c-1.23.51-2.5,1.05-3.83,1.63l-13.49-10.83C845.07,354.22,846.29,353.71,847.52,353.2Zm77.86-6.09-8.65-14.94c-2.52.44-5,1-7.49,1.5l8.28,14.89C920.13,348.05,922.75,347.56,925.38,347.11Zm-12.91-12.74c1.17-.25,2.37-.5,3.58-.73l7.23,12.49c-1.71.3-3.41.62-5.06.94l-6.94-12.45Zm226.41,41.77,17.9-11.63q-2.92-1.58-5.91-3.09l-18.15,11.51Q1135.84,374.49,1138.88,376.14ZM1150.94,363l3.23,1.67-15.36,10-3.41-1.79ZM947.62,344l-5.92-15.41c-2.59.29-5.13.74-7.71,1.08L939.54,345C942.23,344.6,944.92,344.26,947.62,344ZM937.36,330.5c1.14-.17,2.31-.35,3.47-.5l4.93,12.84c-1.7.2-3.46.41-5.33.66l-4.63-12.77Zm55.87,11.3L993,326.12c-1.6,0-3.19,0-4.78,0H985L985,341.79l3.45,0C990,341.77,991.63,341.78,993.23,341.8Zm-6.87-14.37h1.85l3.47,0,.2,13-3.46,0H986.3Zm-140.55,45-18.27-11.57c-2,1-3.94,2-5.88,3.06l18,11.69C841.7,374.51,843.74,373.44,845.81,372.41Zm-18.35-10.05,15.66,9.92c-1.12.58-2.25,1.17-3.37,1.77l-15.48-10C825.37,363.43,826.43,362.89,827.46,362.36Zm361,159.83,24.78,6.31c1.11-1.38,2.3-2.75,3.32-4.15l-24.78-6.51C1190.76,519.3,1189.66,520.75,1188.5,522.19Zm25.82,2.93c-.32.41-.65.81-1,1.21l-.56.67-22-5.59c.51-.66,1-1.35,1.55-2.06ZM1197,509.94l25.78,4.78c.85-1.44,1.84-2.87,2.61-4.32l-25.87-5C1198.77,506.92,1197.93,508.44,1197,509.94Zm26.31,1.41-.63,1-.56.9-23-4.27c.39-.69.77-1.38,1.14-2.08Zm-20.06-14.12,26.53,3.2c.58-1.49,1.36-2.95,1.86-4.45L1205,492.56Q1204.22,494.9,1203.29,497.23Zm2.61-3.21,23.92,3.06c-.13.32-.28.64-.43,1s-.28.63-.41.94l-23.83-2.88C1205.42,495.39,1205.67,494.7,1205.9,494Zm-28.15,39.83,23.53,7.77c1.36-1.31,2.74-2.62,4-4l-23.43-7.94C1180.55,531.12,1179.17,532.49,1177.75,533.85Zm25.11,4.4-1.71,1.65-.21.2-20.69-6.82c.69-.69,1.35-1.36,2-2Zm4.36-54.05,27,1.59c.32-1.51.72-3,.94-4.55l-27.08-1.78C1207.82,481,1207.55,482.62,1207.22,484.2Zm2-3.34,24.39,1.61c-.11.49-.22,1-.34,1.51l-.09.42L1208.82,483Q1209,481.94,1209.18,480.86Zm-59,74,20.24,10.41q2.71-1.68,5.32-3.4l-20-10.54C1153.94,552.54,1152.1,553.71,1150.22,554.88Zm22.94,7.14-2.76,1.74-17.5-9c1-.62,2-1.25,2.91-1.87Zm-8.22-17.24,22,9.14c1.59-1.22,3.18-2.44,4.69-3.69l-21.85-9.29C1168.23,542.24,1166.6,543.52,1164.94,544.78Zm24.14,5.81-2.33,1.81-19.19-8c.86-.67,1.68-1.32,2.45-1.95Zm-34.25-164.9,19.93-10.47c-1.74-1.15-3.53-2.29-5.35-3.42l-20.13,10.34C1151.17,383.31,1153,384.49,1154.83,385.69Zm17.31-10.59-17.23,9-2.94-1.9,17.38-8.92C1170.34,373.94,1171.26,374.53,1172.14,375.1Zm36.63,95.9,27.16,0q0-2.29,0-4.59l-27.15-.14C1208.81,467.82,1208.81,469.41,1208.77,471Zm25.84-3.31c0,.66,0,1.3,0,1.94l-24.5,0c0-.7,0-1.4,0-2.1Zm-53.4-60.29,23.34-7.86c-1.29-1.33-2.69-2.64-4.06-4L1177,403.27Q1179.2,405.31,1181.21,407.4Zm18.93-10.31.31.3,1.65,1.58-20.52,6.91c-.66-.67-1.33-1.35-2-2Zm-31.13-.94,21.74-9.22c-1.52-1.25-3.12-2.48-4.73-3.7l-21.91,9.06C1165.79,393.56,1167.43,394.85,1169,396.15Zm19.18-9.57-19,8c-.79-.64-1.61-1.29-2.49-2l19.08-7.89C1186.6,385.34,1187.4,386,1188.19,386.58Zm3.1,32.75,24.71-6.42c-1-1.4-2.24-2.77-3.37-4.17L1187.91,415C1189.09,416.41,1190.21,417.86,1191.29,419.33Zm21.41-8.41,1,1.22-21.89,5.68c-.53-.71-1.06-1.4-1.58-2.07l21.89-5.51Zm-4.77,46.85,27.07-1.68c-.24-1.53-.66-3-1-4.56l-27,1.49C1207.4,454.6,1207.69,456.19,1207.93,457.77Zm25-4.85.12.48c.12.5.23,1,.33,1.45l-24.36,1.52c-.12-.72-.25-1.42-.38-2.11Zm-33.8-21.13,25.81-4.9c-.78-1.46-1.78-2.88-2.65-4.33l-25.73,4.69C1197.5,428.76,1198.35,430.27,1199.16,431.79Zm23.08-6.86.64,1-23,4.37c-.39-.71-.78-1.41-1.17-2.09l23-4.19Zm-17.51,19.72,26.65-3.32c-.51-1.5-1.31-3-1.91-4.46L1203,440C1203.61,441.54,1204.2,443.09,1204.73,444.65Zm23.91-6.34c.14.33.29.65.44,1s.29.64.43,1l-23.88,3q-.36-1-.78-2.1ZM935.49,606.6c2.58.35,5.13.81,7.73,1.11L949,592.32c-2.7-.3-5.4-.64-8.08-1Zm11.64-13.15-4.79,12.81c-1.16-.15-2.32-.33-3.46-.5l-1.6-.24,4.49-12.75C943.65,593,945.42,593.24,947.13,593.45Zm39.21,1.19.24,15.68c1.59,0,3.18,0,4.78,0h3.17l.07-15.68-3.44,0C989.55,594.67,988,594.66,986.34,594.64ZM993.21,609h-1.85l-3.47,0-.2-13,3.47,0h2.11Zm-32.34.21c2.64.19,5.26.44,7.9.58l2.92-15.63q-4.12-.21-8.23-.51Zm9.23-13.81-2.43,13c-1.35-.08-2.72-.19-4-.3l-1.21-.09,2.15-12.94C966.36,595.2,968.19,595.31,970.1,595.41Zm-59.41,7.07c2.51.5,5,1.07,7.52,1.53l8.48-14.91c-2.64-.46-5.26-1-7.87-1.48Zm13.92-12.4-7.09,12.45c-1.24-.24-2.48-.5-3.69-.76l-1.11-.23,6.8-12.43C921.17,589.44,922.88,589.76,924.61,590.08Zm-66.35-21.21-15.69,12.65c2.13.93,4.26,1.85,6.42,2.73l16-12.55Q861.58,570.32,858.26,568.87Zm-9.48,13.86c-1.25-.52-2.49-1-3.67-1.55l13.36-10.77,3.87,1.65Zm15.2,7.14c2.28.79,4.54,1.6,6.85,2.35l13.61-13.48c-2.41-.77-4.79-1.58-7.16-2.41Zm18-10.54L870.47,590.7c-1.37-.45-2.74-.92-4.08-1.39l11.25-11.44Zm4.81,17.55c2.41.65,4.78,1.34,7.22,2l11.11-14.27c-2.53-.62-5.06-1.27-7.56-1.95Zm16-11.52-9.33,12c-1.33-.34-2.66-.71-4-1.07l-.51-.14,9-12C899.58,584.54,901.15,584.94,902.8,585.36Zm172.93-.49,11.26,14.3c2.43-.59,4.8-1.27,7.2-1.91L1083.27,583Q1079.52,584,1075.73,584.87Zm15.82,11.73c-1.32.36-2.68.73-4,1.08l-9.46-12c1.64-.41,3.2-.81,4.71-1.21l9.19,12Zm4.77-17.48,13.76,13.53c2.31-.74,4.56-1.54,6.83-2.32l-13.45-13.59C1101.1,577.56,1098.72,578.36,1096.32,579.12Zm14.12,12-11.62-11.43c1.39-.45,2.81-.93,4.28-1.44l11.38,11.49C1113.15,590.22,1111.8,590.69,1110.44,591.14Zm5.3-19,16.1,12.61c2.15-.87,4.27-1.79,6.39-2.7l-15.83-12.71Q1119.1,570.79,1115.74,572.15Zm16.31,11.09-13.69-10.73c1.23-.51,2.5-1,3.83-1.63l13.49,10.83C1134.44,582.24,1133.25,582.75,1132.05,583.24Zm1.71-19.21L1152,575.6q3-1.5,5.88-3.06l-18-11.69C1137.86,561.93,1135.83,563,1133.76,564Zm18.34,10.05-15.66-9.92c1.13-.58,2.26-1.17,3.37-1.77l15.48,10C1154.19,573,1153.14,573.55,1152.1,574.08ZM840.69,560.31l-17.91,11.62q2.93,1.58,5.92,3.09l18.14-11.51Q843.72,562,840.69,560.31Zm-12.06,13.18c-1-.53-2.11-1.08-3.23-1.67l15.35-10c1.14.61,2.28,1.2,3.41,1.79Zm203.32,19,5.91,15.41c2.6-.29,5.14-.74,7.72-1.08L1040,591.49C1037.34,591.84,1034.65,592.18,1032,592.47Zm10.26,13.47c-1.14.17-2.31.35-3.48.5l-4.93-12.84c1.7-.2,3.46-.41,5.34-.65l4.63,12.76ZM829.35,381.56,809.1,371.15q-2.72,1.68-5.31,3.4l20,10.54C825.63,383.9,827.47,382.73,829.35,381.56Zm-22.94-7.14,2.75-1.74,17.5,9c-1,.62-2,1.25-2.9,1.87Zm202.84,219.82,3.09,15.63c2.64-.13,5.25-.36,7.88-.54l-2.76-15.57Q1013.37,594,1009.25,594.24Zm8.14,14c-1.3.09-2.64.2-4,.27l-2.56-13,5.51-.32,2.3,12.94Zm36.8-18.88,8.65,14.94c2.52-.44,5-1,7.49-1.5l-8.28-14.89C1059.44,588.39,1056.82,588.88,1054.19,589.33Zm13,12.73c-1.2.25-2.43.5-3.66.73l-7.23-12.48c1.72-.31,3.41-.62,5.06-.94l6.94,12.45ZM776.27,439.21,749.75,436c-.58,1.48-1.36,2.95-1.86,4.45l26.68,3.42Q775.35,441.54,776.27,439.21Zm-2.61,3.21-23.92-3.06.43-1c.14-.31.28-.62.42-.95l23.83,2.89C774.15,441.05,773.9,441.74,773.66,442.42Zm8.87-15.92-25.79-4.78c-.85,1.45-1.83,2.87-2.6,4.32L780,431C780.8,429.52,781.64,428,782.53,426.5Zm-26.31-1.41.62-1,.57-.91,23,4.27c-.39.69-.77,1.38-1.15,2.08Zm16.12,27.15-27-1.6c-.31,1.52-.71,3-.94,4.56L771.51,457C771.74,455.4,772,453.82,772.34,452.24Zm-2,3.34L746,454c.1-.49.21-1,.33-1.49,0-.15.07-.3.1-.44l24.31,1.43C770.62,454.16,770.5,454.86,770.38,455.58Zm31.44-53-23.53-7.77c-1.36,1.31-2.75,2.61-4,3.95l23.43,7.94C799,405.32,800.4,404,801.82,402.59Zm-25.11-4.4,1.54-1.49.38-.37,20.69,6.83c-.69.69-1.36,1.36-2,2Zm37.92-6.53-22-9.14c-1.59,1.22-3.17,2.44-4.68,3.69l21.84,9.29Q812.13,393.55,814.63,391.66Zm-24.14-5.81c.74-.59,1.52-1.19,2.32-1.81L812,392l-2.45,2Zm-19.7,79.59-27.15,0c0,1.53,0,3.06,0,4.59l27.16.14Q770.73,467.83,770.79,465.44ZM745,468.75c0-.65,0-1.3,0-1.94l24.49,0c0,.7,0,1.4,0,2.1Zm46.11-54.5-24.78-6.31c-1.11,1.38-2.3,2.75-3.33,4.16l24.78,6.5Q789.33,416.41,791.07,414.25Zm-25.83-2.93,1-1.21.55-.68,22,5.6c-.52.67-1,1.35-1.55,2.06Zm59.49,139.43-19.92,10.47c1.73,1.15,3.52,2.29,5.34,3.42l20.14-10.34Q827.44,552.55,824.73,550.75Zm-17.31,10.6,17.23-9.06c1,.63,2,1.26,3,1.9l-17.39,8.92ZM798.36,529,775,536.9c1.29,1.33,2.69,2.64,4.06,4l23.44-7.68Q800.38,531.13,798.36,529Zm-18.94,10.31-.17-.17-1.78-1.71L798,530.56c.65.67,1.32,1.35,2,2Zm8.86-22.24-24.71,6.42c1,1.4,2.24,2.78,3.37,4.17l24.71-6.22C790.47,520,789.35,518.58,788.28,517.11Zm-21.48,8.33c-.31-.37-.63-.75-.94-1.14l21.88-5.68c.54.72,1.06,1.4,1.59,2.07l-21.9,5.51Zm43.76,14.85-21.75,9.22c1.53,1.25,3.13,2.48,4.73,3.7l21.91-9.06C813.78,542.88,812.14,541.59,810.56,540.29Zm-19.18,9.57,19-8c.78.64,1.61,1.29,2.48,2l-19.08,7.89C793,551.1,792.17,550.48,791.38,549.86Zm-11-45.21-25.82,4.89c.79,1.47,1.79,2.89,2.65,4.34L783,509.19Q781.62,506.93,780.41,504.65Zm-23.06,6.9-.66-1.05,23-4.37q.57,1.06,1.17,2.1l-23,4.18Zm17.48-19.76-26.65,3.32c.52,1.49,1.32,3,1.92,4.46l26.48-3.11C776,494.9,775.36,493.35,774.83,491.79Zm-23.9,6.34-.44-1-.43-1,23.87-3q.36,1,.78,2.1Zm20.7-19.46-27.06,1.68c.24,1.53.66,3,1,4.56l27-1.49C772.16,481.84,771.88,480.25,771.63,478.67Zm-25,4.85c0-.16-.08-.33-.11-.49l-.34-1.44,24.36-1.52c.12.72.25,1.42.39,2.11Z" transform="translate(9.39)"/><path class="b41b80d3-16a2-4743-b095-ad3c3bba0000" d="M1018.69,327.21c-2.63-.18-5.25-.42-7.89-.56l-2.92,15.62q4.13.21,8.22.51ZM1009.46,341l2.43-13c1.34.08,2.68.19,4,.29l1.28.1L1015,341.37C1013.21,341.24,1011.38,341.13,1009.46,341Zm106.13,5.54c-2.28-.79-4.54-1.6-6.86-2.34l-13.61,13.47c2.41.77,4.8,1.58,7.16,2.41Zm-18,10.54,11.48-11.37c1.37.45,2.75.93,4.09,1.39l-11.25,11.45C1100.44,358.06,1099,357.58,1097.61,357.11Zm-4.81-17.55c-2.41-.65-4.79-1.34-7.22-1.94l-11.11,14.26q3.79.93,7.56,1.95Zm-16,11.52,9.32-12c1.32.33,2.64.7,3.93,1.06l.54.14-9,12C1080,351.9,1078.41,351.5,1076.77,351.08Zm-193.52,6.24-13.76-13.53c-2.31.74-4.56,1.54-6.83,2.32l13.45,13.59C878.47,358.88,880.84,358.08,883.25,357.32Zm-14.12-12,11.62,11.43c-1.39.45-2.81.93-4.29,1.44l-11.38-11.49C866.41,346.22,867.77,345.75,869.13,345.3ZM947.62,344l-5.92-15.41c-2.59.29-5.13.74-7.71,1.08L939.54,345C942.23,344.6,944.92,344.26,947.62,344ZM937.36,330.5c1.14-.17,2.31-.35,3.47-.5l4.93,12.84c-1.7.2-3.46.41-5.33.66l-4.63-12.77Zm-91.55,41.91-18.27-11.57c-2,1-3.94,2-5.88,3.06l18,11.69C841.7,374.51,843.74,373.44,845.81,372.41Zm-18.35-10.05,15.66,9.92c-1.12.58-2.25,1.17-3.37,1.77l-15.48-10C825.37,363.43,826.43,362.89,827.46,362.36ZM1197,509.94l25.78,4.78c.85-1.44,1.84-2.87,2.61-4.32l-25.87-5C1198.77,506.92,1197.93,508.44,1197,509.94Zm26.31,1.41-.63,1-.56.9-23-4.27c.39-.69.77-1.38,1.14-2.08Zm-16.13-27.15,27,1.59c.32-1.51.72-3,.94-4.55l-27.08-1.78C1207.82,481,1207.55,482.62,1207.22,484.2Zm2-3.34,24.39,1.61c-.11.49-.22,1-.34,1.51l-.09.42L1208.82,483Q1209,481.94,1209.18,480.86Zm-59,74,20.24,10.41q2.71-1.68,5.32-3.4l-20-10.54C1153.94,552.54,1152.1,553.71,1150.22,554.88Zm22.94,7.14-2.76,1.74-17.5-9c1-.62,2-1.25,2.91-1.87Zm-8.22-17.24,22,9.14c1.59-1.22,3.18-2.44,4.69-3.69l-21.85-9.29C1168.23,542.24,1166.6,543.52,1164.94,544.78Zm24.14,5.81-2.33,1.81-19.19-8c.86-.67,1.68-1.32,2.45-1.95Zm-7.87-143.19,23.34-7.86c-1.29-1.33-2.69-2.64-4.06-4L1177,403.27Q1179.2,405.31,1181.21,407.4Zm18.93-10.31.31.3,1.65,1.58-20.52,6.91c-.66-.67-1.33-1.35-2-2Zm4.59,47.56,26.65-3.32c-.51-1.5-1.31-3-1.91-4.46L1203,440C1203.61,441.54,1204.2,443.09,1204.73,444.65Zm23.91-6.34c.14.33.29.65.44,1s.29.64.43,1l-23.88,3q-.36-1-.78-2.1ZM935.49,606.6c2.58.35,5.13.81,7.73,1.11L949,592.32c-2.7-.3-5.4-.64-8.08-1Zm11.64-13.15-4.79,12.81c-1.16-.15-2.32-.33-3.46-.5l-1.6-.24,4.49-12.75C943.65,593,945.42,593.24,947.13,593.45Zm-60.36,3.43c2.41.65,4.78,1.34,7.22,2l11.11-14.27c-2.53-.62-5.06-1.27-7.56-1.95Zm16-11.52-9.33,12c-1.33-.34-2.66-.71-4-1.07l-.51-.14,9-12C899.58,584.54,901.15,584.94,902.8,585.36Zm193.52-6.24,13.76,13.53c2.31-.74,4.56-1.54,6.83-2.32l-13.45-13.59C1101.1,577.56,1098.72,578.36,1096.32,579.12Zm14.12,12-11.62-11.43c1.39-.45,2.81-.93,4.28-1.44l11.38,11.49C1113.15,590.22,1111.8,590.69,1110.44,591.14ZM840.69,560.31l-17.91,11.62q2.93,1.58,5.92,3.09l18.14-11.51Q843.72,562,840.69,560.31Zm-12.06,13.18c-1-.53-2.11-1.08-3.23-1.67l15.35-10c1.14.61,2.28,1.2,3.41,1.79Zm203.32,19,5.91,15.41c2.6-.29,5.14-.74,7.72-1.08L1040,591.49C1037.34,591.84,1034.65,592.18,1032,592.47Zm10.26,13.47c-1.14.17-2.31.35-3.48.5l-4.93-12.84c1.7-.2,3.46-.41,5.34-.65l4.63,12.76Zm-33-11.7,3.09,15.63c2.64-.13,5.25-.36,7.88-.54l-2.76-15.57Q1013.37,594,1009.25,594.24Zm8.14,14c-1.3.09-2.64.2-4,.27l-2.56-13,5.51-.32,2.3,12.94Zm-245-156-27-1.6c-.31,1.52-.71,3-.94,4.56L771.51,457C771.74,455.4,772,453.82,772.34,452.24Zm-2,3.34L746,454c.1-.49.21-1,.33-1.49,0-.15.07-.3.1-.44l24.31,1.43C770.62,454.16,770.5,454.86,770.38,455.58Zm31.44-53-23.53-7.77c-1.36,1.31-2.75,2.61-4,3.95l23.43,7.94C799,405.32,800.4,404,801.82,402.59Zm-25.11-4.4,1.54-1.49.38-.37,20.69,6.83c-.69.69-1.36,1.36-2,2Zm14.36,16.06-24.78-6.31c-1.11,1.38-2.3,2.75-3.33,4.16l24.78,6.5Q789.33,416.41,791.07,414.25Zm-25.83-2.93,1-1.21.55-.68,22,5.6c-.52.67-1,1.35-1.55,2.06ZM798.36,529,775,536.9c1.29,1.33,2.69,2.64,4.06,4l23.44-7.68Q800.38,531.13,798.36,529Zm-18.94,10.31-.17-.17-1.78-1.71L798,530.56c.65.67,1.32,1.35,2,2Zm1-34.7-25.82,4.89c.79,1.47,1.79,2.89,2.65,4.34L783,509.19Q781.62,506.93,780.41,504.65Zm-23.06,6.9-.66-1.05,23-4.37q.57,1.06,1.17,2.1l-23,4.18Zm17.48-19.76-26.65,3.32c.52,1.49,1.32,3,1.92,4.46l26.48-3.11C776,494.9,775.36,493.35,774.83,491.79Zm-23.9,6.34-.44-1-.43-1,23.87-3q.36,1,.78,2.1Z" transform="translate(9.39)"/><g class="b2d60d1c-a999-412c-80d9-9354aad2ec78"><path class="f035b381-7127-4ce5-83a7-555c3c1a1fc7" d="M1128.09,469.33c-.23,18.88-11.86,36.19-31.13,49.75l8,3.86c22.35-15.68,33.33-33.23,33.53-53.59Z" transform="translate(9.39)"/></g><path class="fdce658d-85fd-4bd1-969a-8e47f60d28fb" d="M1016.09,553c33.59-3.36,64.4-13.56,86.91-28.75l-8-3.87c-25.31,17-62.91,27.82-104.87,27.74a221.1,221.1,0,0,1-67.94-10.41l-5.12,5.14C947.41,552.78,982.5,556.38,1016.09,553Z" transform="translate(9.39)"/><path class="a5f9e749-9aa9-485f-916c-e1896c513ae8" d="M851.34,468c-.24-44.06,61.64-79.79,137.95-79.65q11.52,0,22.56,1.11l1.78-5.91a242.18,242.18,0,0,0-75.19,3.88C880,399.63,840.79,432,841,468c0,9.71,3,19.31,8.65,28.55l9.66-2A50.78,50.78,0,0,1,851.34,468Z" transform="translate(9.39)"/><path class="b41b80d3-16a2-4743-b095-ad3c3bba0000" d="M860.34,496.12l-9.66,2C863.14,517.24,884,531.6,914.49,542l5.12-5.14C892.7,527.58,871.59,513.23,860.34,496.12Z" transform="translate(9.39)"/><path class="aa2ff3aa-cff0-4606-b4c1-f1821206f095" d="M1128.08,467.59l10.37,0c-.45-20.06-12.78-39.39-34.8-54.52s-52.89-25.49-87.06-29.23l-1.77,5.91C1078.51,396.76,1127.12,429,1128.08,467.59Z" transform="translate(9.39)"/><ellipse class="ed2d2da8-86df-48cb-b6a1-9e10d5577c76" cx="834.37" cy="485.55" rx="131.44" ry="42.78" transform="translate(-28.17 71.22) rotate(-4.78)"/><ellipse class="b3499b9b-978d-4338-a7a8-22b093047a79" cx="947.69" cy="550.74" rx="78.94" ry="28.02" transform="translate(50.25 1166.44) rotate(-64.34)"/><ellipse class="ab2fad15-7b06-4530-a9e6-4ba49996ceb0" cx="1139.55" cy="459.87" rx="78.94" ry="28.02" transform="translate(-31.76 119.3) rotate(-5.89)"/><ellipse class="a7128198-f801-4ff5-8dec-0659eed35499" cx="1015.4" cy="378.2" rx="78.94" ry="28.02" transform="matrix(0.14, -0.99, 0.99, 0.14, 503.37, 1328.05)"/><ellipse class="f502e777-ee91-4030-9e78-98e56140b55b" cx="1116.26" cy="400.93" rx="93.68" ry="42.78" transform="translate(-51.1 252.51) rotate(-12.57)"/><ellipse class="b832bee7-b56a-4ade-a8e9-0edb13e91005" cx="1112.16" cy="531.41" rx="42.78" ry="93.68" transform="translate(83.57 1196.17) rotate(-58.18)"/><ellipse class="fabc87f4-60ed-4c57-89b0-4c7f13e0accd" cx="892" cy="397.38" rx="42.78" ry="93.68" transform="translate(51.9 878.99) rotate(-53.56)"/><path class="a8d76ad3-fe46-4740-b47b-20bdb4a09259" d="M1068.46,470.53c-30.6,30.6-62.84,41.72-90.5,35-.83-.2-13-3.08-13.78-3.31-27.85-7.87,6.24-19.12-5.23-61.9-23.07-86.12,9-206.72,71.66-269.38,31-31,2.59-59.87,30.48-52.67.77.2,16.87,6,17.65,6.21,27.46,8.17,50,34.29,61.37,76.64C1163.19,287.28,1131.11,407.88,1068.46,470.53Z" transform="translate(9.39)"/><path class="e1ac0991-72fe-4fbf-b37a-f3682d8da106" d="M1130.17,198.53c-11.06-41.29-32.8-67.1-59.33-75.94,21.1,11.87,38.11,35.77,47.47,70.72,23.08,86.12-9,206.72-71.65,269.37-32.62,32.62-67.08,43.05-95.89,33.44,30.88,17.39,70.52,9,107.75-28.22C1121.17,405.25,1153.25,284.64,1130.17,198.53Z" transform="translate(9.39)"/><ellipse class="fcf70d9c-d026-4115-957b-9e64ab75c103" cx="1011.98" cy="309.51" rx="197.73" ry="114.16" transform="translate(465.35 1209.93) rotate(-75.31)"/><ellipse class="e4043d3c-6b77-4295-9cd2-984629afdbaf" cx="1011.98" cy="309.51" rx="188.75" ry="108.97" transform="translate(465.36 1209.93) rotate(-75.31)"/><ellipse class="e69a95f3-5d29-45f0-82e1-008f517ca55c" cx="1011.98" cy="309.51" rx="161.78" ry="93.4" transform="translate(465.35 1209.93) rotate(-75.31)"/><ellipse class="fc6cd511-6812-4604-b4d1-12f3780974b4" cx="1011.98" cy="309.51" rx="134.82" ry="77.83" transform="translate(465.36 1209.93) rotate(-75.31)"/><ellipse class="b88d4f04-20ca-4503-9971-756caa2198a8" cx="1011.98" cy="309.51" rx="107.86" ry="62.27" transform="translate(465.35 1209.93) rotate(-75.31)"/><ellipse class="a879888a-3edd-4d43-af72-58a04a1a3232" cx="1011.98" cy="309.51" rx="80.89" ry="46.7" transform="translate(465.36 1209.93) rotate(-75.31)"/><ellipse class="bfdca557-9363-403d-a84c-47e1cb3c78c6" cx="1011.98" cy="309.51" rx="53.93" ry="31.13" transform="translate(465.36 1209.93) rotate(-75.31)"/><path class="a50b7168-5603-4309-ab6a-8d042b1cf52c" d="M921.16,401.35c-18.94-70.69,7.39-169.68,58.81-221.1a122.7,122.7,0,0,1,25.43-19.86,120.22,120.22,0,0,0-27.72,21.13C926.26,233,899.92,331.94,918.86,402.63c15.86,59.15,58.39,79.73,102,54.73C978.06,480.35,936.73,459.47,921.16,401.35Z" transform="translate(9.39)"/><path class="a50b7168-5603-4309-ab6a-8d042b1cf52c" d="M952.19,370.31c-12.62-47.12,4.93-113.11,39.21-147.4a83.09,83.09,0,0,1,16.13-12.76,80.12,80.12,0,0,0-18.42,14c-34.28,34.28-51.84,100.27-39.21,147.4,10.67,39.81,39.46,53.41,68.81,36C990.17,423,962.58,409.09,952.19,370.31Z" transform="translate(9.39)"/><path class="a50b7168-5603-4309-ab6a-8d042b1cf52c" d="M983.23,339.28c-6.31-23.56,2.46-56.56,19.61-73.7a40.9,40.9,0,0,1,7.73-6.17,39.06,39.06,0,0,0-10,7.44C983.4,284,974.63,317,980.94,340.55c5.37,20.06,19.95,26.8,34.74,17.8C1001.7,365.35,988.33,358.3,983.23,339.28Z" transform="translate(9.39)"/>

<ellipse class="acd882cd-74d1-46d8-abc0-769d9f6a82c9 innerCircle" cx="1011.98" cy="309.51" rx="26.96" ry="15.57" transform="translate(465.36 1209.93) rotate(-75.31)"/><path class="f21bf1dc-a873-41aa-bb37-c3789b80cd79" d="M1120.61,200.88c-8-29.75-21.74-51.14-38.89-63.51,16.2,12.56,29.19,33.42,36.85,62,22.1,82.47-8.63,198-68.62,258-38.35,38.35-79.37,44.74-109.75,22.82,30.57,23.71,72.58,17.92,111.79-21.29C1112,398.84,1142.7,283.35,1120.61,200.88Z" transform="translate(9.39)"/><path class="ed467b8c-b596-4dcf-a8f4-ee4ef758c316" d="M1089.57,231.92c-5.68-21.2-15.49-36.42-27.7-45.27,11.27,9,20.3,23.73,25.66,43.74,15.79,58.91-6.16,141.4-49,184.26-27.43,27.43-56.77,31.93-78.48,16.2,21.89,17.54,52.22,13.62,80.52-14.68C1083.41,373.32,1105.35,290.83,1089.57,231.92Z" transform="translate(9.39)"/><path class="baaa0e48-55a3-495c-9ae9-a9290c691573" d="M1058.53,263c-3.51-13.1-9.64-22.41-17.27-27.64,6.68,5.43,12,14.2,15.23,26.11,9.47,35.34-3.69,84.84-29.4,110.55-16.18,16.18-33.47,19.08-46.43,10.2,13.15,10.67,31.42,8.37,48.46-8.67C1054.84,347.8,1068,298.3,1058.53,263Z" transform="translate(9.39)"/><path class="ac8aa2a9-dd5b-4438-851a-5945adf882cc" d="M1027.49,294c-1.26-4.73-3.57-8-6.42-9.6a17.21,17.21,0,0,1,4.39,8.08c3.15,11.78-1.23,28.28-9.81,36.85-5.12,5.12-10.57,6.22-14.81,3.79,4.42,4.24,10.86,3.73,16.85-2.26C1026.26,322.27,1030.65,305.78,1027.49,294Z" transform="translate(9.39)"/><polygon class="b87a69bc-6fb1-4058-a627-4d385a97a152" points="964.13 297.51 990.95 305.82 963.03 299.63 964.13 297.51"/><path class="f4eca319-728f-43dc-8c12-cf3e5db39f13" d="M737.29,241.65l-8-10.44c-4.36-5.71,2.27-13.28,8.5-9.72L803.49,259Z" transform="translate(9.39)"/><path class="f06acace-bb2c-4657-ab12-b34a26d12de9" d="M738.55,241.11l-8-10.44a6.54,6.54,0,0,1,2.06-9.78,6.59,6.59,0,0,0-3.32,10.32l8,10.44L803.49,259l-2.81-1.61Z" transform="translate(9.39)"/><path class="f675b221-7c2f-4bbb-a0f6-7a25269266e5" d="M957,300.38a.65.65,0,0,1-.59.23s-11.83,1.81-31.19-3.35c-27.66-7.38-31.15-9.5-31.16-9.5-.73-.2.16-.49-.14-1.61a8,8,0,0,1,1.86-7c.81-.8.07-1.55.79-1.37,0,0,4,0,31.7,7.44,19.42,5.19,28.79,12.9,28.8,12.9a.67.67,0,0,1,.39.5A2,2,0,0,1,957,300.38Z" transform="translate(9.39)"/><ellipse class="ab97344d-60c7-4d6f-be55-02c4b0c0ee2e" cx="895.26" cy="282.76" rx="5.12" ry="2.95" transform="translate(404.11 1077.05) rotate(-75.31)"/><path class="fd5bdae0-1363-4f7c-a9c0-b54604903374" d="M895.77,286.35a2.42,2.42,0,0,1-2.24.87l-160.7-43.16c-.69-.2.15-.48-.13-1.54a7.61,7.61,0,0,1,1.78-6.67c.76-.77.06-1.49.75-1.31L896,277.78a2.47,2.47,0,0,1,1.52,1.9A7.6,7.6,0,0,1,895.77,286.35Z" transform="translate(9.39)"/><path class="b2aca0d9-a41e-4a6e-92e1-595a3e5dd83c" d="M735,243.15c-1.55,1.55-3.27,1.08-3.85-1.05a7.65,7.65,0,0,1,1.78-6.68c1.55-1.55,3.28-1.08,3.85,1.05A7.65,7.65,0,0,1,735,243.15Z" transform="translate(9.39)"/><path class="f56c6690-e76f-4233-a8aa-cb3a47538869" d="M1012.22,309.46l-17,18.83a.4.4,0,0,0-.26.15s-10.94,5.26-23.81,20.7c-18.35,22-82,91-82,91a.35.35,0,0,0-.11.23,2.49,2.49,0,0,0-.07,2.24c.76,2.06,9.25,14.32,11.43,14.7a2.45,2.45,0,0,0,2.32-.56.61.61,0,0,0,.17-.14S962.45,379,980.76,357c12.83-15.4,16.16-26.89,16.16-26.89a.67.67,0,0,0,0-.63Z" transform="translate(9.39)"/><path class="e15d85f9-0a00-4d13-a47d-7afaf674dd46" d="M1011.07,310.81l-16.13,17.85a.44.44,0,0,0-.25.14s-10.29,5.07-22.49,19.71c-17.4,20.87-79.61,88.61-79.63,88.62a.41.41,0,0,0-.1.22,2.37,2.37,0,0,0-.06,2.12c.71,1.95,8.53,13.18,10.59,13.54a2.38,2.38,0,0,0,2.21-.53.88.88,0,0,0,.15-.14s58.35-75.63,75.72-96.49c12.16-14.6,15.48-25.5,15.48-25.5a.61.61,0,0,0,0-.6Z" transform="translate(9.39)"/><path class="ba77b629-1893-45dc-8a8a-43c1e9be48f1" d="M1009.91,312.15,994.67,329a.49.49,0,0,0-.23.14s-9.65,4.88-21.18,18.72c-16.45,19.73-77.2,86.26-77.21,86.27a.33.33,0,0,0-.09.2,2.26,2.26,0,0,0-.07,2c.68,1.85,7.82,12,9.77,12.38a2.24,2.24,0,0,0,2.08-.5.81.81,0,0,0,.15-.13S965,374.45,981.4,354.74c11.49-13.81,14.8-24.12,14.8-24.12a.54.54,0,0,0,0-.56Z" transform="translate(9.39)"/><path class="add3a055-fcbf-4c80-a9c8-29e662eb48a6" d="M1008.76,313.5l-14.35,15.89a.38.38,0,0,0-.23.13s-9,4.69-19.86,17.73c-15.49,18.58-74.78,83.91-74.79,83.92a.31.31,0,0,0-.09.19,2.14,2.14,0,0,0-.06,1.89c.64,1.74,7.09,10.89,8.93,11.21a2.09,2.09,0,0,0,2-.47.46.46,0,0,0,.13-.12s55.84-71.67,71.3-90.25c10.83-13,14.13-22.72,14.13-22.72a.54.54,0,0,0,0-.53Z" transform="translate(9.39)"/><path class="f7dd8a84-b967-4229-a6c8-8de4e23f386a" d="M1007.61,314.84l-13.47,14.92a.37.37,0,0,0-.21.12s-8.35,4.5-18.55,16.74C960.84,364.06,903,428.18,903,428.19a.27.27,0,0,0-.09.18,2,2,0,0,0,0,1.77c.6,1.64,6.37,9.75,8.1,10.05a2,2,0,0,0,1.84-.44.46.46,0,0,0,.13-.12S967.51,370,982,352.51c10.16-12.2,13.46-21.34,13.46-21.34a.5.5,0,0,0,0-.5Z" transform="translate(9.39)"/><path class="a9f55549-4e46-478b-84dc-66018a071be3" d="M1006.46,316.19l-12.59,13.94a.36.36,0,0,0-.2.11S986,334.55,976.44,346c-13.59,16.3-70,79.21-70,79.22a.24.24,0,0,0-.07.17,1.82,1.82,0,0,0-.06,1.65c.56,1.53,5.66,8.61,7.27,8.89a1.86,1.86,0,0,0,1.73-.42l.12-.1s53.31-67.71,66.87-84c9.5-11.41,12.79-19.95,12.79-19.95a.47.47,0,0,0,0-.47Z" transform="translate(9.39)"/><path class="bcfffdb3-3c66-453e-a417-f2348a82e4d8" d="M1005.31,317.53l-11.71,13a.29.29,0,0,0-.18.1s-7.06,4.12-15.92,14.76C964.86,360.52,910,422.22,910,422.23a.22.22,0,0,0-.07.15,1.75,1.75,0,0,0,0,1.55c.52,1.42,4.94,7.45,6.44,7.71a1.7,1.7,0,0,0,1.6-.38.47.47,0,0,0,.11-.1s52.06-65.72,64.67-80.87c8.83-10.61,12.11-18.57,12.11-18.57a.42.42,0,0,0,0-.43Z" transform="translate(9.39)"/><path class="f991253f-6ccc-4fae-b0d5-ddd93a764c36" d="M1004.16,318.87l-10.83,12a.29.29,0,0,0-.16.1s-6.42,3.93-14.61,13.77c-11.68,14-65.11,74.51-65.12,74.52a.23.23,0,0,0-.07.14,1.59,1.59,0,0,0,0,1.43c.48,1.31,4.22,6.31,5.6,6.55a1.58,1.58,0,0,0,1.49-.36.26.26,0,0,0,.1-.09s50.79-63.73,62.46-77.75c8.16-9.8,11.44-17.17,11.44-17.17a.4.4,0,0,0,0-.4Z" transform="translate(9.39)"/><path class="ff2d7dda-5c7a-4b9f-a656-bce5f76ee3df" d="M1003,320.22l-10,11a.29.29,0,0,0-.15.09s-5.76,3.75-13.29,12.78c-10.73,12.87-62.7,72.16-62.7,72.17a.23.23,0,0,0-.07.13,1.5,1.5,0,0,0,0,1.31c.45,1.2,3.5,5.17,4.78,5.39a1.47,1.47,0,0,0,1.36-.33.32.32,0,0,0,.09-.08s49.54-61.76,60.25-74.63a86.33,86.33,0,0,0,10.77-15.79.37.37,0,0,0,0-.36Z" transform="translate(9.39)"/><path class="bbf46b40-24e9-4745-bd1f-a724c3c83e40" d="M1001.86,321.56l-9.06,10a.22.22,0,0,0-.14.08s-5.12,3.56-12,11.79c-9.78,11.73-60.28,69.81-60.29,69.82a.19.19,0,0,0,0,.12,1.31,1.31,0,0,0,0,1.19c.4,1.1,2.78,4,3.94,4.22a1.32,1.32,0,0,0,1.24-.29.32.32,0,0,0,.09-.08s48.28-59.77,58-71.5a93,93,0,0,0,10.09-14.4.33.33,0,0,0,0-.34Z" transform="translate(9.39)"/><path class="eac0325e-8f91-460e-bade-d4f643a7c6fd" d="M1000.71,322.91,992.53,332a.21.21,0,0,0-.13.07,73.15,73.15,0,0,0-10.66,10.8c-8.83,10.59-57.86,67.46-57.87,67.46a.19.19,0,0,0,0,.11,1.18,1.18,0,0,0,0,1.08c.36,1,2.06,2.88,3.11,3.06a1.18,1.18,0,0,0,1.12-.27.23.23,0,0,0,.08-.07s47-57.79,55.83-68.37a106.41,106.41,0,0,0,9.42-13,.33.33,0,0,0,0-.3Z" transform="translate(9.39)"/><path class="a791f36e-461a-4ad6-9666-dec709a8c3aa" d="M999.56,324.25l-7.3,8.08a.23.23,0,0,0-.11.07,83,83,0,0,0-9.35,9.81c-7.87,9.44-55.44,65.11-55.45,65.11a.17.17,0,0,0-.05.1,1.12,1.12,0,0,0,0,1,3.28,3.28,0,0,0,2.28,1.9,1.06,1.06,0,0,0,1-.24.19.19,0,0,0,.07-.06s45.76-55.81,53.62-65.25A132.42,132.42,0,0,0,993,333.1a.28.28,0,0,0,0-.27Z" transform="translate(9.39)"/><path class="b418beff-ed85-49e3-b115-c680e004f5e5" d="M739.13,236.73l67.22,18.08-30.56-36c-11.45-13.49-33.47-7-35.72,10.58Z" transform="translate(9.39)"/><path class="b2cd0e0c-a660-48d4-bc1b-2890c5bdab16" d="M739.94,237.27l67.22,18.08-30.56-36c-11.45-13.49-33.47-7-35.72,10.58Z" transform="translate(9.39)"/><path class="ac04830d-f610-40eb-8d49-0231098716f1" d="M741.24,230.82c2.25-17.55,24.27-24.07,35.72-10.58l29.68,35,.52.14-30.56-36c-11.45-13.49-33.47-7-35.72,10.58l-.94,7.35.46.13Z" transform="translate(9.39)"/><path class="a8fba054-0c11-4691-975c-5e32448bcab7" d="M736.82,244.44l-2.71,4.81a17,17,0,0,0,18.52,25l51-11.35Z" transform="translate(9.39)"/><path class="bfa1b9a9-bf84-47da-bb5f-5766dc482f03" d="M738,244.56l-2.71,4.81a17,17,0,0,0,18.52,25l51-11.35Z" transform="translate(9.39)"/><path class="f6022437-be7e-422e-9748-d5a6eb3c229c" d="M754.82,274.1a17,17,0,0,1-18.52-25l2.45-4.34-.73-.2-2.71,4.81a17,17,0,0,0,18.52,25l51-11.35-.1,0Z" transform="translate(9.39)"/><path class="a196900e-fcc1-4ffd-bf4c-ae577b292445" d="M943.49,293.23c-.67,2.6-20.61-.28-44.52-6.44s-42.77-13.27-42.1-15.87,20.61.28,44.52,6.44S944.16,290.63,943.49,293.23Z" transform="translate(9.39)"/></g></g></svg>